<?xml version="1.0" encoding="UTF-8"?>
<svg width="479px" height="447px" viewBox="0 0 479 447" version="1.1" xmlns="http://www.w3.org/2000/svg" xmlns:xlink="http://www.w3.org/1999/xlink">
    <title>dw-desktop-icon-edu</title>
    <g id="dw-desktop-icon-edu" stroke="none" stroke-width="1" fill="none" fill-rule="evenodd">
        <g id="Group-2" fill="#DDEF75" fill-rule="nonzero">
            <g id="Group" transform="translate(358.000000, 305.000000)">
                <path d="M39.8497919,13 L15.1502081,13 C13.9624331,13 13,13.8954667 13,15 C13,16.1045333 13.9624331,17 15.1502081,17 L39.8497919,17 C41.0375669,17 42,16.1045333 42,15 C42,13.8954667 41.0372802,13 39.8497919,13 Z" id="Path"></path>
                <path d="M39.8497919,25 L15.1502081,25 C13.9624331,25 13,25.8954667 13,27 C13,28.1045333 13.9624331,29 15.1502081,29 L39.8497919,29 C41.0375669,29 42,28.1045333 42,27 C42,25.8954667 41.0372802,25 39.8497919,25 Z" id="Path"></path>
                <path d="M118.749613,121.915912 L75.6696135,82.1064051 C77.6343742,79.9351446 79.488822,77.7419904 81.2147974,75.5391056 C84.5450518,77.8657844 89.1727692,77.5592726 92.156636,74.6041635 C95.5137232,71.2792941 95.5324249,65.8785774 92.1978339,62.5301926 L74.2583142,44.5170822 C70.9318544,41.1770764 65.5002357,41.1586965 62.1507376,44.4759977 C59.5241,47.077564 58.9467873,50.9700479 60.4242201,54.1397694 C52.2076772,60.4086659 43.8290531,68.6328591 37.2349488,77.1065324 C34.1280304,75.6339783 30.2060982,76.1156397 27.5301316,78.7661291 C24.1733154,82.0909985 24.1538006,87.4917151 27.4889337,90.8401 L45.4284534,108.85294 C48.7592498,112.197541 54.1781297,112.219705 57.535759,108.894025 C60.5179995,105.939997 60.8573401,101.323399 58.5480891,97.9887989 C60.7738602,96.2786576 62.991229,94.4398569 65.1869148,92.4902364 L104.810085,135.721918 C107.502585,138.659187 112.10374,138.77271 114.937452,135.965722 L118.924704,132.016476 C121.754079,129.214623 121.685235,124.628568 118.749613,121.915912 L118.749613,121.915912 Z M65.0158893,47.3527219 C66.778997,45.6066317 69.6308679,45.624471 71.3739187,47.3743453 L89.3134384,65.3874557 C91.0640784,67.1454389 91.0551341,69.981349 89.2917553,71.7274392 C87.5327131,73.4697454 84.6805713,73.4597446 82.9337259,71.7058158 L64.9942062,53.6929757 C63.2473608,51.9390469 63.2571182,49.0947578 65.0158893,47.3527219 L65.0158893,47.3527219 Z M62.906936,57.3505753 L78.2396039,72.7459018 C71.9821299,80.7898098 63.8921622,88.8064184 55.7677725,95.0031467 L40.4351046,79.6080906 C46.5321236,71.7696049 54.5884825,63.6956943 62.906936,57.3505753 Z M54.6708783,106.017841 C52.9096678,107.762309 50.0643019,107.754471 48.3131199,105.996217 L30.3736002,87.9833774 C28.6226892,86.2253942 28.6321756,83.3892139 30.3952833,81.6431236 C32.1564938,79.8986551 35.0018597,79.9064936 36.7530417,81.664747 L54.6928324,99.6775871 C56.4396779,101.431246 56.4299205,104.275535 54.6708783,106.017841 L54.6708783,106.017841 Z M116.059824,129.140022 L112.072571,133.089268 C110.846933,134.303422 108.914697,134.19071 107.811027,132.986556 L68.1797258,89.7459555 C68.9776642,88.99265 69.7731632,88.2301545 70.5626994,87.448198 C71.3571143,86.6613762 72.1320144,85.8683377 72.8976992,85.0725963 L115.986101,124.889671 C117.214178,126.02463 117.257002,127.954249 116.059824,129.140022 L116.059824,129.140022 Z" id="Shape"></path>
                <path d="M98.0034361,137.743581 C97.6225107,137.80737 97.2312162,137.840097 96.8404675,137.840097 L11.1595325,137.840097 C7.26296002,137.840097 4.0930383,134.617898 4.0930383,130.657406 L4.0930383,11.3425938 C4.0930383,7.38237919 7.26296002,4.16018063 11.1595325,4.16018063 L77.8520442,4.16018063 C78.1276422,4.16018063 78.3988742,4.18819251 78.6651945,4.23367715 L78.6651945,18.4734207 C78.6651945,24.7278363 83.6715261,29.8160145 89.824727,29.8160145 L103.834651,29.8160145 C103.879402,30.086981 103.906962,30.3623849 103.906962,30.6425038 L103.906962,103.229335 C103.906962,104.3781 104.822984,105.309426 105.953481,105.309426 C107.083978,105.309426 108,104.3781 108,103.229335 L108,30.6425038 C108,28.2124036 107.06897,25.9279097 105.378818,24.2097551 L84.1809729,2.66473436 C82.490821,0.94630242 80.2431972,0 77.8520442,0 L11.1595325,0 C5.00633158,0 0,5.0884556 0,11.3425938 L0,130.657129 C0,136.911544 5.00633158,142 11.1595325,142 L96.8404675,142 C97.4538775,142 98.0697434,141.948691 98.6708742,141.847737 C99.7858179,141.660529 100.540574,140.589699 100.356115,139.456188 C100.171928,138.322955 99.117834,137.554154 98.0034361,137.743581 Z M101.012911,25.6558339 L89.824727,25.6558339 C85.9281545,25.6558339 82.7582328,22.4336354 82.7582328,18.4734207 L82.7582328,7.10198302 L101.012911,25.6558339 Z" id="Shape"></path>
            </g>
            <g id="Group" transform="translate(0.000000, 290.000000)">
                <path d="M23.9098751,7.8 L9.09012486,7.8 C8.37745989,7.8 7.8,8.33728 7.8,9 C7.8,9.66272 8.37745989,10.2 9.09012486,10.2 L23.9098751,10.2 C24.6225401,10.2 25.2,9.66272 25.2,9 C25.2,8.33728 24.6223681,7.8 23.9098751,7.8 Z" id="Path"></path>
                <path d="M23.9098751,15 L9.09012486,15 C8.37745989,15 7.8,15.53728 7.8,16.2 C7.8,16.86272 8.37745989,17.4 9.09012486,17.4 L23.9098751,17.4 C24.6225401,17.4 25.2,16.86272 25.2,16.2 C25.2,15.53728 24.6223681,15 23.9098751,15 Z" id="Path"></path>
                <path d="M71.2497679,73.149547 L45.4017681,49.2638431 C46.5806245,47.9610868 47.6932932,46.6451942 48.7288785,45.3234634 C50.7270311,46.7194706 53.5036615,46.5355635 55.2939816,44.7624981 C57.3082339,42.7675764 57.319455,39.5271465 55.3187003,37.5181155 L44.5549885,26.7102493 C42.5591126,24.7062458 39.3001414,24.6952179 37.2904425,26.6855986 C35.71446,28.2465384 35.3680724,30.5820288 36.254532,32.4838616 C31.3246063,36.2451995 26.2974318,41.1797155 22.3409693,46.2639195 C20.4768182,45.380387 18.1236589,45.6693838 16.518079,47.2596774 C14.5039892,49.2545991 14.4922803,52.4950291 16.4933602,54.50406 L27.257072,65.3117641 C29.2555499,67.3185245 32.5068778,67.3318229 34.5214554,65.3364147 C36.3107997,63.563998 36.5144041,60.7940393 35.1288535,58.7932794 C36.4643161,57.7671945 37.7947374,56.6639142 39.1121489,55.4941418 L62.8860509,81.4331505 C64.5015509,83.1955124 67.2622443,83.2636262 68.962471,81.5794329 L71.3548226,79.2098857 C73.0524473,77.5287738 73.011141,74.777141 71.2497679,73.149547 L71.2497679,73.149547 Z M39.0095336,28.4116332 C40.0673982,27.363979 41.7785207,27.3746826 42.8243512,28.4246072 L53.588063,39.2324734 C54.638447,40.2872633 54.6330805,41.9888094 53.5750532,43.0364635 C52.5196279,44.0818472 50.8083428,44.0758467 49.7602355,43.0234895 L38.9965237,32.2157854 C37.9484165,31.1634282 37.9542709,29.4568547 39.0095336,28.4116332 L39.0095336,28.4116332 Z M37.7441616,34.4103452 L46.9437624,43.6475411 C43.1892779,48.4738859 38.3352973,53.283851 33.4606635,57.001888 L24.2610627,47.7648543 C27.9192741,43.0617629 32.7530895,38.2174166 37.7441616,34.4103452 Z M32.802527,63.6107045 C31.7458007,64.6573856 30.0385812,64.6526826 28.9878719,63.5977305 L18.2241601,52.7900264 C17.1736135,51.7352365 17.1793053,50.0335283 18.23717,48.9858742 C19.2938963,47.9391931 21.0011158,47.9438962 22.051825,48.9988482 L32.8156995,59.8065523 C33.8638067,60.8587474 33.8579523,62.5653208 32.802527,63.6107045 L32.802527,63.6107045 Z M69.6358941,77.4840133 L67.2435426,79.8535605 C66.50816,80.5820532 65.3488184,80.514426 64.6866163,79.7919338 L40.9078355,53.8475733 C41.3865985,53.39559 41.8638979,52.9380927 42.3376197,52.4689188 C42.8142686,51.9968257 43.2792086,51.5210026 43.7386195,51.0435578 L69.5916606,74.9338026 C70.3285068,75.6147778 70.3542013,76.7725491 69.6358941,77.4840133 L69.6358941,77.4840133 Z" id="Shape"></path>
                <path d="M58.8020617,82.6461483 C58.5735064,82.684422 58.3387297,82.704058 58.1042805,82.704058 L6.69571949,82.704058 C4.35777601,82.704058 2.45582298,80.7707389 2.45582298,78.3944437 L2.45582298,6.80555628 C2.45582298,4.42942752 4.35777601,2.49610838 6.69571949,2.49610838 L46.7112265,2.49610838 C46.8765853,2.49610838 47.0393245,2.51291551 47.1991167,2.54020629 L47.1991167,11.0840524 C47.1991167,14.8367018 50.2029157,17.8896087 53.8948362,17.8896087 L62.3007908,17.8896087 C62.3276411,18.0521886 62.344177,18.217431 62.344177,18.3855023 L62.344177,61.9376012 C62.344177,62.6268599 62.8937902,63.1856554 63.5720885,63.1856554 C64.2503868,63.1856554 64.8,62.6268599 64.8,61.9376012 L64.8,18.3855023 C64.8,16.9274422 64.2413821,15.5567458 63.227291,14.5258531 L50.5085838,1.59884062 C49.4944926,0.567781452 48.1459183,0 46.7112265,0 L6.69571949,0 C3.00379895,0 0,3.05307336 0,6.80555628 L0,78.3942773 C0,82.1469266 3.00379895,85.2 6.69571949,85.2 L58.1042805,85.2 C58.4723265,85.2 58.841846,85.1692147 59.2025245,85.1086424 C59.8714907,84.9963176 60.3243445,84.3538193 60.2136687,83.6737129 C60.1031567,82.993773 59.4707004,82.5324922 58.8020617,82.6461483 Z M60.6077465,15.3935004 L53.8948362,15.3935004 C51.5568927,15.3935004 49.6549397,13.4601812 49.6549397,11.0840524 L49.6549397,4.26118981 L60.6077465,15.3935004 Z" id="Shape"></path>
            </g>
            <g id="Group" transform="translate(190.000000, 0.000000)">
                <path d="M19.9248959,6.5 L7.57510405,6.5 C6.98121657,6.5 6.5,6.94773333 6.5,7.5 C6.5,8.05226667 6.98121657,8.5 7.57510405,8.5 L19.9248959,8.5 C20.5187834,8.5 21,8.05226667 21,7.5 C21,6.94773333 20.5186401,6.5 19.9248959,6.5 Z" id="Path"></path>
                <path d="M19.9248959,12.5 L7.57510405,12.5 C6.98121657,12.5 6.5,12.9477333 6.5,13.5 C6.5,14.0522667 6.98121657,14.5 7.57510405,14.5 L19.9248959,14.5 C20.5187834,14.5 21,14.0522667 21,13.5 C21,12.9477333 20.5186401,12.5 19.9248959,12.5 Z" id="Path"></path>
                <path d="M59.3748066,60.9579558 L37.8348068,41.0532026 C38.8171871,39.9675723 39.744411,38.8709952 40.6073987,37.7695528 C42.2725259,38.9328922 44.5863846,38.7796363 46.078318,37.3020817 C47.7568616,35.639647 47.7662125,32.9392887 46.0989169,31.2650963 L37.1291571,22.2585411 C35.4659272,20.5885382 32.7501179,20.5793482 31.0753688,22.2379988 C29.76205,23.538782 29.4733936,25.485024 30.21211,27.0698847 C26.1038386,30.2043329 21.9145265,34.3164296 18.6174744,38.5532662 C17.0640152,37.8169892 15.1030491,38.0578199 13.7650658,39.3830645 C12.0866577,41.0454992 12.0769003,43.7458576 13.7444668,45.42005 L22.7142267,54.42647 C24.3796249,56.0987704 27.0890648,56.1098524 28.7678795,54.4470123 C30.2589997,52.9699983 30.4286701,50.6616994 29.2740446,48.9943995 C30.3869301,48.1393288 31.4956145,47.2199285 32.5934574,46.2451182 L52.4050424,67.8609588 C53.7512924,69.3295937 56.0518702,69.3863551 57.4687258,67.9828608 L59.4623521,66.0082381 C60.8770394,64.6073115 60.8426175,62.3142841 59.3748066,60.9579558 L59.3748066,60.9579558 Z M32.5079446,23.676361 C33.3894985,22.8033158 34.8154339,22.8122355 35.6869594,23.6871727 L44.6567192,32.6937279 C45.5320392,33.5727194 45.527567,34.9906745 44.6458776,35.8637196 C43.7663566,36.7348727 42.3402856,36.7298723 41.4668629,35.8529079 L32.4971031,26.8464878 C31.6236804,25.9695235 31.6285591,24.5473789 32.5079446,23.676361 L32.5079446,23.676361 Z M31.453468,28.6752876 L39.119802,36.3729509 C35.991065,40.3949049 31.9460811,44.4032092 27.8838863,47.5015734 L20.2175523,39.8040453 C23.2660618,35.8848024 27.2942412,31.8478472 31.453468,28.6752876 Z M27.3354391,53.0089205 C26.4548339,53.8811547 25.032151,53.8772355 24.1565599,52.9981087 L15.1868001,43.9916887 C14.3113446,43.1126971 14.3160878,41.6946069 15.1976417,40.8215618 C16.0782469,39.9493276 17.5009298,39.9532468 18.3765209,40.8323735 L27.3464162,49.8387936 C28.2198389,50.7156228 28.2149602,52.1377674 27.3354391,53.0089205 L27.3354391,53.0089205 Z M58.0299118,64.5700111 L56.0362855,66.5446338 C55.4234666,67.151711 54.4573487,67.095355 53.9055135,66.4932782 L34.0898629,44.8729777 C34.4888321,44.496325 34.8865816,44.1150773 35.2813497,43.724099 C35.6785572,43.3306881 36.0660072,42.9341688 36.4488496,42.5362981 L57.9930505,62.4448355 C58.607089,63.0123148 58.6285011,63.9771243 58.0299118,64.5700111 L58.0299118,64.5700111 Z" id="Shape"></path>
                <path d="M49.0017181,68.8717903 C48.8112554,68.903685 48.6156081,68.9200484 48.4202338,68.9200484 L5.57976624,68.9200484 C3.63148001,68.9200484 2.04651915,67.3089491 2.04651915,65.3287031 L2.04651915,5.6712969 C2.04651915,3.6911896 3.63148001,2.08009031 5.57976624,2.08009031 L38.9260221,2.08009031 C39.0638211,2.08009031 39.1994371,2.09409625 39.3325973,2.11683858 L39.3325973,9.23671037 C39.3325973,12.3639181 41.835763,14.9080073 44.9123635,14.9080073 L51.9173257,14.9080073 C51.939701,15.0434905 51.9534809,15.1811925 51.9534809,15.3212519 L51.9534809,51.6146677 C51.9534809,52.1890499 52.4114918,52.6547128 52.9767404,52.6547128 C53.541989,52.6547128 54,52.1890499 54,51.6146677 L54,15.3212519 C54,14.1062018 53.5344851,12.9639549 52.6894091,12.1048776 L42.0904865,1.33236718 C41.2454105,0.47315121 40.1215986,0 38.9260221,0 L5.57976624,0 C2.50316579,0 0,2.5442278 0,5.6712969 L0,65.3285644 C0,68.4557722 2.50316579,71 5.57976624,71 L48.4202338,71 C48.7269388,71 49.0348717,70.9743456 49.3354371,70.9238687 C49.8929089,70.8302646 50.2702871,70.2948494 50.1780573,69.7280941 C50.0859639,69.1614775 49.558917,68.7770768 49.0017181,68.8717903 Z M50.5064554,12.827917 L44.9123635,12.827917 C42.9640773,12.827917 41.3791164,11.2168177 41.3791164,9.23671037 L41.3791164,3.55099151 L50.5064554,12.827917 Z" id="Shape"></path>
            </g>
        </g>
    </g>
</svg>