<?xml version="1.0" encoding="UTF-8"?>
<svg width="279px" height="293px" viewBox="0 0 279 293" version="1.1" xmlns="http://www.w3.org/2000/svg" xmlns:xlink="http://www.w3.org/1999/xlink">
    <title>dw-edu-graphic</title>
    <defs>
        <linearGradient x1="48.0849985%" y1="-20.787977%" x2="48.0849985%" y2="108.230012%" id="linearGradient-1">
            <stop stop-color="#C6D078" offset="0%"></stop>
            <stop stop-color="#DDEF75" offset="100%"></stop>
        </linearGradient>
        <linearGradient x1="48.0849985%" y1="-20.787977%" x2="48.0849985%" y2="108.230012%" id="linearGradient-2">
            <stop stop-color="#C6D078" offset="0%"></stop>
            <stop stop-color="#DDEF75" offset="100%"></stop>
        </linearGradient>
        <linearGradient x1="48.0849985%" y1="-20.787977%" x2="48.0849985%" y2="108.230012%" id="linearGradient-3">
            <stop stop-color="#C6D078" offset="0%"></stop>
            <stop stop-color="#DDEF75" offset="100%"></stop>
        </linearGradient>
        <linearGradient x1="48.0849985%" y1="-20.787977%" x2="48.0849985%" y2="108.230012%" id="linearGradient-4">
            <stop stop-color="#C6D078" offset="0%"></stop>
            <stop stop-color="#DDEF75" offset="100%"></stop>
        </linearGradient>
    </defs>
    <g id="dw-edu-graphic" stroke="none" stroke-width="1" fill="none" fill-rule="evenodd">
        <g id="Group" fill-rule="nonzero">
            <path d="M125.788609,25.5124808 L125.788609,16.2841164 L127.029963,15.7668218 C127.898545,15.4049876 128.028266,14.8769663 128.028343,14.5944169 C128.028421,14.3118676 127.898623,13.7837685 127.030041,13.4218566 L112.381586,7.31848013 C111.362388,6.89383996 109.765663,6.89383996 108.74631,7.31848013 L94.0978549,13.4218566 C93.2292724,13.7837685 93.0996297,14.3118676 93.0996297,14.5944169 C93.0996297,14.8769663 93.2293501,15.4049876 94.0978549,15.7668218 L99.1454516,17.8699682 L99.1454516,25.4679413 C99.1466803,25.609322 99.2052991,25.7441266 99.3078432,25.8413905 C99.4103872,25.9386544 99.5480425,25.9900174 99.6891895,25.9836813 L100.463006,25.9836813 C103.300697,25.9836813 106.154932,28.6043555 108.043645,30.3288004 C109.307369,31.4829386 109.889247,32 110.437645,32 C110.976955,32 111.556192,31.4792076 112.814091,30.3244475 C114.693482,28.5999249 117.53358,25.9832149 120.286603,25.9832149 L121.205675,25.9832149 C121.346822,25.989551 121.484478,25.938188 121.587022,25.8409241 C121.689566,25.7436602 121.748185,25.6088556 121.749413,25.467475 L121.749413,17.9665092 L124.701133,16.7366617 L124.701133,25.50463 C123.245363,25.7757429 122.234032,27.1097513 122.365331,28.5856981 C122.496629,30.061645 123.727535,31.1959122 125.208271,31.2054378 C126.689006,31.2149633 127.934384,30.096626 128.084634,28.6224904 C128.234884,27.1483547 127.240776,25.8014454 125.788609,25.5116257 L125.788609,25.5124808 Z M94.2228369,14.5944169 C94.3109597,14.5231774 94.409866,14.4664483 94.515834,14.4263642 L109.164289,8.32337635 C109.909986,8.01245549 111.217987,8.01245549 111.963529,8.32337635 L126.611984,14.4263642 C126.717982,14.4664348 126.816916,14.5231648 126.905059,14.5944169 C126.816897,14.66556 126.717998,14.7222323 126.612061,14.7623142 L111.963607,20.8656907 C111.217909,21.1766116 109.909909,21.1766116 109.164366,20.8656907 L94.5159116,14.7623142 C94.4099479,14.7222397 94.3110224,14.6655671 94.2228369,14.5944169 Z M120.661938,24.8954583 L120.286215,24.8954583 C117.110474,24.8954583 114.082709,27.687994 112.07919,29.5263914 C111.46966,30.0856603 110.718059,30.7824339 110.43516,30.9026825 C110.149464,30.7860872 109.391338,30.0830174 108.776681,29.5217275 C106.763919,27.6837189 103.722249,24.8954583 100.463006,24.8954583 L100.232927,24.8954583 L100.232927,18.3230577 L108.74631,21.870276 C109.25587,22.0825573 109.909909,22.1889699 110.563948,22.1889699 C111.217987,22.1889699 111.871948,22.0827127 112.381586,21.870276 L120.661938,18.4205313 L120.661938,24.8954583 Z M125.225607,30.1382283 C124.498586,30.1418254 123.84114,29.7063592 123.560419,29.0352508 C123.279697,28.3641425 123.431114,27.5898674 123.943929,27.0741561 C124.456745,26.5584448 125.22973,26.4030976 125.901758,26.6806904 C126.573785,26.9582833 127.012176,27.61402 127.012176,28.3415497 C127.013424,29.3308756 126.214248,30.1345639 125.225607,30.1382283 L125.225607,30.1382283 Z" id="Shape" fill="url(#linearGradient-1)" transform="translate(110.599630, 19.500000) rotate(-24.000000) translate(-110.599630, -19.500000) "></path>
            <path d="M99.3427591,94.0353264 L99.3427591,78.9008088 L101.364392,78.0524457 C102.778941,77.4590377 102.9902,76.5930826 102.990326,76.1297017 C102.990453,75.6663208 102.779067,74.8002383 101.364519,74.2067028 L77.5084639,64.1971654 C75.8486273,63.5007555 73.2482463,63.5007555 71.5881567,64.1971654 L47.732102,74.2067028 C46.3175533,74.8002383 46.106421,75.6663208 46.106421,76.1297017 C46.106421,76.5930826 46.3176799,77.4590377 47.732102,78.0524457 L55.9524737,81.5016058 L55.9524737,93.9622817 C55.9544749,94.194146 56.0499398,94.4152256 56.2169401,94.5747384 C56.3839404,94.7342512 56.6081218,94.8184865 56.8379898,94.8080953 L58.0982056,94.8080953 C62.7195872,94.8080953 67.3679138,99.106001 70.443817,101.934091 C72.5018828,103.826877 73.4495114,104.674858 74.3426176,104.674858 C75.220923,104.674858 76.1642506,103.820758 78.2128286,101.926952 C81.2735515,99.0987348 85.8988547,94.8073304 90.3823489,94.8073304 L91.879124,94.8073304 C92.1089919,94.8177216 92.3331734,94.7334863 92.5001737,94.5739735 C92.667174,94.4144608 92.7626389,94.1933811 92.76464,93.9615169 L92.76464,81.659933 L97.571727,79.6429831 L97.571727,94.0224511 C95.2009013,94.4670763 93.5538762,96.65485 93.7677053,99.0754029 C93.9815344,101.495956 95.9861532,103.356154 98.3976366,103.371776 C100.80912,103.387398 102.837306,101.553325 103.082,99.1357421 C103.326693,96.7181596 101.707716,94.5092283 99.3427591,94.0339241 L99.3427591,94.0353264 Z M48.2129412,76.5596416 C48.3558479,76.4446393 48.5162419,76.3530612 48.6880877,76.2883533 L72.4431466,66.4362706 C73.6524272,65.9343496 75.7735811,65.9343496 76.9826098,66.4362706 L100.737669,76.2883533 C100.909563,76.3530395 101.070002,76.4446189 101.212941,76.5596416 C101.069971,76.6744881 100.909589,76.7659746 100.737795,76.830679 L76.9827358,86.683389 C75.7734551,87.1853101 73.6523012,87.1853101 72.4432725,86.683389 L48.6882136,76.830679 C48.5163747,76.7659865 48.3559495,76.6744996 48.2129412,76.5596416 Z M90.5931643,93.1751747 L89.9862403,93.1751747 C84.8563087,93.1751747 79.9654076,97.8369393 76.7290236,100.905898 C75.744419,101.839522 74.5303201,103.002693 74.0733392,103.203432 C73.6118411,103.008791 72.3872023,101.83511 71.3943163,100.898112 C68.1430008,97.8298025 63.2296395,93.1751747 57.9648221,93.1751747 L57.5931643,93.1751747 L57.5931643,82.2034315 L71.3452555,88.1250378 C72.1683734,88.4794129 73.2248753,88.6570546 74.2813772,88.6570546 C75.3378791,88.6570546 76.3942555,88.4796724 77.2174989,88.1250378 L90.5931643,82.3661508 L90.5931643,93.1751747 Z M98.3203098,101.557525 C97.1055892,101.563531 96.0071159,100.836445 95.538081,99.7159149 C95.0690461,98.5953844 95.3220363,97.3025996 96.178858,96.4415312 C97.0356797,95.5804627 98.3271981,95.3210839 99.4500341,95.7845728 C100.57287,96.2480617 101.305343,97.3429265 101.305343,98.5576619 C101.307427,100.209511 99.9721494,101.551406 98.3203098,101.557525 L98.3203098,101.557525 Z" id="Shape" fill="url(#linearGradient-2)" transform="translate(74.606421, 84.174858) rotate(-7.000000) translate(-74.606421, -84.174858) "></path>
            <path d="M260.44981,121.866428 L260.44981,87.5369129 L265.09602,85.6125771 C268.347,84.266554 268.832524,82.3023146 268.832815,81.2512311 C268.833106,80.2001475 268.34729,78.2356189 265.09631,76.8893067 L210.269237,54.1847461 C206.454525,52.6050846 200.478211,52.6050846 196.662917,54.1847461 L141.835844,76.8893067 C138.584864,78.2356189 138.09963,80.2001475 138.09963,81.2512311 C138.09963,82.3023146 138.585154,84.266554 141.835844,85.6125771 L160.728277,93.4362818 L160.728277,121.700742 C160.732876,122.226678 160.952278,122.728151 161.336086,123.089973 C161.719894,123.451794 162.235118,123.642865 162.763411,123.619295 L165.659696,123.619295 C176.280766,123.619295 186.963762,133.368203 194.032943,139.783137 C198.762884,144.076532 200.940767,146 202.993345,146 C205.011906,146 207.179905,144.062652 211.88804,139.766945 C218.922333,133.351721 229.552416,123.61756 239.856587,123.61756 L243.296544,123.61756 C243.824836,123.64113 244.340061,123.450059 244.723868,123.088238 C245.107676,122.726416 245.327078,122.224943 245.331677,121.699007 L245.331677,93.7954141 L256.379543,89.2203815 L256.379543,121.837224 C250.930804,122.845764 247.145535,127.808275 247.636967,133.298797 C248.128399,138.789319 252.735505,143.008793 258.277687,143.044229 C263.819868,143.079664 268.481137,138.919449 269.043503,133.435664 C269.605869,127.951879 265.885062,122.941377 260.44981,121.863248 L260.44981,121.866428 Z M142.158144,80.4652563 C142.487099,80.2023939 142.856308,79.9930724 143.251877,79.8451687 L197.933333,57.3261226 C200.716961,56.1788745 205.599617,56.1788745 208.382664,57.3261226 L263.06412,79.8451687 C263.459802,79.9930229 263.829114,80.2023473 264.158144,80.4652563 C263.829043,80.7277626 263.459862,80.9368746 263.06441,81.0847703 L208.382954,103.60525 C205.599327,104.752499 200.716671,104.752499 197.933623,103.60525 L143.252167,81.0847703 C142.856613,80.9369019 142.487333,80.7277889 142.158144,80.4652563 Z M240.945781,119.365976 L239.548016,119.365976 C227.733628,119.365976 216.469735,129.799449 209.016244,136.66807 C206.74867,138.757611 203.952564,141.360897 202.900123,141.81017 C201.837279,141.374546 199.016898,138.747736 196.730252,136.650645 C189.242374,129.783476 177.926754,119.365976 165.80172,119.365976 L164.945781,119.365976 L164.945781,94.8101696 L196.617263,108.063289 C198.512929,108.856414 200.946085,109.253993 203.379241,109.253993 C205.812396,109.253993 208.245263,108.856995 210.141218,108.063289 L240.945781,95.1743509 L240.945781,119.365976 Z M259.004396,138.785731 C256.372502,138.798744 253.992476,137.223392 252.976234,134.795576 C251.959992,132.36776 252.508137,129.566727 254.364584,127.701078 C256.221031,125.83543 259.019321,125.273443 261.452132,126.277668 C263.884944,127.281894 265.471968,129.654102 265.471968,132.286028 C265.476483,135.865035 262.583382,138.772475 259.004396,138.785731 L259.004396,138.785731 Z" id="Shape" fill="url(#linearGradient-3)" transform="translate(203.599630, 99.500000) rotate(15.000000) translate(-203.599630, -99.500000) "></path>
            <path d="M167.973131,243.130041 L167.973131,199.203027 L173.896161,196.740705 C178.04054,195.018374 178.659492,192.504993 178.659862,191.160058 C178.660233,189.815123 178.040911,187.301371 173.896532,185.578671 L104.002476,156.526598 C99.1394466,154.505311 91.5207862,154.505311 86.6570151,156.526598 L16.7629599,185.578671 C12.6185807,187.301371 12,189.815123 12,191.160058 C12,192.504993 12.6189513,195.018374 16.7629599,196.740705 L40.8472071,206.751682 L40.8472071,242.918034 C40.85307,243.591006 41.1327655,244.232676 41.622047,244.695652 C42.1113286,245.158628 42.768141,245.403116 43.4416137,245.372956 L47.1338249,245.372956 C60.6736623,245.372956 74.2924439,257.847365 83.3043005,266.055723 C89.3340721,271.549421 92.1104578,274.010633 94.7271022,274.010633 C97.3003829,274.010633 100.064167,271.531661 106.066142,266.035003 C115.033523,257.826276 128.58485,245.370736 141.720701,245.370736 L146.105989,245.370736 C146.779462,245.400896 147.436274,245.156408 147.925556,244.693432 C148.414838,244.230456 148.694533,243.588786 148.700396,242.915814 L148.700396,207.211217 L162.784318,201.357143 L162.784318,243.092672 C155.838214,244.383169 151.012719,250.733049 151.639201,257.758556 C152.265683,264.784063 158.138864,270.183175 165.204088,270.228517 C172.269311,270.273858 178.21154,264.950573 178.928449,257.933687 C179.645358,250.916801 174.90204,244.505513 167.973131,243.125971 L167.973131,243.130041 Z M17,191.010077 C17.4206311,190.670547 17.8927344,190.400173 18.3985445,190.209131 L88.3190951,161.12203 C91.8784873,159.640167 98.1218835,159.640167 101.680534,161.12203 L171.601085,190.209131 C172.107039,190.400109 172.579274,190.670487 173,191.010077 C172.579183,191.349148 172.107115,191.619251 171.601456,191.810283 L101.680905,220.899236 C98.1215127,222.381099 91.8781165,222.381099 88.3194659,220.899236 L18.3989153,191.810283 C17.8931252,191.619286 17.4209302,191.349182 17,191.010077 Z M143,240.358471 L141.216011,240.358471 C126.137122,240.358471 111.760837,253.677798 102.247829,262.44625 C99.3536882,265.113749 95.7849734,268.437093 94.4417262,269.010633 C93.0852015,268.454518 89.4855057,265.101144 86.5670228,262.424006 C77.0101255,253.657407 62.5678213,240.358471 47.0924487,240.358471 L46,240.358471 L46,209.010633 L86.4228137,225.929508 C88.8422814,226.942008 91.9477567,227.449556 95.0532319,227.449556 C98.1587072,227.449556 101.263814,226.94275 103.68365,225.929508 L143,209.475545 L143,240.358471 Z M165.542406,265.010633 C162.100698,265.02765 158.988357,262.967575 157.659425,259.792738 C156.330493,256.617902 157.047298,252.955012 159.47496,250.515318 C161.902621,248.075624 165.561923,247.340717 168.743292,248.653936 C171.92466,249.967154 174,253.069271 174,256.511022 C174.005904,261.191261 170.222618,264.993298 165.542406,265.010633 L165.542406,265.010633 Z" id="Shape" fill="url(#linearGradient-4)" transform="translate(95.500000, 214.510633) rotate(-14.000000) translate(-95.500000, -214.510633) "></path>
        </g>
    </g>
</svg>