<?xml version="1.0" encoding="UTF-8"?>
<svg width="241px" height="284px" viewBox="0 0 241 284" version="1.1" xmlns="http://www.w3.org/2000/svg" xmlns:xlink="http://www.w3.org/1999/xlink">
    <title>dw-prc-icon</title>
    <g id="dw-prc-icon" stroke="none" stroke-width="1" fill="none" fill-rule="evenodd">
        <g id="Group" fill="#DDEF75" fill-rule="nonzero">
            <path d="M159.849792,155 L135.150208,155 C133.962433,155 133,155.895467 133,157 C133,158.104533 133.962433,159 135.150208,159 L159.849792,159 C161.037567,159 162,158.104533 162,157 C162,155.895467 161.03728,155 159.849792,155 Z" id="Path"></path>
            <path d="M159.849792,167 L135.150208,167 C133.962433,167 133,167.895467 133,169 C133,170.104533 133.962433,171 135.150208,171 L159.849792,171 C161.037567,171 162,170.104533 162,169 C162,167.895467 161.03728,167 159.849792,167 Z" id="Path"></path>
            <path d="M238.749613,263.915912 L195.669614,224.106405 C197.634374,221.935145 199.488822,219.74199 201.214797,217.539106 C204.545052,219.865784 209.172769,219.559273 212.156636,216.604163 C215.513723,213.279294 215.532425,207.878577 212.197834,204.530193 L194.258314,186.517082 C190.931854,183.177076 185.500236,183.158696 182.150738,186.475998 C179.5241,189.077564 178.946787,192.970048 180.42422,196.139769 C172.207677,202.408666 163.829053,210.632859 157.234949,219.106532 C154.12803,217.633978 150.206098,218.11564 147.530132,220.766129 C144.173315,224.090998 144.153801,229.491715 147.488934,232.8401 L165.428453,250.85294 C168.75925,254.197541 174.17813,254.219705 177.535759,250.894025 C180.517999,247.939997 180.85734,243.323399 178.548089,239.988799 C180.77386,238.278658 182.991229,236.439857 185.186915,234.490236 L224.810085,277.721918 C227.502585,280.659187 232.10374,280.77271 234.937452,277.965722 L238.924704,274.016476 C241.754079,271.214623 241.685235,266.628568 238.749613,263.915912 L238.749613,263.915912 Z M185.015889,189.352722 C186.778997,187.606632 189.630868,187.624471 191.373919,189.374345 L209.313438,207.387456 C211.064078,209.145439 211.055134,211.981349 209.291755,213.727439 C207.532713,215.469745 204.680571,215.459745 202.933726,213.705816 L184.994206,195.692976 C183.247361,193.939047 183.257118,191.094758 185.015889,189.352722 L185.015889,189.352722 Z M182.906936,199.350575 L198.239604,214.745902 C191.98213,222.78981 183.892162,230.806418 175.767773,237.003147 L160.435105,221.608091 C166.532124,213.769605 174.588482,205.695694 182.906936,199.350575 Z M174.670878,248.017841 C172.909668,249.762309 170.064302,249.754471 168.31312,247.996217 L150.3736,229.983377 C148.622689,228.225394 148.632176,225.389214 150.395283,223.643124 C152.156494,221.898655 155.00186,221.906494 156.753042,223.664747 L174.692832,241.677587 C176.439678,243.431246 176.42992,246.275535 174.670878,248.017841 L174.670878,248.017841 Z M236.059824,271.140022 L232.072571,275.089268 C230.846933,276.303422 228.914697,276.19071 227.811027,274.986556 L188.179726,231.745955 C188.977664,230.99265 189.773163,230.230155 190.562699,229.448198 C191.357114,228.661376 192.132014,227.868338 192.897699,227.072596 L235.986101,266.889671 C237.214178,268.02463 237.257002,269.954249 236.059824,271.140022 L236.059824,271.140022 Z" id="Shape"></path>
            <path d="M218.003436,279.743581 C217.622511,279.80737 217.231216,279.840097 216.840468,279.840097 L131.159532,279.840097 C127.26296,279.840097 124.093038,276.617898 124.093038,272.657406 L124.093038,153.342594 C124.093038,149.382379 127.26296,146.160181 131.159532,146.160181 L197.852044,146.160181 C198.127642,146.160181 198.398874,146.188193 198.665195,146.233677 L198.665195,160.473421 C198.665195,166.727836 203.671526,171.816015 209.824727,171.816015 L223.834651,171.816015 C223.879402,172.086981 223.906962,172.362385 223.906962,172.642504 L223.906962,245.229335 C223.906962,246.3781 224.822984,247.309426 225.953481,247.309426 C227.083978,247.309426 228,246.3781 228,245.229335 L228,172.642504 C228,170.212404 227.06897,167.92791 225.378818,166.209755 L204.180973,144.664734 C202.490821,142.946302 200.243197,142 197.852044,142 L131.159532,142 C125.006332,142 120,147.088456 120,153.342594 L120,272.657129 C120,278.911544 125.006332,284 131.159532,284 L216.840468,284 C217.453878,284 218.069743,283.948691 218.670874,283.847737 C219.785818,283.660529 220.540574,282.589699 220.356115,281.456188 C220.171928,280.322955 219.117834,279.554154 218.003436,279.743581 Z M221.012911,167.655834 L209.824727,167.655834 C205.928155,167.655834 202.758233,164.433635 202.758233,160.473421 L202.758233,149.101983 L221.012911,167.655834 Z" id="Shape"></path>
            <path d="M23.9098751,59.8 L9.09012486,59.8 C8.37745989,59.8 7.8,60.33728 7.8,61 C7.8,61.66272 8.37745989,62.2 9.09012486,62.2 L23.9098751,62.2 C24.6225401,62.2 25.2,61.66272 25.2,61 C25.2,60.33728 24.6223681,59.8 23.9098751,59.8 Z" id="Path"></path>
            <path d="M23.9098751,67 L9.09012486,67 C8.37745989,67 7.8,67.53728 7.8,68.2 C7.8,68.86272 8.37745989,69.4 9.09012486,69.4 L23.9098751,69.4 C24.6225401,69.4 25.2,68.86272 25.2,68.2 C25.2,67.53728 24.6223681,67 23.9098751,67 Z" id="Path"></path>
            <path d="M71.2497679,125.149547 L45.4017681,101.263843 C46.5806245,99.9610868 47.6932932,98.6451942 48.7288785,97.3234634 C50.7270311,98.7194706 53.5036615,98.5355635 55.2939816,96.7624981 C57.3082339,94.7675764 57.319455,91.5271465 55.3187003,89.5181155 L44.5549885,78.7102493 C42.5591126,76.7062458 39.3001414,76.6952179 37.2904425,78.6855986 C35.71446,80.2465384 35.3680724,82.5820288 36.254532,84.4838616 C31.3246063,88.2451995 26.2974318,93.1797155 22.3409693,98.2639195 C20.4768182,97.380387 18.1236589,97.6693838 16.518079,99.2596774 C14.5039892,101.254599 14.4922803,104.495029 16.4933602,106.50406 L27.257072,117.311764 C29.2555499,119.318525 32.5068778,119.331823 34.5214554,117.336415 C36.3107997,115.563998 36.5144041,112.794039 35.1288535,110.793279 C36.4643161,109.767195 37.7947374,108.663914 39.1121489,107.494142 L62.8860509,133.433151 C64.5015509,135.195512 67.2622443,135.263626 68.962471,133.579433 L71.3548226,131.209886 C73.0524473,129.528774 73.011141,126.777141 71.2497679,125.149547 L71.2497679,125.149547 Z M39.0095336,80.4116332 C40.0673982,79.363979 41.7785207,79.3746826 42.8243512,80.4246072 L53.588063,91.2324734 C54.638447,92.2872633 54.6330805,93.9888094 53.5750532,95.0364635 C52.5196279,96.0818472 50.8083428,96.0758467 49.7602355,95.0234895 L38.9965237,84.2157854 C37.9484165,83.1634282 37.9542709,81.4568547 39.0095336,80.4116332 L39.0095336,80.4116332 Z M37.7441616,86.4103452 L46.9437624,95.6475411 C43.1892779,100.473886 38.3352973,105.283851 33.4606635,109.001888 L24.2610627,99.7648543 C27.9192741,95.0617629 32.7530895,90.2174166 37.7441616,86.4103452 Z M32.802527,115.610705 C31.7458007,116.657386 30.0385812,116.652683 28.9878719,115.59773 L18.2241601,104.790026 C17.1736135,103.735237 17.1793053,102.033528 18.23717,100.985874 C19.2938963,99.9391931 21.0011158,99.9438962 22.051825,100.998848 L32.8156995,111.806552 C33.8638067,112.858747 33.8579523,114.565321 32.802527,115.610705 L32.802527,115.610705 Z M69.6358941,129.484013 L67.2435426,131.853561 C66.50816,132.582053 65.3488184,132.514426 64.6866163,131.791934 L40.9078355,105.847573 C41.3865985,105.39559 41.8638979,104.938093 42.3376197,104.468919 C42.8142686,103.996826 43.2792086,103.521003 43.7386195,103.043558 L69.5916606,126.933803 C70.3285068,127.614778 70.3542013,128.772549 69.6358941,129.484013 L69.6358941,129.484013 Z" id="Shape"></path>
            <path d="M58.8020617,134.646148 C58.5735064,134.684422 58.3387297,134.704058 58.1042805,134.704058 L6.69571949,134.704058 C4.35777601,134.704058 2.45582298,132.770739 2.45582298,130.394444 L2.45582298,58.8055563 C2.45582298,56.4294275 4.35777601,54.4961084 6.69571949,54.4961084 L46.7112265,54.4961084 C46.8765853,54.4961084 47.0393245,54.5129155 47.1991167,54.5402063 L47.1991167,63.0840524 C47.1991167,66.8367018 50.2029157,69.8896087 53.8948362,69.8896087 L62.3007908,69.8896087 C62.3276411,70.0521886 62.344177,70.217431 62.344177,70.3855023 L62.344177,113.937601 C62.344177,114.62686 62.8937902,115.185655 63.5720885,115.185655 C64.2503868,115.185655 64.8,114.62686 64.8,113.937601 L64.8,70.3855023 C64.8,68.9274422 64.2413821,67.5567458 63.227291,66.5258531 L50.5085838,53.5988406 C49.4944926,52.5677815 48.1459183,52 46.7112265,52 L6.69571949,52 C3.00379895,52 9.23705556e-14,55.0530734 9.23705556e-14,58.8055563 L9.23705556e-14,130.394277 C9.23705556e-14,134.146927 3.00379895,137.2 6.69571949,137.2 L58.1042805,137.2 C58.4723265,137.2 58.841846,137.169215 59.2025245,137.108642 C59.8714907,136.996318 60.3243445,136.353819 60.2136687,135.673713 C60.1031567,134.993773 59.4707004,134.532492 58.8020617,134.646148 Z M60.6077465,67.3935004 L53.8948362,67.3935004 C51.5568927,67.3935004 49.6549397,65.4601812 49.6549397,63.0840524 L49.6549397,56.2611898 L60.6077465,67.3935004 Z" id="Shape"></path>
            <path d="M143.924896,6.5 L131.575104,6.5 C130.981217,6.5 130.5,6.94773333 130.5,7.5 C130.5,8.05226667 130.981217,8.5 131.575104,8.5 L143.924896,8.5 C144.518783,8.5 145,8.05226667 145,7.5 C145,6.94773333 144.51864,6.5 143.924896,6.5 Z" id="Path"></path>
            <path d="M143.924896,12.5 L131.575104,12.5 C130.981217,12.5 130.5,12.9477333 130.5,13.5 C130.5,14.0522667 130.981217,14.5 131.575104,14.5 L143.924896,14.5 C144.518783,14.5 145,14.0522667 145,13.5 C145,12.9477333 144.51864,12.5 143.924896,12.5 Z" id="Path"></path>
            <path d="M183.374807,60.9579558 L161.834807,41.0532026 C162.817187,39.9675723 163.744411,38.8709952 164.607399,37.7695528 C166.272526,38.9328922 168.586385,38.7796363 170.078318,37.3020817 C171.756862,35.639647 171.766212,32.9392887 170.098917,31.2650963 L161.129157,22.2585411 C159.465927,20.5885382 156.750118,20.5793482 155.075369,22.2379988 C153.76205,23.538782 153.473394,25.485024 154.21211,27.0698847 C150.103839,30.2043329 145.914527,34.3164296 142.617474,38.5532662 C141.064015,37.8169892 139.103049,38.0578199 137.765066,39.3830645 C136.086658,41.0454992 136.0769,43.7458576 137.744467,45.42005 L146.714227,54.42647 C148.379625,56.0987704 151.089065,56.1098524 152.767879,54.4470123 C154.259,52.9699983 154.42867,50.6616994 153.274045,48.9943995 C154.38693,48.1393288 155.495615,47.2199285 156.593457,46.2451182 L176.405042,67.8609588 C177.751292,69.3295937 180.05187,69.3863551 181.468726,67.9828608 L183.462352,66.0082381 C184.877039,64.6073115 184.842618,62.3142841 183.374807,60.9579558 L183.374807,60.9579558 Z M156.507945,23.676361 C157.389499,22.8033158 158.815434,22.8122355 159.686959,23.6871727 L168.656719,32.6937279 C169.532039,33.5727194 169.527567,34.9906745 168.645878,35.8637196 C167.766357,36.7348727 166.340286,36.7298723 165.466863,35.8529079 L156.497103,26.8464878 C155.62368,25.9695235 155.628559,24.5473789 156.507945,23.676361 L156.507945,23.676361 Z M155.453468,28.6752876 L163.119802,36.3729509 C159.991065,40.3949049 155.946081,44.4032092 151.883886,47.5015734 L144.217552,39.8040453 C147.266062,35.8848024 151.294241,31.8478472 155.453468,28.6752876 Z M151.335439,53.0089205 C150.454834,53.8811547 149.032151,53.8772355 148.15656,52.9981087 L139.1868,43.9916887 C138.311345,43.1126971 138.316088,41.6946069 139.197642,40.8215618 C140.078247,39.9493276 141.50093,39.9532468 142.376521,40.8323735 L151.346416,49.8387936 C152.219839,50.7156228 152.21496,52.1377674 151.335439,53.0089205 L151.335439,53.0089205 Z M182.029912,64.5700111 L180.036285,66.5446338 C179.423467,67.151711 178.457349,67.095355 177.905514,66.4932782 L158.089863,44.8729777 C158.488832,44.496325 158.886582,44.1150773 159.28135,43.724099 C159.678557,43.3306881 160.066007,42.9341688 160.44885,42.5362981 L181.993051,62.4448355 C182.607089,63.0123148 182.628501,63.9771243 182.029912,64.5700111 L182.029912,64.5700111 Z" id="Shape"></path>
            <path d="M173.001718,68.8717903 C172.811255,68.903685 172.615608,68.9200484 172.420234,68.9200484 L129.579766,68.9200484 C127.63148,68.9200484 126.046519,67.3089491 126.046519,65.3287031 L126.046519,5.6712969 C126.046519,3.6911896 127.63148,2.08009031 129.579766,2.08009031 L162.926022,2.08009031 C163.063821,2.08009031 163.199437,2.09409625 163.332597,2.11683858 L163.332597,9.23671037 C163.332597,12.3639181 165.835763,14.9080073 168.912364,14.9080073 L175.917326,14.9080073 C175.939701,15.0434905 175.953481,15.1811925 175.953481,15.3212519 L175.953481,51.6146677 C175.953481,52.1890499 176.411492,52.6547128 176.97674,52.6547128 C177.541989,52.6547128 178,52.1890499 178,51.6146677 L178,15.3212519 C178,14.1062018 177.534485,12.9639549 176.689409,12.1048776 L166.090486,1.33236718 C165.24541,0.47315121 164.121599,0 162.926022,0 L129.579766,0 C126.503166,0 124,2.5442278 124,5.6712969 L124,65.3285644 C124,68.4557722 126.503166,71 129.579766,71 L172.420234,71 C172.726939,71 173.034872,70.9743456 173.335437,70.9238687 C173.892909,70.8302646 174.270287,70.2948494 174.178057,69.7280941 C174.085964,69.1614775 173.558917,68.7770768 173.001718,68.8717903 Z M174.506455,12.827917 L168.912364,12.827917 C166.964077,12.827917 165.379116,11.2168177 165.379116,9.23671037 L165.379116,3.55099151 L174.506455,12.827917 Z" id="Shape"></path>
        </g>
    </g>
</svg>