<?xml version="1.0" encoding="UTF-8"?>
<svg width="252px" height="277px" viewBox="0 0 252 277" version="1.1" xmlns="http://www.w3.org/2000/svg" xmlns:xlink="http://www.w3.org/1999/xlink">
    <title>dw-package-icon</title>
    <defs>
        <linearGradient x1="48.0849985%" y1="-20.787977%" x2="48.0849985%" y2="108.230012%" id="linearGradient-1">
            <stop stop-color="#C6D078" offset="0%"></stop>
            <stop stop-color="#DDEF75" offset="100%"></stop>
        </linearGradient>
        <linearGradient x1="48.0849985%" y1="-20.787977%" x2="48.0849985%" y2="108.230012%" id="linearGradient-2">
            <stop stop-color="#C6D078" offset="0%"></stop>
            <stop stop-color="#DDEF75" offset="100%"></stop>
        </linearGradient>
        <linearGradient x1="48.0849985%" y1="-20.787977%" x2="48.0849985%" y2="108.230012%" id="linearGradient-3">
            <stop stop-color="#C6D078" offset="0%"></stop>
            <stop stop-color="#DDEF75" offset="100%"></stop>
        </linearGradient>
    </defs>
    <g id="dw-package-icon" stroke="none" stroke-width="1" fill="none" fill-rule="evenodd">
        <g id="Group" fill-rule="nonzero">
            <g id="001-envelope-with-string-closure" transform="translate(77.000000, 178.000000)" fill="url(#linearGradient-1)">
                <path d="M0,0.12029952 L0,20.1823846 L0,98.1684634 L174.883512,98.1684634 L174.883512,20.1819341 L174.883512,0.12029952 L0,0.12029952 Z M169.264579,92.5495296 L5.6184832,92.5495296 L5.6184832,32.1835008 C10.7436032,37.0702746 18.8874752,40.2444698 28.0937677,40.2444698 L82.1123072,40.2444698 L82.1123072,45.1609805 C82.1123072,45.9589222 82.3484006,46.7000934 82.7363328,47.3349325 C81.0503373,48.709591 79.951872,50.7772109 79.951872,53.1196723 C79.951872,57.2571648 83.3058406,60.6124851 87.4442342,60.6124851 C91.5839795,60.6124851 94.937047,57.2571648 94.937047,53.1196723 C94.937047,50.7772109 93.8390323,48.709591 92.1521357,47.3349325 C92.5387162,46.6969395 92.7748096,45.9589222 92.7748096,45.1609805 L92.7748096,40.2440192 L146.795151,40.2440192 C156.002796,40.2440192 164.145316,37.069824 169.269985,32.1835008 L169.269985,92.5495296 L169.264579,92.5495296 Z M84.9215488,34.625536 L84.9215488,32.0523878 C85.7100288,32.3362406 86.5512243,32.5187174 87.4415309,32.5187174 C88.3318374,32.5187174 89.1725824,32.3362406 89.9601613,32.0523878 L89.9601613,34.625536 L84.9215488,34.625536 Z M89.9606118,40.2440192 L89.9606118,45.1605299 C89.9606118,45.4813286 89.8358067,45.7611264 89.6528794,45.9999232 C88.9504563,45.7818522 88.2142413,45.6295629 87.4388275,45.6295629 C86.6634138,45.6295629 85.9299021,45.7818522 85.2247757,45.9999232 C85.0422989,45.7638298 84.9161421,45.4813286 84.9161421,45.1632333 L84.9161421,40.2467226 L89.9601613,40.2467226 L89.9601613,40.2440192 L89.9606118,40.2440192 Z M88.7062528,27.3823334 C88.3232768,27.5882394 87.908311,27.7364736 87.4415309,27.7364736 C86.9747507,27.7364736 86.5593344,27.5882394 86.1763584,27.3823334 C85.328855,26.9241139 84.7305114,26.0572365 84.7305114,25.0259046 C84.7305114,23.5277926 85.9429683,22.3153357 87.4415309,22.3153357 C88.9391923,22.3153357 90.1520998,23.5277926 90.1520998,25.0259046 C90.1520998,26.0603904 89.5542067,26.9245645 88.7062528,27.3823334 Z M87.4419814,50.4091034 C88.9396429,50.4091034 90.1525504,51.6215603 90.1525504,53.1196723 C90.1525504,54.6177843 88.9400934,55.8306918 87.4419814,55.8306918 C85.9438694,55.8306918 84.7309619,54.6182349 84.7309619,53.1196723 C84.7309619,51.6215603 85.9438694,50.4091034 87.4419814,50.4091034 Z M169.264579,20.1819341 C169.264579,28.0117658 158.970634,34.6250854 146.789745,34.6250854 L92.7698534,34.6250854 L92.7698534,31.5824538 C92.7698534,31.1832576 92.698665,30.8074906 92.594135,30.4411853 C94.0260147,29.0759885 94.9316403,27.1597568 94.9316403,25.0254541 C94.9316403,20.8866099 91.5794739,17.5326413 87.4392781,17.5326413 C83.3004339,17.5326413 79.9469158,20.8866099 79.9469158,25.0254541 C79.9469158,27.1597568 80.8507392,29.0759885 82.2844211,30.4411853 C82.1803418,30.8074906 82.107351,31.1832576 82.107351,31.5824538 L82.107351,34.6250854 L28.0937677,34.6250854 C15.9124275,34.6250854 5.6184832,28.0117658 5.6184832,20.1819341 L5.6184832,5.73878272 L169.264579,5.73878272 L169.264579,20.1819341 Z" id="Shape"></path>
            </g>
            <g id="001-envelope-with-string-closure" transform="translate(0.000000, 65.000000)" fill="url(#linearGradient-2)">
                <path d="M0,0.07655424 L0,12.8433357 L0,62.4708403 L111.289508,62.4708403 L111.289508,12.843049 L111.289508,0.07655424 L0,0.07655424 Z M107.713823,58.8951552 L3.5753984,58.8951552 L3.5753984,20.4804096 C6.8368384,23.5901747 12.0193024,25.6101171 17.8778522,25.6101171 L52.2532864,25.6101171 L52.2532864,28.7388058 C52.2532864,29.2465869 52.4035277,29.7182413 52.6503936,30.1222298 C51.5774874,30.9970125 50.878464,32.3127706 50.878464,33.8034278 C50.878464,36.4363776 53.0128077,38.5715814 55.6463309,38.5715814 C58.2807142,38.5715814 60.4144845,36.4363776 60.4144845,33.8034278 C60.4144845,32.3127706 59.7157478,30.9970125 58.6422682,30.1222298 C58.8882739,29.7162342 59.0385152,29.2465869 59.0385152,28.7388058 L59.0385152,25.6098304 L93.4150963,25.6098304 C99.2745062,25.6098304 104.45611,23.589888 107.717263,20.4804096 L107.717263,58.8951552 L107.713823,58.8951552 Z M54.0409856,22.034432 L54.0409856,20.3969741 C54.5427456,20.5776077 55.0780518,20.6937293 55.6446106,20.6937293 C56.2111693,20.6937293 56.7461888,20.5776077 57.2473754,20.3969741 L57.2473754,22.034432 L54.0409856,22.034432 Z M57.2476621,25.6098304 L57.2476621,28.738519 C57.2476621,28.9426637 57.1682406,29.1207168 57.0518323,29.2726784 C56.6048358,29.1339059 56.1363354,29.0369946 55.6428902,29.0369946 C55.1494451,29.0369946 54.682665,29.1339059 54.2339482,29.2726784 C54.1178266,29.1224371 54.037545,28.9426637 54.037545,28.7402394 L54.037545,25.6115507 L57.2473754,25.6115507 L57.2473754,25.6098304 L57.2476621,25.6098304 Z M56.4494336,17.4251213 C56.2057216,17.5561523 55.9416525,17.6504832 55.6446106,17.6504832 C55.3475686,17.6504832 55.0832128,17.5561523 54.8395008,17.4251213 C54.3001805,17.133527 53.9194163,16.5818778 53.9194163,15.9255757 C53.9194163,14.9722317 54.6909798,14.2006682 55.6446106,14.2006682 C56.5976678,14.2006682 57.3695181,14.9722317 57.3695181,15.9255757 C57.3695181,16.5838848 56.9890406,17.1338138 56.4494336,17.4251213 Z M55.6448973,32.0785203 C56.5979546,32.0785203 57.3698048,32.8500838 57.3698048,33.8034278 C57.3698048,34.7567718 56.5982413,35.5286221 55.6448973,35.5286221 C54.6915533,35.5286221 53.919703,34.7570586 53.919703,33.8034278 C53.919703,32.8500838 54.6915533,32.0785203 55.6448973,32.0785203 Z M107.713823,12.843049 C107.713823,17.8256691 101.163131,22.0341453 93.4116557,22.0341453 L59.0353613,22.0341453 L59.0353613,20.0979251 C59.0353613,19.8438912 58.9900595,19.6047667 58.9235405,19.3716634 C59.8347366,18.5029018 60.4110438,17.2834816 60.4110438,15.925289 C60.4110438,13.291479 58.277847,11.1571354 55.643177,11.1571354 C53.009367,11.1571354 50.8753101,13.291479 50.8753101,15.925289 C50.8753101,17.2834816 51.4504704,18.5029018 52.3628134,19.3716634 C52.2965811,19.6047667 52.2501325,19.8438912 52.2501325,20.0979251 L52.2501325,22.0341453 L17.8778522,22.0341453 C10.1260902,22.0341453 3.5753984,17.8256691 3.5753984,12.843049 L3.5753984,3.65195264 L107.713823,3.65195264 L107.713823,12.843049 Z" id="Shape"></path>
            </g>
            <g id="001-envelope-with-string-closure" transform="translate(134.000000, 0.000000)" fill="url(#linearGradient-3)">
                <path d="M0,0.0546816 L0,9.1738112 L0,44.6220288 L79.4925056,44.6220288 L79.4925056,9.1736064 L79.4925056,0.0546816 L0,0.0546816 Z M76.9384448,42.067968 L2.553856,42.067968 L2.553856,14.628864 C4.883456,16.8501248 8.585216,18.2929408 12.7698944,18.2929408 L37.323776,18.2929408 L37.323776,20.5277184 C37.323776,20.8904192 37.4310912,21.2273152 37.607424,21.5158784 C36.8410624,22.1407232 36.34176,23.0805504 36.34176,24.1453056 C36.34176,26.025984 37.8662912,27.5511296 39.7473792,27.5511296 C41.6290816,27.5511296 43.1532032,26.025984 43.1532032,24.1453056 C43.1532032,23.0805504 42.6541056,22.1407232 41.8873344,21.5158784 C42.0630528,21.2258816 42.170368,20.8904192 42.170368,20.5277184 L42.170368,18.292736 L66.7250688,18.292736 C70.9103616,18.292736 74.6115072,16.84992 76.9409024,14.628864 L76.9409024,42.067968 L76.9384448,42.067968 Z M38.600704,15.73888 L38.600704,14.5692672 C38.959104,14.6982912 39.3414656,14.7812352 39.7461504,14.7812352 C40.1508352,14.7812352 40.532992,14.6982912 40.8909824,14.5692672 L40.8909824,15.73888 L38.600704,15.73888 Z M40.8911872,18.292736 L40.8911872,20.5275136 C40.8911872,20.6733312 40.8344576,20.800512 40.7513088,20.909056 C40.4320256,20.8099328 40.0973824,20.7407104 39.7449216,20.7407104 C39.3924608,20.7407104 39.0590464,20.8099328 38.7385344,20.909056 C38.6555904,20.8017408 38.5982464,20.6733312 38.5982464,20.5287424 L38.5982464,18.2939648 L40.8909824,18.2939648 L40.8909824,18.292736 L40.8911872,18.292736 Z M40.321024,12.4465152 C40.146944,12.5401088 39.9583232,12.607488 39.7461504,12.607488 C39.5339776,12.607488 39.345152,12.5401088 39.171072,12.4465152 C38.7858432,12.2382336 38.5138688,11.8441984 38.5138688,11.3754112 C38.5138688,10.6944512 39.0649856,10.1433344 39.7461504,10.1433344 C40.4269056,10.1433344 40.9782272,10.6944512 40.9782272,11.3754112 C40.9782272,11.845632 40.7064576,12.2384384 40.321024,12.4465152 Z M39.7463552,22.9132288 C40.4271104,22.9132288 40.978432,23.4643456 40.978432,24.1453056 C40.978432,24.8262656 40.4273152,25.3775872 39.7463552,25.3775872 C39.0653952,25.3775872 38.5140736,24.8264704 38.5140736,24.1453056 C38.5140736,23.4643456 39.0653952,22.9132288 39.7463552,22.9132288 Z M76.9384448,9.1736064 C76.9384448,12.7326208 72.2593792,15.7386752 66.7226112,15.7386752 L42.1681152,15.7386752 L42.1681152,14.3556608 C42.1681152,14.174208 42.1357568,14.0034048 42.0882432,13.8369024 C42.7390976,13.2163584 43.1507456,12.345344 43.1507456,11.3752064 C43.1507456,9.4939136 41.6270336,7.9693824 39.7451264,7.9693824 C37.8638336,7.9693824 36.3395072,9.4939136 36.3395072,11.3752064 C36.3395072,12.345344 36.750336,13.2163584 37.4020096,13.8369024 C37.3547008,14.0034048 37.3215232,14.174208 37.3215232,14.3556608 L37.3215232,15.7386752 L12.7698944,15.7386752 C7.2329216,15.7386752 2.553856,12.7326208 2.553856,9.1736064 L2.553856,2.6085376 L76.9384448,2.6085376 L76.9384448,9.1736064 Z" id="Shape"></path>
            </g>
        </g>
    </g>
</svg>