<?xml version="1.0" encoding="UTF-8"?>
<svg width="479px" height="447px" viewBox="0 0 479 447" version="1.1" xmlns="http://www.w3.org/2000/svg" xmlns:xlink="http://www.w3.org/1999/xlink">
    <title>dw-desktop-icon-edu</title>
    <defs>
        <linearGradient x1="48.0849985%" y1="-20.787977%" x2="48.0849985%" y2="108.230012%" id="linearGradient-1">
            <stop stop-color="#C6D078" offset="0%"></stop>
            <stop stop-color="#DDEF75" offset="100%"></stop>
        </linearGradient>
        <linearGradient x1="48.0849985%" y1="-20.787977%" x2="48.0849985%" y2="108.230012%" id="linearGradient-2">
            <stop stop-color="#DDEF75" offset="0%"></stop>
            <stop stop-color="#DDEF75" offset="100%"></stop>
        </linearGradient>
        <linearGradient x1="48.0849985%" y1="-20.787977%" x2="48.0849985%" y2="108.230012%" id="linearGradient-3">
            <stop stop-color="#DBED76" offset="0%"></stop>
            <stop stop-color="#DDEF75" offset="100%"></stop>
        </linearGradient>
        <linearGradient x1="48.0849985%" y1="-20.787977%" x2="48.0849985%" y2="108.230012%" id="linearGradient-4">
            <stop stop-color="#DBED76" offset="0%"></stop>
            <stop stop-color="#DDEF75" offset="100%"></stop>
        </linearGradient>
        <linearGradient x1="48.0849985%" y1="-20.787977%" x2="48.0849985%" y2="108.230012%" id="linearGradient-5">
            <stop stop-color="#C6D078" offset="0%"></stop>
            <stop stop-color="#DDEF75" offset="100%"></stop>
        </linearGradient>
        <linearGradient x1="48.0849985%" y1="130.285627%" x2="48.0849985%" y2="-169.007155%" id="linearGradient-6">
            <stop stop-color="#C6D078" offset="0%"></stop>
            <stop stop-color="#DDEF75" offset="100%"></stop>
        </linearGradient>
        <linearGradient x1="48.0849985%" y1="130.285627%" x2="48.0849985%" y2="-169.007155%" id="linearGradient-7">
            <stop stop-color="#C6D078" offset="0%"></stop>
            <stop stop-color="#DDEF75" offset="100%"></stop>
        </linearGradient>
        <linearGradient x1="48.0849985%" y1="-20.787977%" x2="48.0849985%" y2="108.230012%" id="linearGradient-8">
            <stop stop-color="#C6D078" offset="0%"></stop>
            <stop stop-color="#DDEF75" offset="100%"></stop>
        </linearGradient>
        <linearGradient x1="48.0849985%" y1="-20.787977%" x2="48.0849985%" y2="108.230012%" id="linearGradient-9">
            <stop stop-color="#DDEF75" offset="0%"></stop>
            <stop stop-color="#DDEF75" offset="100%"></stop>
        </linearGradient>
        <linearGradient x1="48.0849985%" y1="-20.787977%" x2="48.0849985%" y2="108.230012%" id="linearGradient-10">
            <stop stop-color="#DBED76" offset="0%"></stop>
            <stop stop-color="#DDEF75" offset="100%"></stop>
        </linearGradient>
        <linearGradient x1="48.0849985%" y1="-20.787977%" x2="48.0849985%" y2="108.230012%" id="linearGradient-11">
            <stop stop-color="#DBED76" offset="0%"></stop>
            <stop stop-color="#DDEF75" offset="100%"></stop>
        </linearGradient>
        <linearGradient x1="48.0849985%" y1="-20.787977%" x2="48.0849985%" y2="108.230012%" id="linearGradient-12">
            <stop stop-color="#C6D078" offset="0%"></stop>
            <stop stop-color="#DDEF75" offset="100%"></stop>
        </linearGradient>
        <linearGradient x1="48.0849985%" y1="130.285627%" x2="48.0849985%" y2="-169.007155%" id="linearGradient-13">
            <stop stop-color="#C6D078" offset="0%"></stop>
            <stop stop-color="#DDEF75" offset="100%"></stop>
        </linearGradient>
        <linearGradient x1="48.0849985%" y1="130.285627%" x2="48.0849985%" y2="-169.007155%" id="linearGradient-14">
            <stop stop-color="#C6D078" offset="0%"></stop>
            <stop stop-color="#DDEF75" offset="100%"></stop>
        </linearGradient>
        <linearGradient x1="48.0849985%" y1="-20.787977%" x2="48.0849985%" y2="108.230012%" id="linearGradient-15">
            <stop stop-color="#C6D078" offset="0%"></stop>
            <stop stop-color="#DDEF75" offset="100%"></stop>
        </linearGradient>
        <linearGradient x1="48.0849985%" y1="-20.787977%" x2="48.0849985%" y2="108.230012%" id="linearGradient-16">
            <stop stop-color="#DDEF75" offset="0%"></stop>
            <stop stop-color="#DDEF75" offset="100%"></stop>
        </linearGradient>
        <linearGradient x1="48.0849985%" y1="-20.787977%" x2="48.0849985%" y2="108.230012%" id="linearGradient-17">
            <stop stop-color="#DBED76" offset="0%"></stop>
            <stop stop-color="#DDEF75" offset="100%"></stop>
        </linearGradient>
        <linearGradient x1="48.0849985%" y1="-20.787977%" x2="48.0849985%" y2="108.230012%" id="linearGradient-18">
            <stop stop-color="#DBED76" offset="0%"></stop>
            <stop stop-color="#DDEF75" offset="100%"></stop>
        </linearGradient>
        <linearGradient x1="48.0849985%" y1="-20.787977%" x2="48.0849985%" y2="108.230012%" id="linearGradient-19">
            <stop stop-color="#C6D078" offset="0%"></stop>
            <stop stop-color="#DDEF75" offset="100%"></stop>
        </linearGradient>
        <linearGradient x1="48.0849985%" y1="130.285627%" x2="48.0849985%" y2="-169.007155%" id="linearGradient-20">
            <stop stop-color="#C6D078" offset="0%"></stop>
            <stop stop-color="#DDEF75" offset="100%"></stop>
        </linearGradient>
        <linearGradient x1="48.0849985%" y1="130.285627%" x2="48.0849985%" y2="-169.007155%" id="linearGradient-21">
            <stop stop-color="#C6D078" offset="0%"></stop>
            <stop stop-color="#DDEF75" offset="100%"></stop>
        </linearGradient>
    </defs>
    <g id="dw-desktop-icon-edu" stroke="none" stroke-width="1" fill="none" fill-rule="evenodd" stroke-linecap="round">
        <g id="Group-9" transform="translate(181.000000, 9.000000)" stroke-width="2.07831342">
            <path d="M45.548162,28.882445 L66.9943344,43.6596671 C68.0426284,44.382156 68.3161871,45.839809 67.6020108,46.9003045 L66.9755403,47.8319349 C66.261364,48.8924303 64.8204819,49.1691732 63.772188,48.4466842 L42.3260156,33.6715747" id="Stroke-61" stroke="url(#linearGradient-1)"></path>
            <path d="M44.0523594,20.9088714 L44.7999474,21.4243313 C46.6689177,22.7129812 47.1575646,25.3135187 45.8837414,27.2021301 L40.0450366,35.8762222 C38.7733015,37.7669461 36.2005961,38.2612806 34.3316259,36.9726308 L33.5840378,36.4571709 C31.7150676,35.1706336 31.2264206,32.570096 32.5002439,30.6772595 L38.3389487,22.00528 C39.612772,20.1145561 42.1813009,19.6223341 44.0523594,20.9088714 Z" id="Stroke-63" stroke="url(#linearGradient-2)"></path>
            <path d="M43.4691153,15.7202602 L49.7839377,20.0742066 C50.6630846,20.6783932 50.8927904,21.9015543 50.2955552,22.7888214 C49.6962318,23.678201 48.4871438,23.9105805 47.6079969,23.3042813 L41.2931746,18.9524475 C40.4161159,18.3461483 40.1864101,17.1250998 40.7836453,16.2357202 C41.3808804,15.3463405 42.5920567,15.1160736 43.4691153,15.7202602 Z" id="Stroke-65" stroke="url(#linearGradient-3)"></path>
            <path d="M30.3249296,35.2447838 L36.6418402,39.5966176 C37.5188988,40.2029167 37.7486047,41.4239653 37.1513695,42.3133449 C36.5520461,43.2027245 35.3429581,43.4329914 34.4658994,42.8288048 L28.1489888,38.4748585 C27.2719302,37.8706718 27.0422243,36.6475108 27.6394595,35.7602437 C28.2387829,34.8708641 29.4478709,34.6384846 30.3249296,35.2447838 Z" id="Stroke-67" stroke="url(#linearGradient-4)"></path>
            <path d="M57.6269303,49.0960793 C57.9151067,53.627479 54.7034015,52.9662538 50.2491964,52.9662538 L7.61161621,52.9662538 C3.40799936,52.9662538 -7.56727871e-13,49.5185874 -7.56727871e-13,45.266043 L-7.56727871e-13,12.399135 C-7.56727871e-13,8.14659064 3.40799936,4.6968117 7.61161621,4.6968117 L50.7023434,4.6968117 C54.9059602,4.6968117 58.3139596,8.14659064 58.3139596,12.399135 L58.3139596,32.6119243" id="Stroke-69" stroke="url(#linearGradient-5)"></path>
            <path d="M2.87591711,5.89821359 L2.87591711,1.47877848 C2.87591711,0.661225234 3.53162286,-9.00630262e-14 4.33976977,-9.00630262e-14 L15.1275913,-9.00630262e-14 C15.9357382,-9.00630262e-14 16.5914439,0.661225234 16.5914439,1.47877848 L16.5914439,4.27578234" id="Stroke-71" stroke="url(#linearGradient-6)"></path>
            <path d="M16.5933233,4.27683861 L16.5933233,1.47983475 C16.5933233,0.662281504 17.2490291,0.00105627034 18.057176,0.00105627034 L28.8449975,0.00105627034 C29.6531444,0.00105627034 30.3088502,0.662281504 30.3088502,1.47983475 L30.3088502,4.27683861" id="Stroke-73" stroke="url(#linearGradient-7)"></path>
        </g>
        <g id="Group-9" transform="translate(13.000000, 298.000000)" stroke-width="2.9017961">
            <path d="M62.9636357,40.3264326 L92.6098153,60.9587804 C94.0589274,61.9675385 94.4370822,64.0027523 93.4498385,65.483444 L92.5838352,66.784211 C91.5965914,68.2649027 89.6047838,68.6512984 88.1556716,67.6425403 L58.5094921,47.013142" id="Stroke-61" stroke="url(#linearGradient-8)"></path>
            <path d="M60.8959085,29.1935186 L61.9293391,29.9132174 C64.5129156,31.7124643 65.1883982,35.3434035 63.4275248,37.9803326 L55.3563741,50.0913291 C53.5983874,52.7312077 50.0420005,53.4214106 47.458424,51.6221637 L46.4249934,50.902465 C43.8414169,49.1061676 43.1659343,45.4752284 44.9268077,42.8324001 L52.9979584,30.7243533 C54.7588318,28.0844746 58.3094453,27.3972213 60.8959085,29.1935186 Z" id="Stroke-63" stroke="url(#linearGradient-9)"></path>
            <path d="M60.0896594,21.9490426 L68.8189727,28.0281375 C70.034264,28.8717188 70.3517985,30.5795286 69.5262087,31.8183544 C68.6977322,33.0601297 67.0263459,33.3845841 65.8110546,32.5380531 L57.0817413,26.4619078 C55.8693367,25.6153769 55.5518022,23.9105167 56.377392,22.6687414 C57.2029818,21.426966 58.8772548,21.1054613 60.0896594,21.9490426 Z" id="Stroke-65" stroke="url(#linearGradient-10)"></path>
            <path d="M41.9197556,49.2096981 L50.6519555,55.2858434 C51.8643601,56.1323743 52.1818947,57.8372345 51.3563049,59.0790098 C50.5278284,60.3207852 48.856442,60.6422899 47.6440374,59.7987086 L38.9118375,53.7196137 C37.6994329,52.8760324 37.3818983,51.1682226 38.2074881,49.9293968 C39.0359646,48.6876215 40.707351,48.3631671 41.9197556,49.2096981 Z" id="Stroke-67" stroke="url(#linearGradient-11)"></path>
            <path d="M79.6607566,68.5492427 C80.0591181,74.8761028 75.6194079,73.9528826 69.4621245,73.9528826 L10.5219401,73.9528826 C4.71105794,73.9528826 -1.046065e-12,69.1391598 -1.046065e-12,63.2016449 L-1.046065e-12,17.3119999 C-1.046065e-12,11.374485 4.71105794,6.55781257 10.5219401,6.55781257 L70.0885335,6.55781257 C75.8994156,6.55781257 80.6104736,11.374485 80.6104736,17.3119999 L80.6104736,45.5336302" id="Stroke-69" stroke="url(#linearGradient-12)"></path>
            <path d="M3.97553247,8.23524162 L3.97553247,2.06470957 C3.97553247,0.923220138 4.88194925,-1.25748376e-13 5.99909351,-1.25748376e-13 L20.9116703,-1.25748376e-13 C22.0288145,-1.25748376e-13 22.9352313,0.923220138 22.9352313,2.06470957 L22.9352313,5.96996025" id="Stroke-71" stroke="url(#linearGradient-13)"></path>
            <path d="M22.9378293,5.97143505 L22.9378293,2.06618437 C22.9378293,0.924694931 23.8442461,0.00147479255 24.9613904,0.00147479255 L39.8739671,0.00147479255 C40.9911114,0.00147479255 41.8975282,0.924694931 41.8975282,2.06618437 L41.8975282,5.97143505" id="Stroke-73" stroke="url(#linearGradient-14)"></path>
        </g>
        <g id="Group-9" transform="translate(313.000000, 317.000000)" stroke-width="4.74482876">
            <path d="M103.15319,65.9391668 L151.722463,99.6758437 C154.096541,101.325299 154.716071,104.653149 153.098672,107.07428 L151.6799,109.20121 C150.062501,111.622341 146.799327,112.25415 144.425249,110.604694 L95.8559764,76.8728404" id="Stroke-61" stroke="url(#linearGradient-15)"></path>
            <path d="M99.7656374,47.735348 L101.458705,48.9121527 C105.691372,51.8541645 106.798014,57.7912409 103.913179,62.1029763 L90.6902299,81.9060921 C87.810124,86.2226505 81.983703,87.3512255 77.7510351,84.4092137 L76.0579679,83.2324089 C71.8253001,80.29522 70.7186584,74.3581437 73.6034935,70.0367623 L86.8264426,50.2384695 C89.7112777,45.9219111 95.5282402,44.7981591 99.7656374,47.735348 Z" id="Stroke-63" stroke="url(#linearGradient-16)"></path>
            <path d="M98.4447612,35.8896507 L112.745977,45.8297924 C114.736986,47.2091619 115.257202,50.0016617 113.90464,52.0273092 C112.547349,54.0577796 109.80912,54.5883064 107.818111,53.2041139 L93.5168954,43.2687952 C91.5306155,41.8846028 91.0103993,39.096926 92.3629613,37.0664555 C93.7155234,35.035985 96.4584813,34.5102813 98.4447612,35.8896507 Z" id="Stroke-65" stroke="url(#linearGradient-17)"></path>
            <path d="M68.6770464,80.4645063 L82.9829909,90.399825 C84.9692709,91.7840175 85.489487,94.5716943 84.136925,96.6021647 C82.7796337,98.6326352 80.041405,99.158339 78.0551251,97.7789695 L63.7491806,87.8388278 C61.7629007,86.4594583 61.2426845,83.6669585 62.5952465,81.641311 C63.9525378,79.6108406 66.6907665,79.0803138 68.6770464,80.4645063 Z" id="Stroke-67" stroke="url(#linearGradient-18)"></path>
            <path d="M130.508048,112.087275 C131.160683,122.432546 123.887115,120.922957 113.799651,120.922957 L17.238072,120.922957 C7.71811619,120.922957 -1.71376606e-12,113.051869 -1.71376606e-12,103.34323 L-1.71376606e-12,28.3074592 C-1.71376606e-12,18.5988201 7.71811619,10.7229097 17.238072,10.7229097 L114.825895,10.7229097 C124.345851,10.7229097 132.063967,18.5988201 132.063967,28.3074592 L132.063967,74.4536385" id="Stroke-69" stroke="url(#linearGradient-19)"></path>
            <path d="M6.51310639,13.4657329 L6.51310639,3.37607917 C6.51310639,1.50958969 7.99808708,-2.05615588e-13 9.82830213,-2.05615588e-13 L34.2595449,-2.05615588e-13 C36.08976,-2.05615588e-13 37.5747407,1.50958969 37.5747407,3.37607917 L37.5747407,9.76169177" id="Stroke-71" stroke="url(#linearGradient-20)"></path>
            <path d="M37.578997,9.76410325 L37.578997,3.37849065 C37.578997,1.51200117 39.0639777,0.00241148512 40.8941927,0.00241148512 L65.3254355,0.00241148512 C67.1556506,0.00241148512 68.6406313,1.51200117 68.6406313,3.37849065 L68.6406313,9.76410325" id="Stroke-73" stroke="url(#linearGradient-21)"></path>
        </g>
    </g>
</svg>