<?xml version="1.0" encoding="UTF-8"?>
<svg width="38px" height="38px" viewBox="0 0 38 38" version="1.1" xmlns="http://www.w3.org/2000/svg" xmlns:xlink="http://www.w3.org/1999/xlink">
    <title>dw-account-icon</title>
    <defs>
        <circle id="path-1" cx="19" cy="19" r="19"></circle>
        <filter x="-5.3%" y="-2.6%" width="110.5%" height="110.5%" filterUnits="objectBoundingBox" id="filter-2">
            <feMorphology radius="0.5" operator="erode" in="SourceAlpha" result="shadowSpreadOuter1"></feMorphology>
            <feOffset dx="0" dy="1" in="shadowSpreadOuter1" result="shadowOffsetOuter1"></feOffset>
            <feGaussianBlur stdDeviation="1" in="shadowOffsetOuter1" result="shadowBlurOuter1"></feGaussianBlur>
            <feComposite in="shadowBlurOuter1" in2="SourceAlpha" operator="out" result="shadowBlurOuter1"></feComposite>
            <feColorMatrix values="0 0 0 0 0   0 0 0 0 0   0 0 0 0 0  0 0 0 0.5 0" type="matrix" in="shadowBlurOuter1"></feColorMatrix>
        </filter>
        <path d="M5.38832757,0 C3.19532757,0.003 1.16932757,1.173 0.0693275657,3.071 L0.0693275657,3.071 C-0.0196724343,3.217 -0.0236724343,3.4 0.0613275657,3.549 L0.0613275657,3.549 C0.146327566,3.699 0.305327566,3.79100807 0.476327566,3.789 L0.476327566,3.789 C0.648327566,3.788 0.805327566,3.693 0.887327566,3.542 L0.887327566,3.542 C1.81832757,1.937 3.53232757,0.948 5.38832757,0.944 L5.38832757,0.944 L12.9483276,0.944 C14.8053276,0.948 16.5183276,1.938 17.4503276,3.543 L17.4503276,3.543 C17.5323276,3.694 17.6893276,3.79 17.8613276,3.79100807 L17.8613276,3.79100807 C18.0333276,3.792 18.1923276,3.7 18.2773276,3.55 L18.2773276,3.55 C18.3613276,3.4 18.3583276,3.216 18.2673276,3.07 L18.2673276,3.07 C17.1673276,1.173 15.1413276,0.003 12.9483276,0 L12.9483276,0 L5.38832757,0 Z" id="path-3"></path>
        <path d="M0,5.671 C0,8.802 2.539,11.341 5.67,11.341 L5.67,11.341 C8.8,11.337 11.337,8.801 11.341,5.671 L11.341,5.671 C11.341,2.539 8.802,0 5.67,0 L5.67,0 C2.539,0 0,2.539 0,5.671 L0,5.671 Z M0.945,5.671 C0.945,3.061 3.061,0.946 5.67,0.946 L5.67,0.946 C8.28,0.946 10.395,3.061 10.395,5.671 L10.395,5.671 C10.395,8.281 8.28,10.396 5.67,10.396 L5.67,10.396 C3.062,10.393 0.949,8.28 0.945,5.671 L0.945,5.671 Z" id="path-5"></path>
    </defs>
    <g id="dw-account-icon" stroke="none" stroke-width="1" fill="none" fill-rule="evenodd">
        <g id="Oval">
            <use fill="black" fill-opacity="1" filter="url(#filter-2)" xlink:href="#path-1"></use>
            <circle stroke="#DDEF75" stroke-width="0.5" stroke-linejoin="square" fill="#DDEF75" fill-rule="evenodd" cx="19" cy="19" r="18.75"></circle>
        </g>
        <g id="Group" transform="translate(6.000000, 6.072765)">
            <g id="Group-197" transform="translate(3.566699, 15.595735)">
                <mask id="mask-4" fill="white">
                    <use xlink:href="#path-3"></use>
                </mask>
                <g id="Clip-196"></g>
                <polygon id="Fill-195" fill="#323331" mask="url(#mask-4)" points="-5.75667243 9.548 24.0943276 9.548 24.0943276 -5.757 -5.75667243 -5.757"></polygon>
            </g>
            <g id="Group-200" transform="translate(7.065027, 3.308735)">
                <mask id="mask-6" fill="white">
                    <use xlink:href="#path-5"></use>
                </mask>
                <g id="Clip-199"></g>
                <polygon id="Fill-198" fill="#323331" mask="url(#mask-6)" points="-5.757 17.099 17.097 17.099 17.097 -5.755 -5.757 -5.755"></polygon>
            </g>
            <path d="M23.8361268,7.46823483 C23.5961268,7.57223483 23.4861268,7.85023483 23.5891268,8.08923483 C25.8231268,13.2882348 24.0521268,19.3422348 19.3671268,22.5172348 C14.6831268,25.6922348 8.40412677,25.0942348 4.40212677,21.0922348 C0.400126772,17.0912348 -0.196873228,10.8122348 2.97812677,6.12723483 C6.15212677,1.44323483 12.2061268,-0.328765171 17.4051268,1.90623483 C17.6441268,2.00523483 17.9191268,1.89423483 18.0211268,1.65623483 C18.1241268,1.41923483 18.0161268,1.14323483 17.7801268,1.03723483 C12.1641268,-1.37676517 5.62512677,0.536234829 2.19512677,5.59723483 C-1.23387323,10.6562348 -0.588873228,17.4392348 3.73312677,21.7612348 C8.05612677,26.0832348 14.8381268,26.7292348 19.8981268,23.2992348 C24.9581268,19.8692348 26.8711268,13.3302348 24.4571268,7.71523483 C24.4071268,7.60023483 24.3141268,7.50923483 24.1971268,7.46223483 C24.0811268,7.41623483 23.9511268,7.41823483 23.8361268,7.46823483" id="Fill-201" fill="#323331"></path>
            <g id="Group-4" transform="translate(18.325827, 0.554735)" fill="#333332">
                <path d="M3.5,0 C3.77614237,-5.07265313e-17 4,0.223857625 4,0.5 L4,3 L6.5,3 C6.77614237,3 7,3.22385763 7,3.5 C7,3.77614237 6.77614237,4 6.5,4 L4,4 L4,6.5 C4,6.77614237 3.77614237,7 3.5,7 C3.22385763,7 3,6.77614237 3,6.5 L3,4 L0.5,4 C0.223857625,4 6.44338575e-17,3.77614237 3.061617e-17,3.5 C-3.20151758e-18,3.22385763 0.223857625,3 0.5,3 L3,3 L3,0.5 C3,0.223857625 3.22385763,5.07265313e-17 3.5,0 Z" id="Combined-Shape"></path>
            </g>
        </g>
    </g>
</svg>