<?xml version="1.0" encoding="UTF-8"?>
<svg width="48px" height="48px" viewBox="0 0 48 48" version="1.1" xmlns="http://www.w3.org/2000/svg" xmlns:xlink="http://www.w3.org/1999/xlink">
    <title>CreateAccount/Icon</title>
    <defs>
        <circle id="path-1" cx="23" cy="23" r="23"></circle>
        <filter x="-4.3%" y="-2.2%" width="108.7%" height="108.7%" filterUnits="objectBoundingBox" id="filter-2">
            <feMorphology radius="0.5" operator="erode" in="SourceAlpha" result="shadowSpreadOuter1"></feMorphology>
            <feOffset dx="0" dy="1" in="shadowSpreadOuter1" result="shadowOffsetOuter1"></feOffset>
            <feGaussianBlur stdDeviation="1" in="shadowOffsetOuter1" result="shadowBlurOuter1"></feGaussianBlur>
            <feComposite in="shadowBlurOuter1" in2="SourceAlpha" operator="out" result="shadowBlurOuter1"></feComposite>
            <feColorMatrix values="0 0 0 0 0   0 0 0 0 0   0 0 0 0 0  0 0 0 0.5 0" type="matrix" in="shadowBlurOuter1"></feColorMatrix>
        </filter>
    </defs>
    <g id="Digital-Wallet---Styleguide-/-Library" stroke="none" stroke-width="1" fill="none" fill-rule="evenodd">
        <g id="04_dw_iconography_graphics" transform="translate(-1443.000000, -459.000000)">
            <g id="Group-7" transform="translate(1444.000000, 459.000000)">
                <g id="Oval">
                    <use fill="black" fill-opacity="1" filter="url(#filter-2)" xlink:href="#path-1"></use>
                    <circle stroke="#DDEF75" stroke-width="0.6" stroke-linejoin="square" fill="#DDEF75" fill-rule="evenodd" cx="23" cy="23" r="22.7"></circle>
                </g>
                <g id="Group-4" transform="translate(9.684211, 9.684211)" fill="#333332" fill-rule="nonzero">
                    <path d="M19.3513623,4.47256358 L22.3321623,4.47256358 L22.3321623,7.45336358 C22.3321623,7.72773864 22.5545872,7.95016358 22.8289623,7.95016358 C23.1033373,7.95016358 23.3257623,7.72773864 23.3257623,7.45336358 L23.3257623,4.47256358 L26.3065623,4.47256358 C26.5809373,4.47256358 26.8033623,4.25013864 26.8033623,3.97576358 C26.8033623,3.70138851 26.5809373,3.47896358 26.3065623,3.47896358 L23.3257623,3.47896358 L23.3257623,0.498163577 C23.3257623,0.223788513 23.1033373,0.00136357655 22.8289623,0.00136357655 C22.5545872,0.00136357655 22.3321623,0.223788513 22.3321623,0.498163577 L22.3321623,3.47896358 L19.3513623,3.47896358 C19.0769872,3.47896358 18.8545623,3.70138851 18.8545623,3.97576358 C18.8545623,4.25013864 19.0769872,4.47256358 19.3513623,4.47256358 Z" id="Path"></path>
                    <path d="M3.82273563,19.6249636 C3.72887849,19.7789101 3.72579676,19.9716242 3.8146836,20.128493 C3.90357043,20.2853618 4.0704714,20.3817584 4.25076767,20.3803609 C4.43106393,20.3789635 4.5964506,20.2799914 4.68289515,20.1217636 C5.66174181,18.4336972 7.46403071,17.3931038 9.41536227,17.3893636 L17.3641623,17.3893636 C19.3156492,17.3932503 21.1180156,18.4340231 22.0968778,20.1222604 C22.1830993,20.2811611 22.3488341,20.3806808 22.5296145,20.3821238 C22.7103949,20.3835356 22.8776806,20.2866453 22.9664004,20.1291259 C23.0551203,19.9716064 23.0512679,19.7783259 22.9563418,19.6244668 C21.7996221,17.6298045 19.6699502,16.4002163 17.3641623,16.3957636 L9.41536227,16.3957636 C7.10927689,16.400028 4.97931329,17.6298756 3.82273563,19.6249636 L3.82273563,19.6249636 Z" id="Path"></path>
                    <path d="M19.3513623,9.44056358 C19.3513623,6.14806281 16.682263,3.47896358 13.3897623,3.47896358 C10.0972615,3.47896358 7.42816227,6.14806281 7.42816227,9.44056358 C7.42816227,12.7330643 10.0972615,15.4021636 13.3897623,15.4021636 C16.6807762,15.3985768 19.3477754,12.7315775 19.3513623,9.44056358 Z M8.42176227,9.44056358 C8.42176227,6.69681294 10.6460116,4.47256358 13.3897623,4.47256358 C16.1335129,4.47256358 18.3577623,6.69681294 18.3577623,9.44056358 C18.3577623,12.1843142 16.1335129,14.4085636 13.3897623,14.4085636 C10.6473055,14.4054425 8.42488333,12.1830204 8.42176227,9.44056358 L8.42176227,9.44056358 Z" id="Shape"></path>
                    <path d="M25.061184,7.85169782 C24.8093422,7.96049399 24.6933558,8.25282871 24.8021028,8.50469174 C27.1508798,13.971462 25.2883074,20.3359916 20.3628335,23.6739606 C15.4373596,27.0119296 8.8357271,26.3835493 4.62845185,22.176274 C0.42117659,17.9689987 -0.207203796,11.3673662 3.1307652,6.44189235 C6.4687342,1.51641845 12.8332639,-0.346153932 18.3000341,2.00262302 C18.5510233,2.10734076 18.8395604,1.99078871 18.9474003,1.74112506 C19.0552402,1.49146142 18.9422958,1.20149318 18.6939965,1.0905479 C12.7893764,-1.4474214 5.91433351,0.563694376 2.30837165,5.8837382 C-1.29759022,11.203782 -0.619102018,18.3347325 3.92544567,22.8792802 C8.46999335,27.4238279 15.6009438,28.1023161 20.9209876,24.4963542 C26.2410315,20.8903923 28.2521472,14.0153495 25.7141779,8.11072934 C25.6620801,7.98966407 25.5639448,7.89430862 25.4414328,7.84571022 C25.3189209,7.79711182 25.1821051,7.7992662 25.061184,7.85169782 Z" id="Path"></path>
                </g>
            </g>
        </g>
    </g>
</svg>