<?xml version="1.0" encoding="UTF-8"?>
<svg width="38px" height="38px" viewBox="0 0 38 38" version="1.1" xmlns="http://www.w3.org/2000/svg" xmlns:xlink="http://www.w3.org/1999/xlink">
    <title>dw-contact-icon</title>
    <defs>
        <circle id="path-1" cx="19" cy="19" r="19"></circle>
        <filter x="-5.3%" y="-2.6%" width="110.5%" height="110.5%" filterUnits="objectBoundingBox" id="filter-2">
            <feMorphology radius="0.5" operator="erode" in="SourceAlpha" result="shadowSpreadOuter1"></feMorphology>
            <feOffset dx="0" dy="1" in="shadowSpreadOuter1" result="shadowOffsetOuter1"></feOffset>
            <feGaussianBlur stdDeviation="1" in="shadowOffsetOuter1" result="shadowBlurOuter1"></feGaussianBlur>
            <feComposite in="shadowBlurOuter1" in2="SourceAlpha" operator="out" result="shadowBlurOuter1"></feComposite>
            <feColorMatrix values="0 0 0 0 0   0 0 0 0 0   0 0 0 0 0  0 0 0 0.5 0" type="matrix" in="shadowBlurOuter1"></feColorMatrix>
        </filter>
        <path d="M3.60687681,0 L1.68141882,0 C1.63119772,0 1.58097662,0.00379027164 1.53170309,0.00758054327 L1.53170309,0.00758054327 C1.08350347,0.0483259634 0.679839542,0.259633607 0.39083133,0.604548326 L0.39083133,0.604548326 C0.102770685,0.949463045 -0.0336790936,1.38534428 0.00706632654,1.83828174 L0.00706632654,1.83828174 C0.224059378,3.87176248 0.927154766,5.85217941 2.03865192,7.56443462 L2.03865192,7.56443462 C3.04875931,9.15161087 4.42273278,10.5227416 6.00990903,11.5300063 L6.00990903,11.5300063 C7.72026911,12.6367656 9.6959482,13.3379659 11.7322716,13.5596968 L11.7322716,13.5596968 C11.7834403,13.563487 11.834609,13.5653822 11.8886203,13.5653822 L11.8886203,13.5653822 C12.3387151,13.563487 12.7603828,13.388187 13.0768705,13.067909 L13.0768705,13.067909 C13.3933582,12.7485786 13.5658155,12.3269109 13.5658155,11.8787113 L13.5658155,11.8787113 L13.5658155,9.96178143 C13.5828718,9.11181301 12.9612672,8.38123816 12.1141415,8.2618446 L12.1141415,8.2618446 C11.527597,8.1850916 10.9505281,8.04200884 10.398096,7.83543904 L10.398096,7.83543904 C9.78596715,7.60707517 9.08950473,7.75300063 8.62140619,8.21351864 L8.62140619,8.21351864 L8.0244384,8.80953885 C6.68362981,7.99368288 5.556024,6.86891977 4.73732533,5.53095389 L4.73732533,5.53095389 L5.33618825,4.9339861 C5.79670625,4.46873026 5.94452684,3.77321541 5.71426784,3.16203411 L5.71426784,3.16203411 C5.50769804,2.60960202 5.36366772,2.03348073 5.28596715,1.44504106 L5.28596715,1.44504106 C5.17036386,0.626342388 4.47105875,0 3.64383196,0 L3.64383196,0 C3.63151358,0 3.6191952,0 3.60687681,0 L3.60687681,0 Z M11.8099722,12.7656349 C9.90630827,12.5590651 8.05002274,11.8995578 6.44105243,10.8581807 L6.44105243,10.8581807 C4.94958054,9.9125079 3.65994062,8.62476311 2.70953,7.13423879 L2.70953,7.13423879 C1.6643626,5.52337334 1.00485533,3.66329754 0.801128234,1.76152874 L0.801128234,1.76152874 C0.78028174,1.5265319 0.852296901,1.29816804 1.0029602,1.11718256 L1.0029602,1.11718256 C1.15457106,0.936197094 1.36777384,0.824384081 1.60371825,0.802590019 L1.60371825,0.802590019 C1.63025015,0.800694883 1.65583449,0.799747315 1.68141882,0.799747315 L1.68141882,0.799747315 L3.61161465,0.799747315 L3.62014276,0.799747315 C4.05886671,0.799747315 4.4341036,1.12476311 4.49664308,1.55495894 L4.49664308,1.55495894 C4.58192419,2.19930512 4.74016803,2.83417562 4.9685319,3.44440935 L4.9685319,3.44440935 C5.08887302,3.7646873 5.01117245,4.12950095 4.77049021,4.37207833 L4.77049021,4.37207833 L3.9555818,5.1850916 C3.82766014,5.31301327 3.8020758,5.50915982 3.89019962,5.66550853 L3.89019962,5.66550853 C4.83966266,7.33133291 6.22405938,8.71193936 7.8917789,9.6585597 L7.8917789,9.6585597 C8.0481276,9.74668351 8.24427416,9.72109918 8.37124826,9.59412508 L8.37124826,9.59412508 L9.18426153,8.78300695 C9.42968161,8.54137713 9.79544283,8.46178143 10.1195111,8.58496526 L10.1195111,8.58496526 C10.7278496,8.81048642 11.3655629,8.96967783 12.0070663,9.05401137 L12.0070663,9.05401137 C12.4514757,9.11560328 12.7793342,9.50126342 12.7670158,9.94946304 L12.7670158,9.94946304 C12.7679707,9.95135818 12.7679707,9.95609602 12.7679707,9.95893872 L12.7679707,9.95893872 L12.7679707,11.8825016 C12.7689109,12.1174984 12.6779444,12.3401769 12.5111725,12.5069488 L12.5111725,12.5069488 C12.3453481,12.6746684 12.1236172,12.7665824 11.8876728,12.76753 L11.8876728,12.76753 C11.8592457,12.76753 11.8308187,12.7656349 11.8099722,12.7656349 L11.8099722,12.7656349 Z" id="path-3"></path>
    </defs>
    <g id="dw-contact-icon" stroke="none" stroke-width="1" fill="none" fill-rule="evenodd">
        <g id="Oval">
            <use fill="black" fill-opacity="1" filter="url(#filter-2)" xlink:href="#path-1"></use>
            <circle stroke="#DDEF75" stroke-width="0.5" stroke-linejoin="square" fill="#DDEF75" fill-rule="evenodd" cx="19" cy="19" r="18.75"></circle>
        </g>
        <g id="Group-6" transform="translate(7.000000, 7.000000)">
            <g id="Group-3" transform="translate(5.216686, 5.739324)">
                <mask id="mask-4" fill="white">
                    <use xlink:href="#path-3"></use>
                </mask>
                <g id="Clip-2"></g>
                <polygon id="Fill-1" fill="#323331" mask="url(#mask-4)" points="-5.79678712 19.3635502 19.363036 19.3635502 19.363036 -5.7962729 -5.79678712 -5.7962729"></polygon>
            </g>
            <path d="M12,0 C5.38313329,0 0,5.38408086 0,12 C0,14.2883765 0.645293746,16.5075805 1.86955148,18.4301958 L0.545799116,22.9406191 C0.492735313,23.0846494 0.527795325,23.2466835 0.633922931,23.3566014 C0.710675932,23.4361971 0.814908402,23.4778901 0.921983575,23.4778901 C0.964624131,23.4778901 1.00631712,23.4722047 1.04801011,23.4579912 L5.7460518,22.2403664 C7.62792167,23.392609 9.78648136,24 12,24 C18.6159191,24 24,18.6168667 24,12 C24,5.38408086 18.6159191,0 12,0 M12,23.2002527 C9.87460518,23.2002527 7.8041693,22.5994946 6.01231838,21.4624131 C5.9469362,21.4216677 5.8730259,21.4008212 5.79816804,21.4008212 C5.75552748,21.4008212 5.71288692,21.4084018 5.67119394,21.4216677 L1.53600758,22.436513 L2.68919773,18.5183196 C2.73278585,18.3989261 2.71762476,18.2662666 2.64750474,18.160139 C1.43840809,16.3294378 0.800694883,14.1993051 0.800694883,12 C0.800694883,5.82469994 5.82469994,0.800694883 12,0.800694883 C18.1762476,0.800694883 23.2002527,5.82469994 23.2002527,12 C23.2002527,18.1762476 18.1762476,23.2002527 12,23.2002527" id="Fill-4" fill="#323331"></path>
        </g>
    </g>
</svg>