<?xml version="1.0" encoding="UTF-8"?>
<svg width="48px" height="48px" viewBox="0 0 48 48" version="1.1" xmlns="http://www.w3.org/2000/svg" xmlns:xlink="http://www.w3.org/1999/xlink">
    <title>ContactUS/Icon</title>
    <defs>
        <circle id="path-1" cx="23" cy="23" r="23"></circle>
        <filter x="-4.3%" y="-2.2%" width="108.7%" height="108.7%" filterUnits="objectBoundingBox" id="filter-2">
            <feMorphology radius="0.5" operator="erode" in="SourceAlpha" result="shadowSpreadOuter1"></feMorphology>
            <feOffset dx="0" dy="1" in="shadowSpreadOuter1" result="shadowOffsetOuter1"></feOffset>
            <feGaussianBlur stdDeviation="1" in="shadowOffsetOuter1" result="shadowBlurOuter1"></feGaussianBlur>
            <feComposite in="shadowBlurOuter1" in2="SourceAlpha" operator="out" result="shadowBlurOuter1"></feComposite>
            <feColorMatrix values="0 0 0 0 0   0 0 0 0 0   0 0 0 0 0  0 0 0 0.5 0" type="matrix" in="shadowBlurOuter1"></feColorMatrix>
        </filter>
    </defs>
    <g id="Digital-Wallet---Styleguide-/-Library" stroke="none" stroke-width="1" fill="none" fill-rule="evenodd">
        <g id="04_dw_iconography_graphics" transform="translate(-1445.000000, -649.000000)">
            <g id="Group-9" transform="translate(1446.000000, 649.000000)">
                <g id="Oval">
                    <use fill="black" fill-opacity="1" filter="url(#filter-2)" xlink:href="#path-1"></use>
                    <circle stroke="#DDEF75" stroke-width="0.6" stroke-linejoin="square" fill="#DDEF75" fill-rule="evenodd" cx="23" cy="23" r="22.7"></circle>
                </g>
                <g id="Group-6" transform="translate(10.894737, 9.684211)" fill="#333332" fill-rule="nonzero">
                    <path d="M18.0949869,14.6159482 C17.4834695,14.5355554 16.8802997,14.3856061 16.3037833,14.1706884 C15.6639527,13.931609 14.9366439,14.0857073 14.4488262,14.5667949 L13.8252513,15.1886552 C12.4251611,14.3368432 11.247574,13.1618494 10.3931973,11.7648114 L11.0176509,11.141682 C11.4983415,10.6560061 11.6537227,9.92959129 11.4134018,9.2914767 C11.1976353,8.71457191 11.0472334,8.11311486 10.966443,7.49916203 C10.8435732,6.63114461 10.0937603,5.97052785 9.21355995,5.99093112 L7.2028311,5.99093112 C7.15035396,5.99093112 7.09787682,5.99342051 7.04622954,5.99844811 C6.57886567,6.04008444 6.15602194,6.26168929 5.85526689,6.62113822 C5.55451184,6.98141695 5.41206691,7.43668313 5.45492731,7.90986319 C5.68070106,10.0320469 6.41469764,12.1005379 7.57524796,13.8886547 C8.62996531,15.5451754 10.0646172,16.9772114 11.7217233,18.0280772 C13.5075083,19.1834976 15.5703237,19.9162091 17.6956724,20.1465513 C17.7498093,20.15153 17.803995,20.1536289 17.8597917,20.1536289 C18.3292546,20.1519694 18.7695745,19.9678518 19.1003025,19.6342243 C19.4310305,19.301817 19.6118448,18.8603157 19.6101851,18.3933835 L19.6101851,16.3916181 C19.629565,15.5031486 18.980557,14.7405155 18.0949869,14.6159482 Z M18.7777267,16.3878596 L18.7777267,18.3959217 C18.7785566,18.6416883 18.6835608,18.8732508 18.5098736,19.0481917 C18.3361865,19.2231326 18.1045548,19.3197797 17.8592059,19.3206095 C17.8292329,19.3206095 17.7992111,19.3193404 17.7775368,19.3176808 C15.7897026,19.1023238 13.8526858,18.4142261 12.1718552,17.3267027 C10.6143336,16.3390968 9.26798974,14.9954099 8.27658667,13.4388555 C7.1847692,11.7569039 6.49578093,9.81507918 6.2841638,7.82907992 C6.26165965,7.5841431 6.33664094,7.34506368 6.49451171,7.15640668 C6.65282183,6.96731038 6.87522728,6.85108987 7.12184545,6.829027 C7.1489383,6.82653761 7.17598233,6.82487801 7.20307518,6.82487801 L9.21800221,6.82487801 C9.22049182,6.82487801 9.22386012,6.82487801 9.22674026,6.82487801 C9.68497555,6.82487801 10.0773581,7.16392368 10.1419416,7.61377177 C10.230689,8.28605451 10.3960286,8.94916066 10.6342993,9.58561566 C10.760098,9.92090282 10.6788682,10.3020241 10.4281007,10.5548684 L9.5770435,11.4045815 C9.44372714,11.5370563 9.41624377,11.7424069 9.50914051,11.9056818 C10.5001531,13.6446942 11.9447634,15.0862972 13.6868581,16.0746841 C13.8497569,16.1667429 14.0542469,16.1396524 14.1867334,16.0072264 L15.0365214,15.1596123 C15.2922681,14.9075978 15.6743017,14.8251549 16.0125474,14.9526021 C16.6486192,15.1895826 17.313053,15.354566 17.983296,15.4428662 C18.4477797,15.5082738 18.7893449,15.9101889 18.7776779,16.3779508 C18.7777267,16.3807819 18.7777267,16.3845404 18.7777267,16.3878596 Z" id="Shape"></path>
                    <path d="M12.5291549,-0.00163421053 C5.62080936,-0.00163421053 0.000382478354,5.61886018 0.000382478354,12.5272887 C0.000382478354,14.9165445 0.674440222,17.2327312 1.95193454,19.2411274 L0.570568389,23.9501692 C0.515020902,24.1005163 0.550943242,24.2696567 0.662870205,24.3845215 C0.743034772,24.467232 0.85163378,24.5114747 0.962728754,24.5114747 C1.00701992,24.5114747 1.05170261,24.5043783 1.09472133,24.4901854 L5.99960896,23.2186689 C7.96496225,24.421005 10.2180368,25.0562605 12.5292038,25.0562605 C19.4375494,25.0562605 25.0579762,19.4357661 25.0579762,12.5273376 C25.0579762,5.61890912 19.4375004,-0.00163421053 12.5291549,-0.00163421053 Z M12.5295464,24.2209337 C10.3102897,24.2209337 8.14824449,23.5936556 6.27768898,22.4071764 C6.21005319,22.3645976 6.13233565,22.3424273 6.05383506,22.3424273 C6.00915236,22.3424273 5.9648612,22.3495238 5.92184248,22.3641572 L1.10868943,23.9682998 L2.80844254,19.3325983 C2.85395722,19.2081411 2.83810049,19.0694909 2.7650323,18.9588351 C1.50295424,17.0473423 0.83604181,14.8234585 0.83604181,12.5273376 C0.83604181,6.0795428 6.08182903,0.833692571 12.5295464,0.833692571 C18.9772638,0.833692571 24.223051,6.0795428 24.223051,12.5273376 C24.223051,18.9751325 18.9772638,24.2209337 12.5295464,24.2209337 Z" id="Shape"></path>
                </g>
            </g>
        </g>
    </g>
</svg>