<?xml version="1.0" encoding="UTF-8"?>
<svg width="38px" height="38px" viewBox="0 0 38 38" version="1.1" xmlns="http://www.w3.org/2000/svg" xmlns:xlink="http://www.w3.org/1999/xlink">
    <title>dw-faceID-icon</title>
    <defs>
        <circle id="path-1" cx="19" cy="19" r="19"></circle>
        <filter x="-5.3%" y="-2.6%" width="110.5%" height="110.5%" filterUnits="objectBoundingBox" id="filter-2">
            <feMorphology radius="0.5" operator="erode" in="SourceAlpha" result="shadowSpreadOuter1"></feMorphology>
            <feOffset dx="0" dy="1" in="shadowSpreadOuter1" result="shadowOffsetOuter1"></feOffset>
            <feGaussianBlur stdDeviation="1" in="shadowOffsetOuter1" result="shadowBlurOuter1"></feGaussianBlur>
            <feComposite in="shadowBlurOuter1" in2="SourceAlpha" operator="out" result="shadowBlurOuter1"></feComposite>
            <feColorMatrix values="0 0 0 0 0   0 0 0 0 0   0 0 0 0 0  0 0 0 0.5 0" type="matrix" in="shadowBlurOuter1"></feColorMatrix>
        </filter>
        <path d="M0,7.37 C0.006,11.438 3.302,14.735 7.37,14.74 L7.37,14.74 C11.441,14.74 14.74,11.44 14.74,7.37 L14.74,7.37 C14.74,3.299 11.441,0 7.37,0 L7.37,0 C3.301,0 0,3.299 0,7.37 L0,7.37 Z" id="path-3"></path>
    </defs>
    <g id="dw-faceID-icon" stroke="none" stroke-width="1" fill="none" fill-rule="evenodd">
        <g id="Oval">
            <use fill="black" fill-opacity="1" filter="url(#filter-2)" xlink:href="#path-1"></use>
            <circle stroke="#DDEF75" stroke-width="0.5" stroke-linejoin="square" fill="#DDEF75" fill-rule="evenodd" cx="19" cy="19" r="18.75"></circle>
        </g>
        <g id="Group" transform="translate(5.771765, 6.411641)">
            <g id="Group-4" transform="translate(17.554062, 0.215859)" fill="#333332">
                <path d="M3.5,0 C3.77614237,-5.07265313e-17 4,0.223857625 4,0.5 L4,3 L6.5,3 C6.77614237,3 7,3.22385763 7,3.5 C7,3.77614237 6.77614237,4 6.5,4 L4,4 L4,6.5 C4,6.77614237 3.77614237,7 3.5,7 C3.22385763,7 3,6.77614237 3,6.5 L3,4 L0.5,4 C0.223857625,4 6.44338575e-17,3.77614237 3.061617e-17,3.5 C-3.20151758e-18,3.22385763 0.223857625,3 0.5,3 L3,3 L3,0.5 C3,0.223857625 3.22385763,5.07265313e-17 3.5,0 Z" id="Combined-Shape"></path>
            </g>
            <g id="Group-218" transform="translate(5.364262, 5.382859)">
                <mask id="mask-4" fill="white">
                    <use xlink:href="#path-3"></use>
                </mask>
                <g id="Clip-217"></g>
                <polygon id="Stroke-216" stroke="#323331" stroke-linecap="round" mask="url(#mask-4)" points="-10.453 25.192 25.194 25.192 25.194 -10.454 -10.453 -10.454"></polygon>
            </g>
            <path d="M5.36466201,12.7524593 C5.36466201,8.68245933 8.66466201,5.38245933 12.734662,5.38245933 C16.804662,5.38245933 20.104662,8.68245933 20.104662,12.7524593 C20.104662,16.8224593 16.804662,20.1224593 12.734662,20.1224593 C8.66666201,20.1174593 5.36966201,16.8204593 5.36466201,12.7524593 Z" id="Stroke-219" stroke="#333332" stroke-linecap="round"></path>
            <path d="M23.835862,7.46825933 C23.596862,7.57225933 23.485862,7.85025933 23.589862,8.08925933 C25.823862,13.2882593 24.051862,19.3422593 19.366862,22.5172593 C14.682862,25.6922593 8.40386201,25.0942593 4.40186201,21.0922593 C0.400862009,17.0902593 -0.197137991,10.8122593 2.97786201,6.12725933 C6.15286201,1.44325933 12.205862,-0.32874067 17.404862,1.90525933 C17.643862,2.00425933 17.918862,1.89425933 18.020862,1.65625933 C18.123862,1.41825933 18.015862,1.14325933 17.779862,1.03725933 C12.163862,-1.37674067 5.62586201,0.53625933 2.19586201,5.59625933 C-1.23413799,10.6562593 -0.589137991,17.4392593 3.73386201,21.7612593 C8.05586201,26.0832593 14.837862,26.7292593 19.897862,23.2992593 C24.957862,19.8692593 26.870862,13.3302593 24.456862,7.71425933 C24.407862,7.59925933 24.314862,7.50825933 24.197862,7.46225933 C24.080862,7.41625933 23.950862,7.41825933 23.835862,7.46825933" id="Fill-221" fill="#333332"></path>
            <line x1="12.789462" y1="11.8012593" x2="12.789462" y2="14.3122593" id="Stroke-223" stroke="#323331" stroke-linecap="round"></line>
            <path d="M9.99306201,9.99755933 C10.374062,10.3325593 10.412062,10.9135593 10.077062,11.2955593" id="Stroke-225" stroke="#323331" stroke-linecap="round"></path>
            <path d="M15.521362,9.99755933 C15.902362,10.3325593 15.940362,10.9135593 15.605362,11.2955593" id="Stroke-227" stroke="#323331" stroke-linecap="round"></path>
            <path d="M10.085862,16.1127593 C10.085862,16.1127593 13.047862,17.8997593 15.493862,15.9957593" id="Stroke-229" stroke="#323331" stroke-linecap="round"></path>
        </g>
    </g>
</svg>