<?xml version="1.0" encoding="UTF-8"?>
<svg width="48px" height="48px" viewBox="0 0 48 48" version="1.1" xmlns="http://www.w3.org/2000/svg" xmlns:xlink="http://www.w3.org/1999/xlink">
    <title>FAceID/Icon</title>
    <defs>
        <circle id="path-1" cx="23" cy="23" r="23"></circle>
        <filter x="-4.3%" y="-2.2%" width="108.7%" height="108.7%" filterUnits="objectBoundingBox" id="filter-2">
            <feMorphology radius="0.5" operator="erode" in="SourceAlpha" result="shadowSpreadOuter1"></feMorphology>
            <feOffset dx="0" dy="1" in="shadowSpreadOuter1" result="shadowOffsetOuter1"></feOffset>
            <feGaussianBlur stdDeviation="1" in="shadowOffsetOuter1" result="shadowBlurOuter1"></feGaussianBlur>
            <feComposite in="shadowBlurOuter1" in2="SourceAlpha" operator="out" result="shadowBlurOuter1"></feComposite>
            <feColorMatrix values="0 0 0 0 0   0 0 0 0 0   0 0 0 0 0  0 0 0 0.5 0" type="matrix" in="shadowBlurOuter1"></feColorMatrix>
        </filter>
        <polygon id="path-3" points="0 0.0245131579 26.1555395 0.0245131579 26.1555395 26.1800453 0 26.1800453"></polygon>
    </defs>
    <g id="Digital-Wallet---Styleguide-/-Library" stroke="none" stroke-width="1" fill="none" fill-rule="evenodd">
        <g id="04_dw_iconography_graphics" transform="translate(-1445.000000, -546.000000)">
            <g id="Group-8" transform="translate(1446.000000, 546.000000)">
                <g id="Oval">
                    <use fill="black" fill-opacity="1" filter="url(#filter-2)" xlink:href="#path-1"></use>
                    <circle stroke="#DDEF75" stroke-width="0.6" stroke-linejoin="square" fill="#DDEF75" fill-rule="evenodd" cx="23" cy="23" r="22.7"></circle>
                </g>
                <g id="Group-12" transform="translate(9.684211, 9.684211)">
                    <g id="Group-3" transform="translate(0.000000, 0.073539)">
                        <mask id="mask-4" fill="white">
                            <use xlink:href="#path-3"></use>
                        </mask>
                        <g id="Clip-2"></g>
                        <path d="M13.0715728,1.18549606 C6.50126207,1.19718341 1.16072744,6.54056157 1.1610216,13.1024398 C1.16131576,19.664416 6.5022426,25.0078923 13.071867,25.0189893 C19.6320783,25.0300521 25.0168347,19.6422561 24.9944506,13.089791 C24.9717304,6.51300878 19.6242341,1.17384688 13.0715728,1.18549606 M-3.31938951e-05,13.0906735 C0.0103739684,5.86595946 5.86421413,0.0196693579 13.0832411,0.0244709776 C20.3143285,0.0292785158 26.1766012,5.90469025 26.1555765,13.1260705 C26.1344385,20.3549027 20.2749113,26.1957999 13.0601007,26.1800453 C5.83332755,26.1642269 -0.0103151368,20.3076413 -3.31938951e-05,13.0906735" id="Fill-1" fill="#333332" mask="url(#mask-4)"></path>
                    </g>
                    <path d="M12.9259254,21.316848 C10.9995834,21.2933154 9.29925275,20.6899975 7.82061906,19.4744391 C7.61872869,19.308534 7.56587833,19.0274171 7.68736554,18.7881687 C7.81728527,18.5322513 8.07918385,18.3967426 8.33657201,18.4878335 C8.49375038,18.5435274 8.64239817,18.6395209 8.77624001,18.7418879 C9.63263169,19.3970755 10.5863896,19.8335078 11.6463386,20.0316722 C13.2803857,20.3370081 14.8246166,20.0809926 16.2665786,19.2551934 C16.6187836,19.0534991 16.9400041,18.7983662 17.2802467,18.5751984 C17.5402823,18.4046849 17.8262037,18.4274331 18.0210343,18.6201065 C18.2279254,18.8247423 18.2689114,19.0840915 18.1253623,19.3335374 C18.0900634,19.3949184 18.0378013,19.4507103 17.9824996,19.4959126 C16.5071997,20.7022541 14.810497,21.2930212 12.9259254,21.316848" id="Fill-4" fill="#333332"></path>
                    <path d="M13.6622811,11.4629409 C13.6622811,12.1638212 13.673263,12.8650936 13.6598298,13.5657777 C13.6375718,14.7216221 12.7260746,15.6931276 11.6083726,15.7711775 C11.1476233,15.8034368 10.8718012,15.6215492 10.8311094,15.2587544 C10.7913981,14.9041961 11.0331959,14.6649477 11.4909056,14.6061161 C11.9961708,14.5410092 12.345042,14.2475376 12.4594695,13.7765908 C12.4878067,13.6597121 12.4907482,13.5347931 12.4909443,13.4135019 C12.4930035,12.0359605 12.494082,10.6584191 12.4907482,9.28087768 C12.4900619,9.03447142 12.5587968,8.82983558 12.7769639,8.69883726 C13.1821173,8.45537258 13.6541427,8.73737195 13.6606142,9.23773453 C13.6703214,9.97930658 13.6631636,10.7211728 13.6631636,11.4629409 L13.6622811,11.4629409 Z" id="Fill-6" fill="#333332"></path>
                    <path d="M7.94812671,10.4661379 C7.94783255,10.7428424 7.95391181,11.0197431 7.94636176,11.2961534 C7.93596818,11.6844418 7.65024281,11.9739913 7.26999471,11.993994 C6.91416171,12.0127221 6.56480018,11.7457247 6.54822928,11.373615 C6.52057844,10.7567659 6.51920571,10.1367791 6.54920981,9.52012611 C6.56793786,9.13585784 6.91592665,8.88827495 7.30186181,8.91376863 C7.65857728,8.93720321 7.92528044,9.21567268 7.94665592,9.58729216 C7.94763644,9.60356889 7.94832281,9.61984563 7.94832281,9.63602432 C7.94842086,9.91272884 7.94832281,10.1895314 7.94812671,10.4661379" id="Fill-8" fill="#333332"></path>
                    <path d="M18.2070794,10.441811 C18.2073735,10.1651065 18.2021768,9.88820588 18.2086482,9.61169746 C18.217473,9.22615451 18.4900593,8.93464404 18.8514813,8.91287635 C19.2426132,8.88944177 19.5819734,9.12878825 19.6028586,9.51923383 C19.6357062,10.1355927 19.6346277,10.7558736 19.6071729,11.3727227 C19.5902098,11.7538533 19.2299644,12.0206545 18.8607963,11.9926115 C18.4957463,11.9650587 18.2235522,11.6749209 18.2077658,11.2964378 C18.2069813,11.280161 18.2068833,11.2638843 18.2068833,11.2476076 C18.2068833,10.9790414 18.2068833,10.7103772 18.2070794,10.441811" id="Fill-10" fill="#333332"></path>
                </g>
            </g>
        </g>
    </g>
</svg>