<?xml version="1.0" encoding="UTF-8"?>
<svg width="22px" height="31px" viewBox="0 0 22 31" version="1.1" xmlns="http://www.w3.org/2000/svg" xmlns:xlink="http://www.w3.org/1999/xlink">
    <title>004-medal-1</title>
    <g id="Digital-Wallet---Styleguide-/-Library" stroke="none" stroke-width="1" fill="none" fill-rule="evenodd">
        <g id="04_dw_iconography_graphics" transform="translate(-1433.000000, -1272.000000)" fill="#333332" fill-rule="nonzero">
            <g id="004-medal-1" transform="translate(1433.000000, 1272.000000)">
                <path d="M20.6692323,7.85541035 L18.6589007,6.16988784 L18.201219,3.585013 C18.049057,2.72588193 17.3065424,2.10287125 16.4351835,2.10287125 L13.8111817,2.10520552 L11.8009098,0.419862573 C11.1323537,-0.140721348 10.1625827,-0.139883404 9.49498326,0.421957431 L7.48776058,2.11113097 L4.86549263,2.11358495 C3.99341619,2.11442289 3.25108101,2.73910946 3.10047354,3.59895877 L2.64745536,6.1846117 L0.640232679,7.87384509 C-0.0273069741,8.43562608 -0.194834615,9.39177898 0.241921065,10.1474241 L1.55511775,12.4196863 L1.10215936,15.0052195 C0.951432312,15.8651287 1.43709506,16.705406 2.25691626,17.0032948 L4.46795826,17.8066428 L4.47650803,28.8275096 C4.47650803,29.4981035 4.84522429,30.1077669 5.43874567,30.418584 C5.70121759,30.5560066 5.98652877,30.624 6.27076374,30.624 C6.62931594,30.624 6.98607448,30.5158452 7.29302912,30.3025887 L10.634793,27.9802294 L13.9764971,30.3025887 C14.5267316,30.6849301 15.2372592,30.729401 15.8307806,30.418584 C16.424302,30.1077669 16.7930182,29.4981035 16.7930182,28.8275096 L16.7930182,17.8196309 L19.0693494,16.9879126 C19.8885129,16.6885275 20.3726211,15.8473523 20.2203994,14.9877424 L19.7626579,12.4029274 L21.0717292,10.1282711 C21.5071097,9.37178806 21.3377884,8.41593441 20.6692323,7.85541035 Z M11.1462247,26.1498026 C10.8387319,25.9361272 10.4309139,25.9361272 10.1234212,26.1498026 L6.27028543,28.8270906 C6.27028543,28.8269111 6.27028543,28.8267914 6.27028543,28.8267914 L6.26382827,20.4829731 C6.60510156,20.8577133 7.08687805,21.0680968 7.58647154,21.0680968 C7.79178558,21.0680968 8.00008904,21.032604 8.20277237,20.9586256 L10.6660625,20.058555 L13.1310266,20.9540767 C13.7942017,21.1948058 14.5169262,21.0229676 14.9994202,20.5480933 L14.999181,28.8272702 L11.1462247,26.1498026 Z M18.2085132,11.5065678 C17.9983563,11.8717912 17.9230824,12.3013568 17.9966224,12.7163182 L18.4543639,15.3011331 L15.9908346,16.2012636 C15.6820863,16.3141465 15.4121408,16.5108835 15.2081422,16.7650197 C15.1983966,16.7766911 15.1894881,16.7891405 15.1803405,16.8012907 C15.1340641,16.8620415 15.0902391,16.9248274 15.0518548,16.9915636 L13.7433814,19.2663397 C13.7433814,19.2663397 13.743202,19.2662798 13.7427835,19.2661002 L11.2778791,18.3706384 C10.8821384,18.2268713 10.4464589,18.2272304 10.0509574,18.3717157 L7.58766732,19.2718461 L6.27447064,16.9996438 C6.20392009,16.8775435 6.11848219,16.7660372 6.02264108,16.6648257 C6.01397173,16.6554886 6.00584048,16.6456727 5.99675262,16.6366947 C5.81098945,16.4488159 5.58504836,16.3022956 5.33381668,16.2109598 L2.86885253,15.3153782 L3.3218707,12.7297252 C3.39451384,12.3145843 3.31846275,11.8851385 3.10764817,11.5203938 L1.79445149,9.24819145 L3.80167417,7.55895806 C4.12399448,7.28776376 4.34150539,6.90973173 4.41414853,6.49471049 L4.86716671,3.90911741 L7.48931508,3.90666343 C7.91034636,3.90630432 8.31971886,3.75673148 8.6419196,3.48553718 L10.6491423,1.79636364 L12.6594142,3.48176644 C12.9817345,3.75206294 13.3907483,3.90085769 13.8113012,3.90085769 L13.8127959,3.90085769 L16.4350639,3.89846356 L16.8927456,6.48333841 C16.9662258,6.89829979 17.1844541,7.27573329 17.507193,7.54638891 L19.5175247,9.23191141 L18.2085132,11.5065678 Z" id="Shape"></path>
                <path d="M10.65597,5.568 C7.79752879,5.568 5.472,7.89354223 5.472,10.752 C5.472,13.6104578 7.79752879,15.936 10.65597,15.936 C13.5144113,15.936 15.84,13.6104578 15.84,10.752 C15.84,7.89354223 13.5144113,5.568 10.65597,5.568 Z M10.65597,14.1380394 C8.78891856,14.1380394 7.26995025,12.6190623 7.26995025,10.752 C7.26995025,8.88493773 8.78891856,7.36596065 10.65597,7.36596065 C12.5230215,7.36596065 14.0420497,8.88493773 14.0420497,10.752 C14.0420497,12.6190623 12.5230215,14.1380394 10.65597,14.1380394 Z" id="Shape"></path>
            </g>
        </g>
    </g>
</svg>