<?xml version="1.0" encoding="utf-8"?>
<!-- Generator: Adobe Illustrator 25.2.1, SVG Export Plug-In . SVG Version: 6.00 Build 0)  -->
<svg version="1.1" id="Layer_1" xmlns="http://www.w3.org/2000/svg" xmlns:xlink="http://www.w3.org/1999/xlink" x="0px" y="0px"
	 viewBox="0 0 612 761" style="enable-background:new 0 0 612 761;" xml:space="preserve">
<style type="text/css">
	.st0{fill:#E0E887;}
	.st1{fill:#333332;}
	.st2{fill:#E4E8E7;}
	.st3{fill:#C6D077;}
	.st4{fill:#F0F7F0;}
	.st5{fill:#E5E5E5;}
	.st6{fill:#FFFFFF;}
	.st7{fill:#FDFEFE;}
	.st8{fill:none;stroke:#333332;stroke-linecap:round;stroke-miterlimit:10;}
	.st9{fill-rule:evenodd;clip-rule:evenodd;fill:none;stroke:#333332;stroke-linecap:round;stroke-miterlimit:10;}
	.st10{fill:none;stroke:#201C19;stroke-miterlimit:10;}
	.st11{fill:none;stroke:#000000;stroke-miterlimit:10;}
	.st12{fill:none;stroke:#FFFFFF;stroke-linecap:round;stroke-miterlimit:10;}
</style>
<g>
	<rect x="6.97" y="6.7" class="st0" width="149.72" height="149.72"/>
	<rect x="156.69" y="6.7" class="st1" width="149.72" height="149.72"/>
	<rect x="306.41" y="6.7" class="st2" width="149.72" height="149.72"/>
	<rect x="456.13" y="6.7" class="st0" width="149.72" height="149.72"/>
	<rect x="6.97" y="156.42" class="st3" width="149.72" height="149.72"/>
	<rect x="156.69" y="156.42" class="st2" width="149.72" height="149.72"/>
	<rect x="306.41" y="156.42" class="st4" width="149.72" height="149.72"/>
	<path class="st1" d="M530.99,306.14L530.99,306.14c-41.34,0-74.86-33.52-74.86-74.86v0c0-41.34,33.52-74.86,74.86-74.86h0
		c41.34,0,74.86,33.52,74.86,74.86v0C605.85,272.62,572.34,306.14,530.99,306.14z"/>
	<rect x="6.97" y="306.14" class="st5" width="149.72" height="149.72"/>
	<rect x="156.69" y="306.14" class="st0" width="149.72" height="149.72"/>
	<rect x="306.41" y="306.14" class="st2" width="149.72" height="149.72"/>
	<rect x="456.13" y="306.14" class="st4" width="149.72" height="149.72"/>
	<rect x="6.97" y="455.86" class="st5" width="149.72" height="149.72"/>
	<rect x="156.69" y="455.86" class="st4" width="149.72" height="149.72"/>
	<rect x="306.41" y="455.86" class="st0" width="149.72" height="149.72"/>
	<rect x="456.13" y="455.86" class="st1" width="149.72" height="149.72"/>
	<rect x="6.97" y="605.58" class="st3" width="149.72" height="149.72"/>
	<rect x="156.69" y="605.58" class="st2" width="149.72" height="149.72"/>
	<rect x="306.41" y="605.58" class="st4" width="149.72" height="149.72"/>
	<rect x="456.13" y="605.58" class="st6" width="149.72" height="149.72"/>
</g>
<circle class="st1" cx="231.6" cy="679.8" r="73.49"/>
<circle class="st2" cx="82.04" cy="230.69" r="73.49"/>
<circle class="st4" cx="381.37" cy="380.67" r="73.49"/>
<path class="st3" d="M306.39,305.89c-82.7,0.12-149.71,67.2-149.71,149.93h149.71V305.89z"/>
<path class="st0" d="M456.35,605.56c-0.12-82.7-67.2-149.71-149.93-149.71v149.71H456.35z"/>
<path class="st0" d="M306.6,305.79c82.7-0.12,149.71-67.2,149.71-149.93H306.6V305.79z"/>
<circle class="st4" cx="381.03" cy="81.22" r="73.49"/>
<g>
	<path class="st1" d="M547.35,106.37h-32.84c-1.75,0-3.18-1.43-3.18-3.18v-41.3c0-1.75,1.43-3.18,3.18-3.18h32.84
		c1.75,0,3.18,1.43,3.18,3.18v41.3C550.53,104.95,549.11,106.37,547.35,106.37z M514.51,59.82c-1.14,0-2.07,0.93-2.07,2.07v41.3
		c0,1.14,0.93,2.07,2.07,2.07h32.84c1.14,0,2.07-0.93,2.07-2.07v-41.3c0-1.14-0.93-2.07-2.07-2.07H514.51z"/>
	<path class="st1" d="M530.93,89.01c-0.31,0-0.55-0.25-0.55-0.55V76.06c0-0.31,0.25-0.55,0.55-0.55c0.31,0,0.55,0.25,0.55,0.55
		v12.39C531.49,88.76,531.24,89.01,530.93,89.01z"/>
	<path class="st1" d="M536.84,82.81h-12.3c-0.31,0-0.55-0.25-0.55-0.55s0.25-0.55,0.55-0.55h12.3c0.31,0,0.55,0.25,0.55,0.55
		S537.14,82.81,536.84,82.81z"/>
	<path class="st1" d="M534.02,59.45c-0.31,0-0.55-0.25-0.55-0.55c0-1.4-1.14-2.53-2.53-2.53c-1.4,0-2.53,1.14-2.53,2.53
		c0,0.31-0.25,0.55-0.55,0.55s-0.55-0.25-0.55-0.55c0-2.01,1.63-3.64,3.64-3.64c2.01,0,3.64,1.63,3.64,3.64
		C534.57,59.2,534.33,59.45,534.02,59.45z"/>
	<path class="st1" d="M538.08,63.69h-14.28c-1.15,0-2.08-0.93-2.08-2.08v-1.85c0-0.31,0.25-0.55,0.55-0.55
		c0.31,0,0.55,0.25,0.55,0.55v1.85c0,0.54,0.44,0.98,0.98,0.98h14.28c0.54,0,0.98-0.44,0.98-0.98v-1.85c0-0.31,0.25-0.55,0.55-0.55
		c0.31,0,0.55,0.25,0.55,0.55v1.85C540.16,62.76,539.22,63.69,538.08,63.69z"/>
</g>
<g>
	<path class="st7" d="M553.51,252.34h-45.15c-1.58,0-2.87-1.29-2.87-2.87v-30.6c0-1.58,1.29-2.87,2.87-2.87h45.15
		c1.58,0,2.87,1.29,2.87,2.87v30.6C556.38,251.05,555.09,252.34,553.51,252.34z M508.36,217.17c-0.93,0-1.69,0.76-1.69,1.69v30.6
		c0,0.93,0.76,1.69,1.69,1.69h45.15c0.93,0,1.69-0.76,1.69-1.69v-30.6c0-0.93-0.76-1.69-1.69-1.69H508.36z"/>
	<path class="st7" d="M506.08,223.88c-0.33,0-0.59-0.26-0.59-0.59l0-0.5c-0.02-3.48-0.07-11.62,6.19-11.99l33.68,0
		c3.2,0,5.37,1.75,6.27,5.07c0.09,0.31-0.1,0.64-0.41,0.72c-0.32,0.09-0.64-0.1-0.72-0.41c-0.77-2.82-2.45-4.2-5.14-4.2h-33.65
		c-4.5,0.27-5.08,5.62-5.05,10.81l0,0.51C506.67,223.61,506.41,223.88,506.08,223.88z"/>
	<path class="st7" d="M555.49,231.4C555.48,231.4,555.48,231.4,555.49,231.4l-9.64-0.14c-0.33,0-0.59-0.27-0.58-0.6
		c0-0.32,0.27-0.58,0.59-0.58c0,0,0.01,0,0.01,0l9.63,0.14c0.33,0,0.59,0.27,0.58,0.6C556.07,231.15,555.81,231.4,555.49,231.4z"/>
	<path class="st7" d="M545.86,238.28c-0.32,0-0.59-0.26-0.59-0.58c0-0.33,0.26-0.59,0.58-0.6l9.51-0.1c0,0,0,0,0.01,0
		c0.32,0,0.59,0.26,0.59,0.58c0,0.33-0.26,0.59-0.58,0.6L545.86,238.28C545.86,238.28,545.86,238.28,545.86,238.28z"/>
	<path class="st7" d="M545.86,238.28c-2.26,0-4.09-1.84-4.09-4.09s1.84-4.09,4.09-4.09c2.26,0,4.09,1.84,4.09,4.09
		S548.11,238.28,545.86,238.28z M545.86,231.27c-1.61,0-2.92,1.31-2.92,2.92s1.31,2.92,2.92,2.92s2.92-1.31,2.92-2.92
		S547.47,231.27,545.86,231.27z"/>
</g>
<g>
	<g>
		<path class="st1" d="M546.82,407.02h-34.93c-2.8,0-5.08-2.28-5.08-5.08v-41.52c0-2.8,2.28-5.08,5.08-5.08h31.96
			c2.8,0,5.08,2.28,5.08,5.08v12.51c0,0.33-0.27,0.59-0.59,0.59c-0.33,0-0.59-0.27-0.59-0.59v-12.51c0-2.15-1.75-3.89-3.89-3.89
			h-31.96c-2.15,0-3.89,1.75-3.89,3.89v41.52c0,2.15,1.75,3.89,3.89,3.89h34.93c0.33,0,0.59,0.27,0.59,0.59
			C547.41,406.76,547.14,407.02,546.82,407.02z"/>
		<path class="st8" d="M534.96,380.65"/>
	</g>
	<g>
		<path class="st1" d="M559.96,401.54h-24.76c-1.71,0-3.11-1.39-3.11-3.11v-17.38c0-1.71,1.39-3.11,3.11-3.11h24.76
			c1.71,0,3.11,1.39,3.11,3.11v17.38C563.07,400.15,561.67,401.54,559.96,401.54z M535.19,379.13c-1.06,0-1.92,0.86-1.92,1.92v17.38
			c0,1.06,0.86,1.92,1.92,1.92h24.76c1.06,0,1.92-0.86,1.92-1.92v-17.38c0-1.06-0.86-1.92-1.92-1.92H535.19z"/>
	</g>
	<path class="st1" d="M542.84,389.43c-1.83,0-3.32-1.49-3.32-3.32c0-1.83,1.49-3.32,3.32-3.32c1.83,0,3.32,1.49,3.32,3.32
		C546.16,387.94,544.67,389.43,542.84,389.43z M542.84,383.98c-1.17,0-2.13,0.95-2.13,2.13c0,1.17,0.95,2.13,2.13,2.13
		s2.13-0.95,2.13-2.13C544.97,384.94,544.01,383.98,542.84,383.98z"/>
	<g>
		<path class="st1" d="M547.56,396.62c-0.33,0-0.59-0.27-0.59-0.59c0-2.27-1.85-4.12-4.12-4.12s-4.12,1.85-4.12,4.12
			c0,0.33-0.27,0.59-0.59,0.59c-0.33,0-0.59-0.27-0.59-0.59c0-2.93,2.38-5.31,5.31-5.31c2.93,0,5.31,2.38,5.31,5.31
			C548.15,396.35,547.88,396.62,547.56,396.62z"/>
	</g>
	<path class="st1" d="M557.94,385.66h-7.26c-0.33,0-0.59-0.27-0.59-0.59c0-0.33,0.27-0.59,0.59-0.59h7.26
		c0.33,0,0.59,0.27,0.59,0.59C558.54,385.4,558.27,385.66,557.94,385.66z"/>
	<path class="st1" d="M557.92,389.64h-7.26c-0.33,0-0.59-0.27-0.59-0.59c0-0.33,0.27-0.59,0.59-0.59h7.26
		c0.33,0,0.59,0.27,0.59,0.59C558.51,389.38,558.24,389.64,557.92,389.64z"/>
	<path class="st1" d="M542.19,366.76h-28.63c-2.05,0-3.66-2.27-3.66-5.16v-4.48c0-0.33,0.27-0.59,0.59-0.59
		c0.33,0,0.59,0.27,0.59,0.59v4.48c0,2.15,1.13,3.97,2.47,3.97h28.63c1.34,0,2.47-1.82,2.47-3.97v-4.82c0-0.33,0.27-0.59,0.59-0.59
		c0.33,0,0.59,0.27,0.59,0.59v4.82C545.85,364.49,544.24,366.76,542.19,366.76z"/>
	<g>
		<path class="st1" d="M526.63,371.43c-0.33,0-0.59-0.27-0.59-0.59v-4.89c0-0.33,0.27-0.59,0.59-0.59c0.33,0,0.59,0.27,0.59,0.59
			v4.89C527.22,371.17,526.96,371.43,526.63,371.43z"/>
		<path class="st1" d="M530.05,371.43c-0.33,0-0.59-0.27-0.59-0.59v-4.89c0-0.33,0.27-0.59,0.59-0.59s0.59,0.27,0.59,0.59v4.89
			C530.64,371.17,530.38,371.43,530.05,371.43z"/>
		<path class="st1" d="M528.33,373.61c-1.3,0-2.37-1.06-2.37-2.36c0-1.3,1.06-2.36,2.37-2.36s2.36,1.06,2.36,2.36
			C530.69,372.55,529.63,373.61,528.33,373.61z M528.33,370.07c-0.65,0-1.18,0.53-1.18,1.18c0,0.65,0.53,1.18,1.18,1.18
			c0.65,0,1.18-0.53,1.18-1.18C529.5,370.6,528.98,370.07,528.33,370.07z"/>
	</g>
	<g>
		<path class="st1" d="M530.03,367.01c-0.33,0-0.59-0.27-0.59-0.59v-4.89c0-0.33,0.27-0.59,0.59-0.59c0.33,0,0.59,0.27,0.59,0.59
			v4.89C530.62,366.75,530.36,367.01,530.03,367.01z"/>
		<path class="st1" d="M526.61,367.01c-0.33,0-0.59-0.27-0.59-0.59v-4.89c0-0.33,0.27-0.59,0.59-0.59s0.59,0.27,0.59,0.59v4.89
			C527.21,366.75,526.94,367.01,526.61,367.01z"/>
		<path class="st1" d="M528.33,363.48c-1.3,0-2.37-1.06-2.37-2.36c0-1.3,1.06-2.36,2.37-2.36s2.36,1.06,2.36,2.36
			C530.69,362.42,529.63,363.48,528.33,363.48z M528.33,359.94c-0.65,0-1.18,0.53-1.18,1.18c0,0.65,0.53,1.18,1.18,1.18
			c0.65,0,1.18-0.53,1.18-1.18C529.5,360.47,528.98,359.94,528.33,359.94z"/>
	</g>
</g>
<g>
	<path class="st1" d="M362.21,383.89c-0.08,0-0.15-0.02-0.23-0.05l-10.64-4.77c-1.04-0.43-1.69-1.41-1.69-2.55
		c0-1.14,0.65-2.11,1.7-2.55l28.25-11.76c0.68-0.28,1.46-0.28,2.14,0.01l27.78,11.74c1.05,0.44,1.69,1.42,1.69,2.56
		c0,1.13-0.66,2.11-1.71,2.54l-9.78,4.42c-0.28,0.13-0.61,0-0.73-0.28c-0.13-0.28,0-0.61,0.28-0.73l9.8-4.42
		c0.77-0.32,1.04-1,1.04-1.53c0-0.53-0.26-1.22-1.01-1.53l-27.78-11.74c-0.41-0.17-0.88-0.17-1.28,0L351.79,375
		c-0.75,0.31-1.02,1-1.02,1.53c0,0.53,0.27,1.22,1.02,1.53l10.65,4.77c0.28,0.13,0.4,0.45,0.28,0.73
		C362.62,383.77,362.42,383.89,362.21,383.89z"/>
	<path class="st1" d="M399.5,393.48c-0.31,0-0.55-0.25-0.55-0.55v-9.95c0-0.31,0.25-0.55,0.55-0.55s0.55,0.25,0.55,0.55v9.95
		C400.05,393.23,399.81,393.48,399.5,393.48z"/>
	<path class="st1" d="M362.64,393.49c-0.29,0-0.54-0.23-0.55-0.53l-0.43-9.69c-0.01-0.31,0.22-0.56,0.53-0.58
		c0.35-0.03,0.56,0.22,0.58,0.53l0.43,9.69c0.01,0.31-0.22,0.56-0.53,0.58C362.65,393.49,362.64,393.49,362.64,393.49z"/>
	<path class="st1" d="M405.24,398.44c-0.31,0-0.55-0.25-0.55-0.55v-10.15c0-2.61-0.22-5.33-1.89-5.62c-0.3-0.05-0.5-0.34-0.45-0.64
		c0.05-0.3,0.35-0.5,0.64-0.45c2.8,0.5,2.8,4.7,2.8,6.71v10.15C405.8,398.19,405.55,398.44,405.24,398.44z"/>
	<path class="st1" d="M405.27,403.29c-1.61,0-2.92-1.31-2.92-2.92c0-1.61,1.31-2.92,2.92-2.92c1.61,0,2.92,1.31,2.92,2.92
		C408.19,401.98,406.88,403.29,405.27,403.29z M405.27,398.56c-1,0-1.81,0.81-1.81,1.81c0,1,0.81,1.81,1.81,1.81
		c1,0,1.81-0.81,1.81-1.81C407.08,399.38,406.27,398.56,405.27,398.56z"/>
	<path class="st1" d="M381.1,398.67c-9.19,0-18.96-1.88-18.96-5.35c0-3.48,9.77-5.35,18.96-5.35s18.96,1.88,18.96,5.35
		C400.06,396.8,390.29,398.67,381.1,398.67z M381.1,389.07c-11.06,0-17.85,2.47-17.85,4.25c0,1.77,6.79,4.25,17.85,4.25
		s17.85-2.47,17.85-4.25C398.95,391.55,392.16,389.07,381.1,389.07z"/>
</g>
<g>
	<path class="st6" d="M211.64,105.98h-9.24c-0.54,0-0.99-0.44-0.99-0.99V88.34c0-0.54,0.44-0.99,0.99-0.99h9.24
		c0.55,0,0.99,0.44,0.99,0.99v16.65C212.63,105.53,212.19,105.98,211.64,105.98z M202.57,104.82h8.9V88.51h-8.9V104.82z"/>
	<path class="st6" d="M201.56,97.45c-0.13,0-0.26-0.04-0.36-0.13c-1.74-1.4-2.73-3.47-2.73-5.7V60.85c0-1.6,1.3-2.9,2.9-2.9h44.04
		c1.6,0,2.9,1.3,2.9,2.9v16.58c0,0.32-0.26,0.58-0.58,0.58c-0.32,0-0.58-0.26-0.58-0.58V60.85c0-0.96-0.78-1.74-1.74-1.74h-44.04
		c-0.96,0-1.74,0.78-1.74,1.74v30.77c0,1.87,0.84,3.62,2.3,4.8c0.25,0.2,0.29,0.56,0.09,0.81C201.9,97.38,201.73,97.45,201.56,97.45
		z"/>
	<path class="st6" d="M230.28,98.93h-16.86c-0.32,0-0.58-0.26-0.58-0.58c0-0.32,0.26-0.58,0.58-0.58h16.86
		c0.32,0,0.58,0.26,0.58,0.58C230.86,98.67,230.6,98.93,230.28,98.93z"/>
	<path class="st6" d="M229.8,105.87H217.1c-0.32,0-0.58-0.26-0.58-0.58c0-0.32,0.26-0.58,0.58-0.58h12.71
		c0.32,0,0.58,0.26,0.58,0.58C230.38,105.61,230.12,105.87,229.8,105.87z"/>
	<g>
		<path class="st6" d="M225.17,105.78c-0.32,0-0.58-0.26-0.58-0.58v-6.35c0-0.32,0.26-0.58,0.58-0.58s0.58,0.26,0.58,0.58v6.35
			C225.74,105.52,225.49,105.78,225.17,105.78z"/>
		<path class="st6" d="M221.61,105.78c-0.32,0-0.58-0.26-0.58-0.58v-6.35c0-0.32,0.26-0.58,0.58-0.58c0.32,0,0.58,0.26,0.58,0.58
			v6.35C222.19,105.52,221.93,105.78,221.61,105.78z"/>
	</g>
	<g>
		<path class="st6" d="M223.37,65.97c-1.27,0-2.3-1.03-2.3-2.3s1.03-2.3,2.3-2.3c1.27,0,2.3,1.03,2.3,2.3S224.64,65.97,223.37,65.97
			z M223.37,62.52c-0.63,0-1.14,0.51-1.14,1.14c0,0.63,0.51,1.14,1.14,1.14c0.63,0,1.14-0.51,1.14-1.14
			C224.51,63.03,224,62.52,223.37,62.52z"/>
	</g>
	<path class="st6" d="M263.94,105.87h-28.79c-0.32,0-0.58-0.26-0.58-0.58c0-0.32,0.26-0.58,0.58-0.58h28.79
		c0.32,0,0.58,0.26,0.58,0.58C264.52,105.61,264.26,105.87,263.94,105.87z"/>
	<g>
		<path class="st6" d="M262.26,102.96h-26.33c-1.18,0-2.14-0.96-2.14-2.14V83.04c0-1.18,0.96-2.14,2.14-2.14h26.33
			c1.18,0,2.14,0.96,2.14,2.14v17.77C264.39,102,263.43,102.96,262.26,102.96z M235.93,82.06c-0.54,0-0.98,0.44-0.98,0.98v17.77
			c0,0.54,0.44,0.98,0.98,0.98h26.33c0.54,0,0.98-0.44,0.98-0.98V83.04c0-0.54-0.44-0.98-0.98-0.98H235.93z"/>
	</g>
</g>
<g>
	<path class="st1" d="M100.97,243.45H64.54c-3.13,0-5.67-2.19-5.67-4.88v-19.26c0-2.69,2.54-4.88,5.67-4.88l35.63,3.14
		c6.12,0.95,6.56,5.04,6.55,6.27l-0.08,14.73C106.64,241.26,104.1,243.45,100.97,243.45z M64.49,215.54c-2.47,0-4.51,1.69-4.51,3.77
		v19.26c0,2.08,2.05,3.77,4.56,3.77h36.43c2.51,0,4.56-1.69,4.56-3.77l0.08-14.74c0.01-1.29-0.51-4.38-5.58-5.16L64.49,215.54z"/>
	<path class="st1" d="M98.92,256.3c-2.12,0-3.84-1.72-3.84-3.84s1.72-3.84,3.84-3.84s3.84,1.72,3.84,3.84S101.04,256.3,98.92,256.3z
		 M98.92,249.72c-1.51,0-2.74,1.23-2.74,2.74s1.23,2.74,2.74,2.74c1.51,0,2.74-1.23,2.74-2.74S100.43,249.72,98.92,249.72z"/>
	<path class="st1" d="M64.86,256.3c-2.12,0-3.84-1.72-3.84-3.84s1.72-3.84,3.84-3.84c2.12,0,3.84,1.72,3.84,3.84
		S66.98,256.3,64.86,256.3z M64.86,249.72c-1.51,0-2.74,1.23-2.74,2.74s1.23,2.74,2.74,2.74c1.51,0,2.74-1.23,2.74-2.74
		S66.37,249.72,64.86,249.72z"/>
	<path class="st1" d="M59.38,220.07c-0.31,0-0.55-0.25-0.55-0.55v-10.15c0-2.61-0.22-5.33-1.89-5.62c-0.3-0.05-0.5-0.34-0.45-0.64
		c0.05-0.3,0.35-0.5,0.64-0.45c2.8,0.5,2.8,4.7,2.8,6.71v10.15C59.94,219.82,59.69,220.07,59.38,220.07z"/>
	<path class="st1" d="M82.94,249.76c-8.31,0-17.19-0.05-19.41-0.23c-4.85-0.4-4.59-9.48-4.58-9.86c0.01-0.3,0.27-0.56,0.57-0.53
		c0.31,0.01,0.54,0.27,0.53,0.57c-0.08,2.34,0.41,8.46,3.56,8.72c4.3,0.36,34.98,0.18,35.29,0.18c0,0,0,0,0,0
		c0.3,0,0.55,0.25,0.55,0.55c0,0.31-0.24,0.55-0.55,0.56C98.3,249.72,90.88,249.76,82.94,249.76z"/>
</g>
<g>
	<g>
		<path class="st1" d="M81.8,105.54c-0.11,0-0.23-0.04-0.33-0.11L62.01,91.09c-0.39-0.29-0.77-0.59-1.14-0.91
			c-1.84-1.61-3.59-3.23-4.66-5.4c-0.44-0.88-0.79-1.8-1.04-2.74c-1.19-4.42-0.41-8.96,2.14-12.46c2.45-3.35,6.22-5.31,10.62-5.51
			c0.25-0.01,0.51-0.02,0.76-0.02c0.3-0.01,8.06-0.14,13.41,5.62c0.21,0.22,0.2,0.57-0.03,0.78c-0.22,0.21-0.57,0.2-0.78-0.03
			c-5.01-5.39-12.53-5.28-12.59-5.27c-0.25,0-0.49,0.01-0.73,0.02c-4.06,0.18-7.53,1.98-9.78,5.05c-2.35,3.22-3.07,7.42-1.97,11.52
			c0.23,0.86,0.56,1.72,0.96,2.54c0.98,1.98,2.64,3.52,4.39,5.06c0.34,0.3,0.7,0.59,1.07,0.86l19.47,14.35
			c0.25,0.18,0.3,0.53,0.12,0.77C82.14,105.47,81.97,105.54,81.8,105.54z"/>
		<path class="st1" d="M81.86,105.54c-0.17,0-0.34-0.08-0.45-0.22c-0.18-0.25-0.13-0.59,0.12-0.77L101,90.2
			c0.37-0.27,0.72-0.56,1.07-0.86c1.76-1.53,3.42-3.07,4.4-5.06c0.41-0.82,0.73-1.67,0.96-2.54c1.11-4.1,0.39-8.3-1.97-11.52
			c-2.25-3.08-5.72-4.87-9.78-5.05c-0.24-0.01-0.48-0.02-0.72-0.02c-0.1,0-7.6-0.12-12.6,5.27c-0.21,0.23-0.56,0.24-0.78,0.03
			c-0.22-0.21-0.24-0.56-0.03-0.78c5.35-5.76,13.09-5.63,13.43-5.62c0.22,0,0.5,0.01,0.75,0.02c4.4,0.2,8.17,2.15,10.62,5.51
			c2.55,3.49,3.33,8.04,2.14,12.46c-0.25,0.93-0.6,1.85-1.04,2.74c-1.07,2.17-2.81,3.79-4.66,5.4c-0.37,0.32-0.75,0.62-1.14,0.91
			l-19.47,14.35C82.09,105.51,81.98,105.54,81.86,105.54z"/>
	</g>
	<g>
		<path class="st1" d="M95.62,82.4c-0.31,0-0.55-0.25-0.55-0.55v-7.84c0-0.31,0.25-0.55,0.55-0.55s0.55,0.25,0.55,0.55v7.84
			C96.18,82.16,95.93,82.4,95.62,82.4z"/>
		<path class="st1" d="M99.36,78.48h-7.79c-0.31,0-0.55-0.25-0.55-0.55s0.25-0.55,0.55-0.55h7.79c0.31,0,0.55,0.25,0.55,0.55
			S99.67,78.48,99.36,78.48z"/>
	</g>
	<path class="st1" d="M95.56,85.66c-4.22,0-7.65-3.43-7.65-7.65c0-4.22,3.43-7.65,7.65-7.65s7.65,3.43,7.65,7.65
		C103.21,82.23,99.78,85.66,95.56,85.66z M95.56,71.47c-3.61,0-6.55,2.94-6.55,6.55c0,3.61,2.94,6.55,6.55,6.55
		c3.61,0,6.55-2.94,6.55-6.55C102.11,74.4,99.17,71.47,95.56,71.47z"/>
</g>
<g>
	<g>
		<path class="st1" d="M253.54,400.14h-44.78c-1.9,0-3.44-1.54-3.44-3.44v-29.99c0-1.9,1.54-3.44,3.44-3.44h44.78
			c1.9,0,3.44,1.54,3.44,3.44v29.99C256.98,398.59,255.43,400.14,253.54,400.14z M208.75,364.36c-1.29,0-2.34,1.05-2.34,2.35v29.99
			c0,1.29,1.05,2.35,2.34,2.35h44.78c1.29,0,2.35-1.05,2.35-2.35v-29.99c0-1.29-1.05-2.35-2.35-2.35H208.75z"/>
	</g>
	<g>
		<path class="st1" d="M221.35,384.19c-0.11,0-0.23-0.03-0.33-0.11l-6.15-4.53c-0.13-0.1-0.26-0.2-0.38-0.31
			c-0.61-0.53-1.19-1.08-1.56-1.82c-0.15-0.3-0.27-0.62-0.35-0.93c-0.41-1.51-0.14-3.06,0.74-4.25c0.84-1.15,2.13-1.82,3.64-1.89
			c0.08,0,0.17-0.01,0.26-0.01c0.1,0,2.7-0.05,4.51,1.9c0.21,0.22,0.19,0.57-0.03,0.78c-0.22,0.21-0.57,0.19-0.77-0.03
			c-1.46-1.57-3.65-1.54-3.69-1.55l-0.22,0c-1.17,0.05-2.16,0.56-2.8,1.44c-0.68,0.93-0.88,2.14-0.56,3.32
			c0.07,0.25,0.16,0.49,0.28,0.73c0.28,0.56,0.77,1.02,1.3,1.48c0.1,0.09,0.21,0.17,0.31,0.25l6.15,4.53
			c0.24,0.18,0.3,0.52,0.12,0.77C221.68,384.11,221.52,384.19,221.35,384.19z"/>
		<path class="st1" d="M221.37,384.19c-0.17,0-0.33-0.08-0.44-0.22c-0.18-0.24-0.13-0.59,0.12-0.77l6.15-4.53
			c0.11-0.08,0.21-0.16,0.32-0.25c0.53-0.46,1.02-0.92,1.3-1.48c0.12-0.24,0.21-0.48,0.28-0.73c0.32-1.18,0.11-2.39-0.56-3.32
			c-0.64-0.88-1.64-1.39-2.8-1.44l-0.21,0c-0.01,0.01-2.24-0.03-3.71,1.55c-0.21,0.22-0.55,0.23-0.78,0.03
			c-0.22-0.21-0.23-0.55-0.03-0.78c1.81-1.94,4.43-1.9,4.53-1.9c0.07-0.01,0.16,0,0.25,0.01c1.5,0.07,2.79,0.74,3.64,1.89
			c0.87,1.2,1.14,2.75,0.74,4.25c-0.09,0.32-0.21,0.64-0.35,0.93c-0.37,0.74-0.95,1.29-1.56,1.82c-0.12,0.11-0.25,0.21-0.38,0.31
			l-6.15,4.53C221.59,384.15,221.48,384.19,221.37,384.19z"/>
	</g>
	<path class="st1" d="M256.26,392.43h-50.05c-0.3,0-0.55-0.25-0.55-0.55c0-0.3,0.25-0.55,0.55-0.55h50.05c0.3,0,0.55,0.25,0.55,0.55
		C256.81,392.18,256.57,392.43,256.26,392.43z"/>
</g>
<g>
	<g>
		<defs>
			<path id="SVGID_1_" d="M381.34,105.98c-5.04,0-9.95-1.53-14.19-4.48c-5.47-3.81-9.13-9.51-10.31-16.05
				c-2.43-13.53,6.6-26.52,20.13-28.95c4.66-0.84,9.43-0.34,13.8,1.45c0.35,0.14,0.52,0.54,0.37,0.89
				c-0.14,0.35-0.55,0.51-0.89,0.37c-4.13-1.69-8.65-2.16-13.05-1.37c-12.79,2.3-21.33,14.57-19.03,27.37
				c1.11,6.19,4.57,11.57,9.75,15.17c5.17,3.6,11.43,4.97,17.62,3.86c12.79-2.3,21.33-14.57,19.03-27.37
				c-0.07-0.37,0.18-0.72,0.55-0.79c0.38-0.06,0.72,0.18,0.79,0.55c2.43,13.53-6.6,26.52-20.13,28.95
				C384.31,105.84,382.82,105.98,381.34,105.98z"/>
		</defs>
		<use xlink:href="#SVGID_1_"  style="overflow:visible;fill:#333332;"/>
		<clipPath id="SVGID_2_">
			<use xlink:href="#SVGID_1_"  style="overflow:visible;"/>
		</clipPath>
	</g>
	<path class="st1" d="M379.66,87.99l-9.35-9.35c-0.27-0.27-0.27-0.7,0-0.96c0.27-0.27,0.7-0.27,0.96,0l8.39,8.39l21.34-21.34
		c0.27-0.27,0.7-0.27,0.96,0c0.27,0.27,0.27,0.7,0,0.96L379.66,87.99z"/>
</g>
<g>
	<path class="st6" d="M220.97,701.68h-4.32c-1.26,0-2.28-0.86-2.28-1.92v-4.75h1.22v4.75c0,0.37,0.5,0.7,1.06,0.7h4.32
		c0.56,0,1.06-0.33,1.06-0.7h1.22C223.25,700.82,222.23,701.68,220.97,701.68z"/>
	<path class="st6" d="M231.96,690.54c-4.37,0-7.92-3.3-7.92-7.36c0-4.06,3.55-7.36,7.92-7.36c4.37,0,7.92,3.3,7.92,7.36
		C239.88,687.24,236.32,690.54,231.96,690.54z M231.96,677.04c-3.7,0-6.7,2.76-6.7,6.14c0,3.39,3.01,6.14,6.7,6.14
		c3.7,0,6.7-2.76,6.7-6.14C238.66,679.79,235.65,677.04,231.96,677.04z"/>
	<path class="st6" d="M222.23,659.95l-0.68-1.01c2.96-1.99,6.33-3,10-3c3.64,0,6.88,0.87,9.63,2.58l-0.64,1.04
		c-2.56-1.59-5.58-2.39-8.98-2.39C228.12,657.16,224.98,658.1,222.23,659.95z"/>
	<path class="st6" d="M251.94,667.87l-1.03-0.65c1.18-1.87,1.65-4.6,1.16-6.65c-0.17-0.71-0.55-1.66-1.36-2.14
		c-2.15-1.26-5.35,0-7.13,2.82l-1.03-0.65c2.12-3.37,6.06-4.81,8.77-3.22c0.93,0.55,1.6,1.55,1.93,2.9
		C253.82,662.66,253.3,665.71,251.94,667.87z"/>
	<rect x="229.01" y="681.17" class="st6" width="1.22" height="4.3"/>
	<rect x="233.18" y="681.18" class="st6" width="1.22" height="4.3"/>
	<path class="st6" d="M210.73,668.13c-1.36-2.16-1.89-5.21-1.31-7.59c0.33-1.35,1-2.36,1.93-2.9c2.71-1.59,6.65-0.15,8.77,3.22
		l-1.03,0.65c-1.78-2.82-4.97-4.08-7.13-2.82c-0.81,0.47-1.18,1.42-1.36,2.14c-0.5,2.04-0.02,4.78,1.16,6.65L210.73,668.13z"/>
	<path class="st6" d="M245.44,701.68h-4.32c-1.26,0-2.28-0.86-2.28-1.92h1.22c0,0.37,0.49,0.7,1.06,0.7h4.32
		c0.56,0,1.06-0.33,1.06-0.7v-4.75h1.22v4.75C247.72,700.82,246.7,701.68,245.44,701.68z"/>
	<g>
		<path class="st6" d="M222.58,669.95c-0.53,0-0.96,0.43-0.96,0.96s0.43,0.97,0.96,0.97c0.53,0,0.96-0.43,0.96-0.97
			S223.11,669.95,222.58,669.95z"/>
	</g>
	<g>
		<path class="st6" d="M239.09,669.95c-0.53,0-0.97,0.43-0.97,0.96s0.43,0.97,0.97,0.97c0.53,0,0.96-0.43,0.96-0.97
			S239.62,669.95,239.09,669.95z"/>
	</g>
	<g>
		<g>
			<path class="st6" d="M229.41,652.63c-0.41-0.14-0.75-0.3-1.04-0.49c-0.21-0.14-0.29-0.41-0.18-0.64l0.02-0.03
				c0.13-0.27,0.46-0.36,0.72-0.2c0.23,0.14,0.49,0.26,0.77,0.36c0.5,0.18,1.02,0.27,1.55,0.27c0.7,0,1.22-0.12,1.57-0.36
				c0.35-0.24,0.52-0.55,0.52-0.95c0-0.29-0.09-0.52-0.28-0.7c-0.19-0.18-0.42-0.32-0.7-0.42c-0.28-0.1-0.67-0.2-1.17-0.33
				c-0.63-0.15-1.15-0.31-1.54-0.46c-0.39-0.15-0.72-0.39-1-0.7c-0.28-0.32-0.42-0.74-0.42-1.28c0-0.45,0.12-0.86,0.36-1.22
				c0.24-0.36,0.6-0.65,1.08-0.87c0.48-0.22,1.08-0.33,1.79-0.33c0.5,0,0.99,0.06,1.47,0.19c0.31,0.08,0.58,0.19,0.83,0.31
				c0.24,0.12,0.34,0.4,0.24,0.64l-0.02,0.05c-0.11,0.26-0.41,0.39-0.67,0.26c-0.22-0.11-0.44-0.19-0.68-0.26
				c-0.4-0.12-0.8-0.17-1.18-0.17c-0.68,0-1.19,0.12-1.54,0.37c-0.34,0.25-0.51,0.57-0.51,0.96c0,0.29,0.1,0.52,0.29,0.7
				c0.19,0.18,0.43,0.32,0.72,0.42c0.28,0.1,0.67,0.21,1.16,0.32c0.63,0.15,1.14,0.31,1.53,0.46c0.39,0.15,0.72,0.39,0.99,0.7
				s0.42,0.73,0.42,1.26c0,0.44-0.12,0.85-0.36,1.21c-0.24,0.37-0.61,0.65-1.1,0.87c-0.49,0.21-1.09,0.32-1.81,0.32
				C230.61,652.93,230,652.83,229.41,652.63z"/>
		</g>
		<rect x="230.58" y="652.67" class="st6" width="1.22" height="0.64"/>
		<rect x="230.58" y="643.76" class="st6" width="1.22" height="0.72"/>
	</g>
</g>
<g>
	<g>
		<g>
			<path class="st8" d="M380.73,222.37c-5.04-5.42-10.89-5.11-10.89-5.11c-0.24,0-0.48,0.01-0.71,0.02
				c-8.94,0.4-13.93,8.55-11.76,16.58c0.19,0.7,0.43,1.38,0.72,2.03c0.08,0.17,0.15,0.34,0.24,0.5l6.71,13.25
				c1.65,3.25,5.12,5.28,8.74,4.86c0.18-0.02,0.36-0.05,0.54-0.08c1.94-0.33,4.49-0.92,6.64-1.89"/>
		</g>
		<path class="st8" d="M380.82,218.93c0.15-4.2,3.42-9.83,10.08-8.49"/>
		<path class="st8" d="M373.19,213.9c-1.57-1.93-2.43-5.22-1.17-6.25c1.26-1.03,4.17,0.59,5.74,2.53c1.57,1.93,1.82,4.33,0.56,5.36
			C377.06,216.56,374.76,215.83,373.19,213.9z"/>
	</g>
	<g>
		<path class="st8" d="M380.77,222.36c5.04-5.42,10.89-5.11,10.89-5.11c0.24,0,0.48,0.01,0.71,0.02c8.94,0.4,13.93,8.55,11.76,16.58
			c-0.19,0.7-0.43,1.38-0.72,2.03c-0.08,0.17-0.15,0.34-0.24,0.5l-6.71,13.25c-1.65,3.25-5.12,5.28-8.74,4.86
			c-0.18-0.02-0.36-0.05-0.54-0.08c-1.94-0.33-4.06-0.91-6.21-1.88"/>
	</g>
</g>
<g>
	<path class="st9" d="M354.27,677.05c15.42-15.42,39.85-15.99,55.28-0.57"/>
	<path class="st9" d="M363.84,686.59c10.08-10.08,26.22-10.28,36.05-0.45"/>
	<path class="st9" d="M372.14,694.75c5.51-5.51,14.34-5.62,19.71-0.25"/>
</g>
<g>
	<line class="st8" x1="230.84" y1="514.84" x2="230.84" y2="544.97"/>
	<line class="st8" x1="215.78" y1="529.9" x2="245.91" y2="529.9"/>
</g>
<g>
	<g>
		<line class="st8" x1="82.34" y1="676.27" x2="82.34" y2="683.59"/>
		<path class="st8" d="M74.19,671.02c1.11,0.98,1.22,2.67,0.24,3.78"/>
		<path class="st8" d="M90.3,671.02c1.11,0.98,1.22,2.67,0.24,3.78"/>
		<path class="st8" d="M74.46,688.84c0,0,8.63,5.21,15.76-0.34"/>
	</g>
	<g>
		<g>
			<g>
				<defs>
					<path id="SVGID_3_" d="M82,656.92c-12.71,0-23.05,10.34-23.05,23.05c0,4.4,1.24,8.66,3.59,12.35l-2.54,8.67
						c-0.1,0.28-0.04,0.59,0.17,0.8c0.15,0.15,0.35,0.23,0.55,0.23c0.08,0,0.16-0.01,0.24-0.04l9.03-2.34
						c3.62,2.21,7.76,3.38,12.02,3.38c12.71,0,23.05-10.34,23.05-23.05C105.05,667.26,94.71,656.92,82,656.92z"/>
				</defs>
				<clipPath id="SVGID_4_">
					<use xlink:href="#SVGID_3_"  style="overflow:visible;"/>
				</clipPath>
				<use xlink:href="#SVGID_3_"  style="overflow:visible;fill:none;stroke:#333332;stroke-miterlimit:10;"/>
			</g>
		</g>
	</g>
</g>
<g>
	<circle class="st10" cx="91.32" cy="390.05" r="3.23"/>
	<circle class="st10" cx="99.86" cy="397.85" r="3.23"/>
	<path class="st11" d="M74.45,376.06h-12.8c-1.53,0-2.78-1.25-2.78-2.78v-12.8c0-1.53,1.25-2.78,2.78-2.78h12.8
		c1.53,0,2.78,1.25,2.78,2.78v12.8C77.23,374.81,75.98,376.06,74.45,376.06z"/>
	<path class="st11" d="M71.46,370.82h-6.82c-0.29,0-0.54-0.24-0.54-0.54v-6.82c0-0.29,0.24-0.54,0.54-0.54h6.82
		c0.29,0,0.54,0.24,0.54,0.54v6.82C72,370.58,71.75,370.82,71.46,370.82z"/>
	<path class="st11" d="M102.73,376.06h-12.8c-1.53,0-2.78-1.25-2.78-2.78v-12.8c0-1.53,1.25-2.78,2.78-2.78h12.8
		c1.53,0,2.78,1.25,2.78,2.78v12.8C105.51,374.81,104.26,376.06,102.73,376.06z"/>
	<path class="st11" d="M99.71,370.82h-6.82c-0.29,0-0.54-0.24-0.54-0.54v-6.82c0-0.29,0.24-0.54,0.54-0.54h6.82
		c0.29,0,0.54,0.24,0.54,0.54v6.82C100.25,370.58,100.01,370.82,99.71,370.82z"/>
	<path class="st11" d="M74.45,403.77h-12.8c-1.53,0-2.78-1.25-2.78-2.78v-12.8c0-1.53,1.25-2.78,2.78-2.78h12.8
		c1.53,0,2.78,1.25,2.78,2.78v12.8C77.23,402.52,75.98,403.77,74.45,403.77z"/>
	<path class="st11" d="M71.46,398.53h-6.82c-0.29,0-0.54-0.24-0.54-0.54v-6.82c0-0.29,0.24-0.54,0.54-0.54h6.82
		c0.29,0,0.54,0.24,0.54,0.54V398C72,398.29,71.75,398.53,71.46,398.53z"/>
	<circle class="st10" cx="99.86" cy="390.05" r="3.23"/>
</g>
<g>
	<path class="st9" d="M203.05,228.48c15.42-15.42,39.85-15.99,55.28-0.57"/>
	<path class="st9" d="M212.62,238.02c10.08-10.08,26.22-10.28,36.05-0.45"/>
	<path class="st9" d="M220.92,246.19c5.51-5.51,14.34-5.62,19.71-0.25"/>
</g>
<g>
	<line class="st12" x1="506.43" y1="545.55" x2="557.86" y2="545.55"/>
</g>
<g>
	<defs>
		<path id="SVGID_5_" d="M524.24,521.82c0-4.15,3.37-7.52,7.52-7.52s7.52,3.37,7.52,7.52s-3.37,7.52-7.52,7.52
			C527.61,529.34,524.25,525.97,524.24,521.82z"/>
	</defs>
	<clipPath id="SVGID_6_">
		<use xlink:href="#SVGID_5_"  style="overflow:visible;"/>
	</clipPath>
	<use xlink:href="#SVGID_5_"  style="overflow:visible;fill:none;stroke:#FFFFFF;stroke-miterlimit:10;"/>
</g>
<path class="st1" d="M7.32,605.88V456.21H155.5c0,0,0.59,3.87,0.79,10.42c1.79,60.13-37.23,113.91-94.71,131.65
	C46.02,603.08,27.78,606.33,7.32,605.88z"/>
<g>
	<path class="st1" d="M408.15,547.45c-0.49,0-0.99-0.14-1.42-0.44l-18.14-12.35c-0.27-0.18-0.34-0.55-0.15-0.81
		c0.18-0.27,0.55-0.33,0.81-0.15l18.14,12.35c0.62,0.42,1.47,0.26,1.9-0.36l0.53-0.78c0.2-0.3,0.28-0.66,0.21-1.02
		c-0.07-0.36-0.27-0.67-0.57-0.87l-18.14-12.35c-0.27-0.18-0.34-0.55-0.15-0.81c0.18-0.27,0.55-0.33,0.81-0.15l18.14,12.35
		c0.56,0.38,0.94,0.96,1.06,1.62c0.13,0.67-0.01,1.34-0.39,1.9l-0.53,0.78C409.76,547.06,408.96,547.45,408.15,547.45z"/>
	<path class="st1" d="M384.41,538.58c-0.58,0-1.14-0.17-1.62-0.5l-2.57-1.75c-1.32-0.9-1.66-2.7-0.76-4.02l6.26-9.19
		c0.43-0.64,1.09-1.07,1.85-1.21c0.76-0.14,1.53,0.01,2.17,0.45l2.57,1.75c1.32,0.9,1.66,2.7,0.76,4.02l-6.26,9.19
		c-0.43,0.64-1.09,1.07-1.85,1.21C384.77,538.56,384.59,538.58,384.41,538.58z M388.11,523.03c-0.55,0-1.09,0.26-1.43,0.75
		l-6.26,9.19c-0.53,0.79-0.33,1.86,0.45,2.39l2.57,1.75c0.38,0.26,0.84,0.35,1.29,0.27c0.45-0.09,0.84-0.34,1.1-0.72l6.26-9.19
		c0.53-0.79,0.33-1.86-0.45-2.39l-2.57-1.75C388.78,523.12,388.44,523.03,388.11,523.03z"/>
	<path class="st1" d="M394.44,526.59c-0.32,0-0.65-0.09-0.94-0.29l-6.25-4.26c-0.76-0.52-0.96-1.56-0.44-2.32l0.62-0.91
		c0.25-0.37,0.63-0.62,1.07-0.7c0.44-0.08,0.88,0.01,1.25,0.26l6.25,4.26c0.76,0.52,0.96,1.56,0.44,2.32l-0.62,0.91
		C395.51,526.33,394.98,526.59,394.44,526.59z M388.82,519.25c-0.03,0-0.06,0-0.1,0.01c-0.13,0.03-0.24,0.1-0.32,0.21l-0.62,0.91
		c-0.07,0.11-0.1,0.24-0.08,0.37c0.02,0.13,0.1,0.24,0.21,0.32l6.25,4.26c0.23,0.16,0.54,0.09,0.69-0.13l0.62-0.91
		c0.15-0.23,0.1-0.54-0.13-0.69l-6.25-4.26C389.01,519.28,388.92,519.25,388.82,519.25z"/>
	<path class="st1" d="M383.32,542.91c-0.33,0-0.66-0.1-0.94-0.29l-6.25-4.26c-0.37-0.25-0.62-0.63-0.7-1.07
		c-0.08-0.44,0.01-0.88,0.26-1.25l0.62-0.91c0.25-0.37,0.63-0.62,1.07-0.7c0.44-0.09,0.88,0.01,1.25,0.26l6.25,4.26
		c0.37,0.25,0.62,0.63,0.7,1.07s-0.01,0.88-0.26,1.25l-0.62,0.91c-0.25,0.37-0.63,0.62-1.07,0.7
		C383.53,542.9,383.43,542.91,383.32,542.91z M377.7,535.58c-0.03,0-0.06,0-0.1,0.01c-0.13,0.02-0.24,0.1-0.32,0.21l-0.62,0.91
		c-0.07,0.11-0.1,0.24-0.08,0.37c0.03,0.13,0.1,0.24,0.21,0.32l6.25,4.26c0.11,0.07,0.24,0.1,0.37,0.08
		c0.13-0.03,0.24-0.1,0.32-0.21l0.62-0.91c0.07-0.11,0.1-0.24,0.08-0.37c-0.03-0.13-0.1-0.25-0.21-0.32l-6.25-4.26
		C377.9,535.61,377.8,535.58,377.7,535.58z"/>
	<path class="st1" d="M397.99,550.92c-0.35,0-0.72-0.01-1.11-0.01c-0.41-0.01-0.83-0.01-1.27-0.01h-36.07
		c-3.87,0-7.03-3.15-7.03-7.03v-27.48c0-3.87,3.15-7.03,7.03-7.03H396c3.87,0,7.03,3.15,7.03,7.03v16.9c0,0.32-0.26,0.59-0.59,0.59
		s-0.59-0.26-0.59-0.59v-16.9c0-3.23-2.63-5.85-5.85-5.85h-36.45c-3.23,0-5.85,2.63-5.85,5.85v27.48c0,3.23,2.63,5.85,5.85,5.85
		h36.07c0.45,0,0.88,0.01,1.29,0.01c1.83,0.03,3.28,0.06,3.91-0.61c0.36-0.38,0.51-1.04,0.45-2.01c-0.02-0.32,0.22-0.6,0.55-0.62
		c0.31-0.03,0.6,0.22,0.62,0.55c0.08,1.32-0.17,2.27-0.77,2.9C400.86,550.78,399.59,550.92,397.99,550.92z"/>
	<path class="st1" d="M355.54,511.54c-0.32,0-0.59-0.26-0.59-0.59v-3.69c0-1.01,0.82-1.82,1.82-1.82h9.12
		c1.01,0,1.82,0.82,1.82,1.82v2.34c0,0.32-0.26,0.59-0.59,0.59c-0.32,0-0.59-0.26-0.59-0.59v-2.34c0-0.36-0.29-0.65-0.65-0.65h-9.12
		c-0.36,0-0.65,0.29-0.65,0.65v3.69C356.13,511.27,355.87,511.54,355.54,511.54z"/>
	<path class="st1" d="M378.75,510.18c-0.32,0-0.59-0.26-0.59-0.59v-2.34c0-0.36-0.29-0.65-0.65-0.65h-9.12
		c-0.36,0-0.65,0.29-0.65,0.65v2.34c0,0.32-0.26,0.59-0.59,0.59c-0.32,0-0.59-0.26-0.59-0.59v-2.34c0-1.01,0.82-1.82,1.82-1.82h9.12
		c1.01,0,1.82,0.82,1.82,1.82v2.34C379.34,509.92,379.07,510.18,378.75,510.18z"/>
</g>
<g>
	<g>
		<path class="st6" d="M104.38,549.12H59.46c-1.84,0-3.35-1.5-3.35-3.34v-32.32c0-1.84,1.5-3.35,3.35-3.35h44.91
			c1.84,0,3.35,1.5,3.35,3.35v32.32C107.72,547.62,106.22,549.12,104.38,549.12z M59.46,511.31c-1.18,0-2.15,0.96-2.15,2.15v32.32
			c0,1.18,0.96,2.15,2.15,2.15h44.91c1.18,0,2.15-0.96,2.15-2.15v-32.32c0-1.18-0.96-2.15-2.15-2.15H59.46z"/>
	</g>
	<g>
		<path class="st6" d="M72.89,528.99c-2.87,0-5.21-2.33-5.21-5.21c0-2.87,2.33-5.21,5.21-5.21s5.21,2.33,5.21,5.21
			C78.1,526.65,75.76,528.99,72.89,528.99z M72.89,519.77c-2.21,0-4.01,1.8-4.01,4.01c0,2.21,1.8,4.01,4.01,4.01s4.01-1.8,4.01-4.01
			C76.9,521.57,75.1,519.77,72.89,519.77z"/>
	</g>
	<g>
		<path class="st6" d="M80.87,539.65c-0.33,0-0.6-0.27-0.6-0.6c0-4.07-3.31-7.38-7.38-7.38s-7.38,3.31-7.38,7.38
			c0,0.33-0.27,0.6-0.6,0.6s-0.6-0.27-0.6-0.6c0-4.73,3.85-8.58,8.58-8.58c4.73,0,8.58,3.85,8.58,8.58
			C81.47,539.38,81.2,539.65,80.87,539.65z"/>
	</g>
	<path class="st6" d="M99.45,525.59H85.68c-0.33,0-0.6-0.27-0.6-0.6s0.27-0.6,0.6-0.6h13.76c0.33,0,0.6,0.27,0.6,0.6
		S99.78,525.59,99.45,525.59z"/>
	<path class="st6" d="M99.39,530.42H85.63c-0.33,0-0.6-0.27-0.6-0.6c0-0.33,0.27-0.6,0.6-0.6h13.76c0.33,0,0.6,0.27,0.6,0.6
		C99.99,530.15,99.72,530.42,99.39,530.42z"/>
</g>
<circle class="st2" cx="531.25" cy="680.34" r="73.49"/>
<g>
	<g>
		<path class="st1" d="M528.9,680.17c-0.35,0-0.64-0.28-0.64-0.64v-5.23c0-0.35,0.28-0.64,0.64-0.64c0.35,0,0.64,0.28,0.64,0.64
			v5.23C529.54,679.89,529.25,680.17,528.9,680.17z"/>
		<path class="st1" d="M532.56,680.17c-0.35,0-0.64-0.28-0.64-0.64v-5.23c0-0.35,0.28-0.64,0.64-0.64c0.35,0,0.64,0.28,0.64,0.64
			v5.23C533.2,679.89,532.91,680.17,532.56,680.17z"/>
		<path class="st1" d="M530.72,682.5c-1.39,0-2.53-1.13-2.53-2.53s1.13-2.53,2.53-2.53s2.53,1.14,2.53,2.53
			S532.12,682.5,530.72,682.5z M530.72,678.72c-0.69,0-1.26,0.56-1.26,1.26c0,0.69,0.56,1.26,1.26,1.26c0.69,0,1.26-0.56,1.26-1.26
			C531.98,679.28,531.42,678.72,530.72,678.72z"/>
	</g>
	<g>
		<path class="st1" d="M532.54,675.44c-0.35,0-0.64-0.28-0.64-0.64v-5.23c0-0.35,0.28-0.64,0.64-0.64c0.35,0,0.64,0.28,0.64,0.64
			v5.23C533.18,675.16,532.89,675.44,532.54,675.44z"/>
		<path class="st1" d="M528.88,675.44c-0.35,0-0.64-0.28-0.64-0.64v-5.23c0-0.35,0.28-0.64,0.64-0.64c0.35,0,0.64,0.28,0.64,0.64
			v5.23C529.52,675.16,529.24,675.44,528.88,675.44z"/>
		<path class="st1" d="M530.72,671.67c-1.39,0-2.53-1.14-2.53-2.53s1.13-2.53,2.53-2.53s2.53,1.13,2.53,2.53
			S532.12,671.67,530.72,671.67z M530.72,667.88c-0.69,0-1.26,0.56-1.26,1.26c0,0.69,0.56,1.26,1.26,1.26
			c0.69,0,1.26-0.56,1.26-1.26C531.98,668.44,531.42,667.88,530.72,667.88z"/>
	</g>
	<path class="st1" d="M556.87,697.09H505c-0.97,0-1.77-0.79-1.77-1.77v-30.7c0-0.97,0.79-1.77,1.77-1.77h51.87
		c0.97,0,1.77,0.79,1.77,1.77v30.7C558.63,696.3,557.84,697.09,556.87,697.09z M505,664.13c-0.27,0-0.49,0.22-0.49,0.49v30.7
		c0,0.27,0.22,0.49,0.49,0.49h51.87c0.27,0,0.49-0.22,0.49-0.49v-30.7c0-0.27-0.22-0.49-0.49-0.49H505z"/>
	<path class="st1" d="M551.21,675.12h-40.49c-2.09,0-3.8-1.85-3.8-4.13v-6.58c0-0.35,0.28-0.64,0.64-0.64s0.64,0.28,0.64,0.64v6.58
		c0,1.58,1.13,2.86,2.53,2.86h40.49c1.39,0,2.53-1.28,2.53-2.86v-6.58c0-0.35,0.28-0.64,0.64-0.64c0.35,0,0.64,0.28,0.64,0.64v6.58
		C555.01,673.27,553.3,675.12,551.21,675.12z"/>
</g>
<path class="st12" d="M546.54,540.92c-1.1-4.2-4.93-7.34-9.47-7.34h-10.23c-4.58,0-8.45,3.19-9.5,7.46"/>
<g>
	<line class="st12" x1="549.41" y1="502.21" x2="549.41" y2="515.4"/>
	<line class="st12" x1="542.81" y1="508.8" x2="556" y2="508.8"/>
</g>
</svg>
