<?xml version="1.0" encoding="UTF-8"?>
<svg width="26px" height="34px" viewBox="0 0 26 34" version="1.1" xmlns="http://www.w3.org/2000/svg" xmlns:xlink="http://www.w3.org/1999/xlink">
    <title>dw-icon-health</title>
    <defs>
        <linearGradient x1="48.0849985%" y1="-20.787977%" x2="48.0849985%" y2="108.230012%" id="linearGradient-1">
            <stop stop-color="#C6D078" offset="0%"></stop>
            <stop stop-color="#DDEF75" offset="100%"></stop>
        </linearGradient>
        <linearGradient x1="48.0849985%" y1="-20.787977%" x2="48.0849985%" y2="108.230012%" id="linearGradient-2">
            <stop stop-color="#C6D078" offset="0%"></stop>
            <stop stop-color="#DDEF75" offset="100%"></stop>
        </linearGradient>
        <linearGradient x1="48.0849985%" y1="-20.787977%" x2="48.0849985%" y2="108.230012%" id="linearGradient-3">
            <stop stop-color="#C6D078" offset="0%"></stop>
            <stop stop-color="#DDEF75" offset="100%"></stop>
        </linearGradient>
    </defs>
    <g id="dw-icon-health" stroke="none" stroke-width="1" fill="none" fill-rule="evenodd">
        <g id="006-health-report-2" fill-rule="nonzero">
            <g id="006-health-report">
                <path d="M24.0884934,2.02771033 L20.1440806,2.00227951 L20.1440806,1.6420096 C20.1463836,1.23170686 19.9820861,0.837314155 19.6873332,0.545596538 C19.3925803,0.253878922 18.9915174,0.0887333444 18.5723771,0.0864912696 L7.44488979,0.0186697767 C6.57137031,0.0163266553 5.86063733,0.706386677 5.85586728,1.56147868 L5.85586728,1.91751012 L1.91578421,1.91751012 C0.959279686,1.91751012 0.183879564,2.67656111 0.183879564,3.61289795 L0.010689099,31.5867971 C0.010689099,32.5231339 0.786089221,33.2821849 1.74259375,33.2821849 L23.915303,33.4135775 C24.8718075,33.4135775 25.6472076,32.6545265 25.6472076,31.7181896 L25.8205336,3.7442905 C25.8261869,3.2909851 25.6462776,2.8542922 25.320853,2.53174699 C24.9954283,2.20920179 24.5515987,2.02767491 24.0884934,2.02771033 L24.0884934,2.02771033 Z M7.15912553,1.56571715 C7.1614914,1.41287932 7.28874208,1.29021663 7.44488979,1.29021663 L18.5680474,1.35803214 C18.7241772,1.36034813 18.8494819,1.48491575 18.8494819,1.63777113 L18.8494819,4.04946031 C18.8494819,4.20161505 18.7234794,4.32496083 18.5680474,4.32496083 L7.44056003,4.25714532 C7.28512805,4.25714532 7.15912553,4.13379954 7.15912553,3.9816448 L7.15912553,1.56571715 Z M24.3309601,31.7012358 C24.3309601,31.93532 24.1371101,32.1250827 23.8979839,32.1250827 L1.7252747,31.9936902 C1.48614857,31.9936902 1.29229854,31.8039274 1.29229854,31.5698432 L1.465489,3.59594407 C1.465489,3.36185986 1.65933903,3.17209711 1.89846516,3.17209711 L5.842878,3.19328946 L5.842878,3.97740633 C5.84057565,4.38844048 6.00546649,4.78347411 6.30115517,5.07531387 C6.59684385,5.36715363 6.99901909,5.5318047 7.41891122,5.53292466 L18.5334093,5.5965017 C18.9528959,5.59988774 19.3564523,5.4394209 19.6547051,5.15063885 C19.9529579,4.8618568 20.1212936,4.46859154 20.1224318,4.05793725 L20.1224318,3.27382038 L24.0625149,3.2992512 C24.301641,3.2992512 24.495491,3.48901395 24.495491,3.72309816 L24.3309601,31.7012358 Z" id="Shape" fill="url(#linearGradient-1)"></path>
                <path d="M9.47121823,12.7467999 L12.2855633,12.7467999 L12.2855633,15.5018051 C12.2855633,15.8529314 12.5763383,16.1375755 12.9350275,16.1375755 C13.2937167,16.1375755 13.5844918,15.8529314 13.5844918,15.5018051 L13.5844918,12.7467999 L16.3988368,12.7467999 C16.757526,12.7467999 17.0483011,12.4621557 17.0483011,12.1110294 C17.0483011,11.7599031 16.757526,11.475259 16.3988368,11.475259 L13.5844918,11.475259 L13.5844918,8.72025377 C13.5844918,8.36912746 13.2937167,8.08448334 12.9350275,8.08448334 C12.5763383,8.08448334 12.2855633,8.36912746 12.2855633,8.72025377 L12.2855633,11.475259 L9.47121823,11.475259 C9.11252903,11.475259 8.82175399,11.7599031 8.82175399,12.1110294 C8.82175399,12.4621557 9.11252903,12.7467999 9.47121823,12.7467999 L9.47121823,12.7467999 Z" id="Path" fill="url(#linearGradient-2)"></path>
                <path d="M20.0401663,18.7442343 L5.751953,18.6594649 C5.39326381,18.6594649 5.10248876,18.944109 5.10248876,19.2952353 C5.10248876,19.6463617 5.39326381,19.9310058 5.751953,19.9310058 L20.0401663,20.0157752 C20.3988555,20.0157752 20.6896306,19.731131 20.6896306,19.3800047 C20.6896306,19.0288784 20.3988555,18.7442343 20.0401663,18.7442343 Z" id="Path" fill="url(#linearGradient-3)"></path>
                <path d="M20.0185175,22.5588569 L5.73030419,22.4740875 C5.371615,22.4740875 5.08083995,22.7587316 5.08083995,23.1098579 C5.08083995,23.4609843 5.371615,23.7456284 5.73030419,23.7456284 L20.0185175,23.8303978 C20.3772067,23.8303978 20.6679818,23.5457537 20.6679818,23.1946273 C20.6679818,22.843501 20.3772067,22.5588569 20.0185175,22.5588569 Z" id="Path" fill="url(#linearGradient-3)"></path>
                <path d="M19.9968687,26.3734795 L5.70865539,26.2887101 C5.34996619,26.2887101 5.05919114,26.5733542 5.05919114,26.9244806 C5.05919114,27.2756069 5.34996619,27.560251 5.70865539,27.560251 L19.9968687,27.6450204 C20.3555579,27.6450204 20.646333,27.3603763 20.646333,27.0092499 C20.646333,26.6581236 20.3555579,26.3734795 19.9968687,26.3734795 Z" id="Path" fill="url(#linearGradient-3)"></path>
            </g>
        </g>
    </g>
</svg>