<?xml version="1.0" encoding="UTF-8"?>
<svg width="30px" height="26px" viewBox="0 0 30 26" version="1.1" xmlns="http://www.w3.org/2000/svg" xmlns:xlink="http://www.w3.org/1999/xlink">
    <title>dw-icon-finance</title>
    <defs>
        <linearGradient x1="48.0849985%" y1="-20.787977%" x2="48.0849985%" y2="108.230012%" id="linearGradient-1">
            <stop stop-color="#C6D078" offset="0%"></stop>
            <stop stop-color="#DDEF75" offset="100%"></stop>
        </linearGradient>
    </defs>
    <g id="dw-icon-finance" stroke="none" stroke-width="1" fill="none" fill-rule="evenodd">
        <path d="M17.4674864,0.000210120957 C17.9402837,0.000210120957 18.3235617,0.374876265 18.3235617,0.837050376 L18.323,5.54 L27.2100508,5.54051103 C27.9192467,5.54051103 28.4941636,6.10251024 28.4941636,6.79577141 L28.494,11.846 L28.8609919,11.8461023 C29.489255,11.8467924 29.9985854,12.3441174 30,12.958263 L30,18.0910228 C29.9992923,18.7056586 29.4897553,19.2037469 28.8609919,19.2044387 L28.494,19.204 L28.4941636,24.7447396 C28.4941636,25.4380008 27.9192467,26 27.2100508,26 L3.85289374,26 C1.74661403,25.9976941 0.0397252829,24.3291571 0.0373663607,22.270203 L0.0362083763,3.66282235 C-0.0723911275,2.95602353 0.0633006092,2.22158385 0.443283587,1.58385785 C1.03432837,0.591906504 2.12518651,-0.0129393498 3.29944109,0.000210120957 L17.4674864,0.000210120957 Z M0.89257876,5.38053348 L0.893441608,22.270203 C0.895328618,23.8671742 2.21921572,25.1613151 3.85289374,25.1631597 L27.2100508,25.1631597 C27.4464494,25.1631597 27.6380884,24.9758267 27.6380884,24.7447396 L27.638,19.204 L23.1642392,19.2044387 C21.0855858,19.2044387 19.4005043,17.557219 19.4005043,15.5252705 C19.4005043,13.4933221 21.0855858,11.8461023 23.1642392,11.8461023 L27.638,11.846 L27.6380884,6.79577141 C27.6380884,6.56468436 27.4464494,6.37735128 27.2100508,6.37735128 L3.29944109,6.37735128 C2.37909227,6.38765748 1.50997386,6.01832925 0.89257876,5.38053348 Z M28.8609919,12.6816873 L28.0753134,12.6824297 C28.0722587,12.6824926 28.0691961,12.6825242 28.066126,12.6825242 L28.057,12.681 L23.1642392,12.6825242 C21.5583831,12.6825242 20.2565796,13.9550777 20.2565796,15.5248521 C20.2565796,17.0946265 21.5583831,18.36718 23.1642392,18.36718 L28.8609919,18.36718 C29.016987,18.3669504 29.1434536,18.2435123 29.1439248,18.0910228 L29.1439248,12.958263 C29.143689,12.80561 29.0171537,12.6819178 28.8609919,12.6816873 Z M23.2427121,14.0143563 C24.1379672,14.0146641 24.8635485,14.7241911 24.8635485,15.5993309 C24.8626036,16.4749593 24.1361853,17.1843063 23.2404299,17.1843063 C22.3451752,17.1833822 21.6201058,16.4733559 21.6207355,15.5982163 C21.621366,14.7230767 22.3474571,14.0140487 23.2427121,14.0143563 Z M23.2404299,14.8511952 C22.8179732,14.8521196 22.4761819,15.1874791 22.4768107,15.6004442 C22.4774413,16.0134093 22.8202539,16.3477713 23.2427114,16.3474642 C23.665169,16.3471567 24.0074733,16.0122964 24.0074733,15.5993309 C24.0072464,15.4006911 23.9263056,15.2102753 23.782457,15.0699727 C23.6386084,14.9296701 23.4436354,14.8509736 23.2404299,14.8511952 Z M17.4674864,0.837050376 L3.29944109,0.837050376 C2.43228935,0.825743362 1.62601223,1.27149127 1.18906291,2.00376668 C0.995913473,2.3274623 0.888143971,2.68500157 0.865754404,3.04646394 C0.884242659,3.09108662 0.893441608,3.13961577 0.893441608,3.19024517 L0.892274507,3.5648443 C0.938770732,3.84567876 1.0377002,4.12012872 1.18906291,4.37379472 C1.62601223,5.10607014 2.43228935,5.55181804 3.29944109,5.54051103 L17.4674864,5.54051103 L17.4674864,0.837050376 Z" id="Combined-Shape" stroke="#DDEF75" stroke-width="0.25" fill="url(#linearGradient-1)" fill-rule="nonzero"></path>
    </g>
</svg>