<?xml version="1.0" encoding="UTF-8"?>
<svg width="32px" height="32px" viewBox="0 0 32 32" version="1.1" xmlns="http://www.w3.org/2000/svg" xmlns:xlink="http://www.w3.org/1999/xlink">
    <title>dw-icon-professional-credentials</title>
    <defs>
        <linearGradient x1="48.0849985%" y1="-20.787977%" x2="48.0849985%" y2="108.230012%" id="linearGradient-1">
            <stop stop-color="#C6D078" offset="0%"></stop>
            <stop stop-color="#DDEF75" offset="100%"></stop>
        </linearGradient>
    </defs>
    <g id="dw-icon-professional-credentials" stroke="none" stroke-width="1" fill="none" fill-rule="evenodd">
        <path d="M30.125,2.7000624e-13 C31.1589356,2.7000624e-13 32,0.841064438 32,1.875 L32,1.875 L32,27.125 C32,28.1589356 31.1589356,29 30.125,29 L30.125,29 L20.125,29 C19.7797851,29 19.5,28.7202149 19.5,28.375 C19.5,28.0297851 19.7797851,27.75 20.125,27.75 L20.125,27.75 L30.125,27.75 C30.4697266,27.75 30.75,27.4697266 30.75,27.125 L30.75,27.125 L30.75,6.59008788 C30.298584,6.94921875 29.7580566,7.18701175 29.1809082,7.27368163 L29.1809082,7.27368163 L22.75,8.23828125 L22.75,13.5620118 C22.75,15.0095215 21.5725098,16.1870118 20.125,16.1870118 C18.6774903,16.1870118 17.5,15.0095215 17.5,13.5620118 L17.5,13.5620118 L17.5,8.23828125 L11.0690918,7.27368163 C10.4919434,7.18701175 9.951416,6.94921875 9.5,6.59008788 L9.5,6.59008788 L9.5,11.125 L14.5,11.125 C15.189209,11.125 15.75,11.685791 15.75,12.375 L15.75,12.375 L15.75,30.75 C15.75,31.439209 15.189209,32 14.5,32 L14.5,32 L1.25,32 C0.560791,32 1.59872116e-14,31.439209 1.59872116e-14,30.75 L1.59872116e-14,30.75 L1.59872116e-14,12.375 C1.59872116e-14,11.685791 0.560791,11.125 1.25,11.125 L1.25,11.125 L8.25,11.125 L8.25,1.875 C8.25,0.841064438 9.09106444,2.7000624e-13 10.125,2.7000624e-13 L10.125,2.7000624e-13 Z M14.5,12.375 L1.25,12.375 L1.25,30.75 L14.5,30.75 L14.5,30.75 L14.5,12.375 Z M10.1965332,27.8125 C10.5417481,27.8125 10.8217774,28.0922851 10.8217774,28.4375 C10.8217774,28.7827149 10.5419922,29.0625 10.1967774,29.0625 L10.1967774,29.0625 L5.55346681,29.0625 C5.20825194,29.0625 4.92846681,28.7827149 4.92846681,28.4375 C4.92846681,28.0922851 5.20825194,27.8125 5.55346681,27.8125 L5.55346681,27.8125 Z M17.625,27.75 C17.7893066,27.75 17.9506836,27.8168945 18.0668945,27.9331055 C18.1831055,28.0493164 18.25,28.2106934 18.25,28.375 C18.25,28.5393066 18.1831055,28.7006836 18.0668945,28.8168945 C17.9506836,28.9331055 17.7893066,29 17.625,29 C17.4606934,29 17.2993164,28.9331055 17.1831055,28.8168945 C17.0668945,28.7006836 17,28.5393066 17,28.375 C17,28.2106934 17.0668945,28.0493164 17.1831055,27.9331055 C17.2993164,27.8168945 17.4606934,27.75 17.625,27.75 Z M11.5,25.3125 C11.8452149,25.3125 12.125,25.5922851 12.125,25.9375 C12.125,26.2827149 11.8452149,26.5625 11.5,26.5625 L11.5,26.5625 L4.25,26.5625 C3.90478513,26.5625 3.625,26.2827149 3.625,25.9375 C3.625,25.5922851 3.90478513,25.3125 4.25,25.3125 L4.25,25.3125 Z M7.875,14.0625 C10.5629883,14.0625 12.75,16.2492676 12.75,18.9375 C12.75,21.6254883 10.5632324,23.8125 7.875,23.8125 C5.18676756,23.8125 3,21.6257324 3,18.9375 C3,16.2495118 5.18701175,14.0625 7.875,14.0625 Z M7.875,20.5927734 C6.97778319,20.5927734 6.17333988,21.1174316 5.80004881,21.9072266 C6.38842775,22.3195801 7.10351563,22.5625 7.875,22.5625 C8.64648438,22.5625 9.36157225,22.3195801 9.94995119,21.9072266 C9.57666013,21.1174316 8.77221681,20.5927734 7.875,20.5927734 Z M7.875,15.3125 C5.87622069,15.3125 4.25,16.9387207 4.25,18.9375 C4.25,19.6965332 4.48486325,20.4013672 4.88500975,20.9841309 C5.2248535,20.4521484 5.70043944,20.0219726 6.25683594,19.7355957 C6.0424805,19.421875 5.91699219,19.0427246 5.91699219,18.6347656 L5.91699219,18.6347656 L5.91699219,18.3015137 C5.91699219,17.222168 6.79541013,16.34375 7.875,16.34375 C8.95458988,16.34375 9.83276369,17.222168 9.83276369,18.3015137 L9.83276369,18.3015137 L9.83276369,18.6347656 C9.83276369,19.0427246 9.70727538,19.4216309 9.49316406,19.7355957 C10.0495606,20.0219726 10.5251465,20.4521484 10.8647461,20.9841309 C11.2651368,20.4013672 11.5,19.6965332 11.5,18.9375 C11.5,16.9387207 9.87377931,15.3125 7.875,15.3125 Z M7.875,17.59375 C7.48461913,17.59375 7.16723631,17.9113769 7.16723631,18.3017578 L7.16723631,18.3017578 L7.16723631,18.6350098 C7.16723631,19.0251465 7.48461913,19.3427734 7.875,19.3427734 C8.26538088,19.3427734 8.58300781,19.0253906 8.58300781,18.6350098 L8.58300781,18.6350098 L8.58300781,18.3017578 C8.58300781,17.9113769 8.26538088,17.59375 7.875,17.59375 Z M20.125,12.1870118 C19.3666993,12.1870118 18.75,12.8037109 18.75,13.5620118 C18.75,14.3200684 19.3666993,14.9370118 20.125,14.9370118 C20.8833008,14.9370118 21.5,14.3200684 21.5,13.5620118 C21.5,12.8037109 20.8833008,12.1870118 20.125,12.1870118 Z M20.125,12.9367676 C20.2893066,12.9367676 20.4506836,13.0036621 20.5668945,13.1201172 C20.6831055,13.2363281 20.75,13.3974609 20.75,13.5617676 C20.75,13.7263184 20.6831055,13.8874512 20.5668945,14.0036621 C20.4506836,14.1201172 20.2893066,14.1867676 20.125,14.1867676 C19.9606934,14.1867676 19.7993164,14.1201172 19.6831055,14.0036621 C19.5668945,13.8874512 19.5,13.7263184 19.5,13.5617676 C19.5,13.3974609 19.5668945,13.2363281 19.6831055,13.1201172 C19.7993164,13.0036621 19.9606934,12.9367676 20.125,12.9367676 Z M21.5,8.23486325 C21.0998535,8.48193363 20.6289063,8.625 20.125,8.625 C19.6210938,8.625 19.1501465,8.48193363 18.75,8.23486325 L18.75,8.23486325 L18.75,11.3271484 C19.1501465,11.079834 19.6210938,10.9370118 20.125,10.9370118 C20.6289063,10.9370118 21.0998535,11.079834 21.5,11.3271484 L21.5,11.3271484 Z M20.125,4.625 C19.3666993,4.625 18.75,5.24169925 18.75,6 C18.75,6.75830075 19.3666993,7.375 20.125,7.375 C20.8833008,7.375 21.5,6.75830075 21.5,6 C21.5,5.24169925 20.8833008,4.625 20.125,4.625 Z M30.125,1.25 L10.125,1.25 C9.78027344,1.25 9.5,1.53027344 9.5,1.875 L9.5,1.875 L9.5,4 C9.5,5.02807619 10.2380371,5.88500975 11.2546387,6.03759763 L11.2546387,6.03759763 L17.5,6.97436525 L17.5,6 C17.5,4.55249025 18.6774903,3.375 20.125,3.375 C21.5725098,3.375 22.75,4.55249025 22.75,6 L22.75,6 L22.75,6.97436525 L28.9953613,6.03759763 C30.0119629,5.88500975 30.75,5.02807619 30.75,4 L30.75,4 L30.75,1.875 C30.75,1.53027344 30.4697266,1.25 30.125,1.25 L30.125,1.25 Z M20.125,5.375 C20.2893066,5.375 20.4506836,5.4418945 20.5668945,5.5581055 C20.6831055,5.67431638 20.75,5.83569338 20.75,6 C20.75,6.16430663 20.6831055,6.32568363 20.5668945,6.4418945 C20.4506836,6.5581055 20.2893066,6.625 20.125,6.625 C19.9606934,6.625 19.7993164,6.5581055 19.6831055,6.4418945 C19.5668945,6.32568363 19.5,6.16430663 19.5,6 C19.5,5.83569338 19.5668945,5.67431638 19.6831055,5.5581055 C19.7993164,5.4418945 19.9606934,5.375 20.125,5.375 Z" id="Combined-Shape" fill="url(#linearGradient-1)" fill-rule="nonzero"></path>
    </g>
</svg>