<?xml version="1.0" encoding="UTF-8"?>
<svg width="36px" height="36px" viewBox="0 0 36 36" version="1.1" xmlns="http://www.w3.org/2000/svg" xmlns:xlink="http://www.w3.org/1999/xlink">
    <title>dw-icon-devices</title>
    <defs>
        <linearGradient x1="48.0849985%" y1="-20.787977%" x2="48.0849985%" y2="108.230012%" id="linearGradient-1">
            <stop stop-color="#C6D078" offset="0%"></stop>
            <stop stop-color="#DDEF75" offset="100%"></stop>
        </linearGradient>
        <linearGradient x1="48.0849985%" y1="-20.787977%" x2="48.0849985%" y2="108.230012%" id="linearGradient-2">
            <stop stop-color="#C6D078" offset="0%"></stop>
            <stop stop-color="#DDEF75" offset="100%"></stop>
        </linearGradient>
    </defs>
    <g id="dw-icon-devices" stroke="none" stroke-width="1" fill="none" fill-rule="evenodd">
        <g id="015-devices-1-2" fill-rule="nonzero">
            <g id="015-devices-1">
                <path d="M33.8688,0 L12.4779789,0 C11.4934813,0 10.6954105,0.798070737 10.6954105,1.78256842 L10.6954105,14.8547368 L2.97094737,14.8547368 C1.98644968,14.8547368 1.18837895,15.6528076 1.18837895,16.6373053 L1.18837895,28.5210947 L0.594189474,28.5210947 C0.266048337,28.5210947 0,28.7871431 0,29.1152842 C0.00193111579,30.7552472 1.33098442,32.0843005 2.97094737,32.0862331 L21.9850105,32.0862331 C23.6241565,32.0878656 24.9543239,30.760372 24.9559579,29.1212261 C24.9559579,29.1192207 24.9559579,29.1172896 24.9559579,29.1152842 C24.9559579,28.7871431 24.6899096,28.5210947 24.3617684,28.5210947 L23.7675789,28.5210947 L23.7675789,21.9850105 L30.3036632,21.9850105 C30.6318043,21.9850105 30.8978526,21.7189622 30.8978526,21.3908211 C30.8978526,21.0626799 30.6318043,20.7966316 30.3036632,20.7966316 L27.1865452,20.7966316 L26.3380426,17.8256842 L33.8688,17.8256842 C34.8532977,17.8256842 35.6513684,17.0276135 35.6513684,16.0431158 L35.6513684,1.78256842 C35.6513684,0.798070737 34.8532977,0 33.8688,0 Z M2.37675789,16.6373053 C2.37675789,16.3091641 2.64280623,16.0431158 2.97094737,16.0431158 L21.9850105,16.0431158 C22.3131517,16.0431158 22.5792,16.3091641 22.5792,16.6373053 L22.5792,28.5210947 L14.2605474,28.5210947 C13.9324062,28.5210947 13.6663579,28.7871431 13.6663579,29.1152842 L11.2896,29.1152842 C11.2896,28.7871431 11.0235517,28.5210947 10.6954105,28.5210947 L2.37675789,28.5210947 L2.37675789,16.6373053 Z M23.2494457,30.3737775 C22.9138029,30.7087518 22.4591737,30.8971842 21.9850105,30.8978526 L2.97094737,30.8978526 C2.21573255,30.8969613 1.54273869,30.4211641 1.28998535,29.7094737 L10.1012211,29.7094737 C10.1012211,30.0376148 10.3672694,30.3036632 10.6954105,30.3036632 L14.2605474,30.3036632 C14.5886885,30.3036632 14.8547368,30.0376148 14.8547368,29.7094737 L23.6659725,29.7094737 C23.5774383,29.9587362 23.4352042,30.1854937 23.2494457,30.3737775 Z M23.7675789,20.7966316 L23.7675789,17.8256842 L25.1021285,17.8256842 L25.9506311,20.7966316 L23.7675789,20.7966316 Z M34.4629895,16.0431158 C34.4629895,16.3712569 34.1969411,16.6373053 33.8688,16.6373053 L23.7675789,16.6373053 C23.7675789,15.6528076 22.9695082,14.8547368 21.9850105,14.8547368 L11.8837895,14.8547368 L11.8837895,1.78256842 C11.8837895,1.45442728 12.1498378,1.18837895 12.4779789,1.18837895 L33.8688,1.18837895 C34.1969411,1.18837895 34.4629895,1.45442728 34.4629895,1.78256842 L34.4629895,16.0431158 Z" id="Shape" fill="url(#linearGradient-1)"></path>
                <path d="M32.6804211,22.5792 L27.9269053,22.5792 C26.9424076,22.5792 26.1443368,23.3772707 26.1443368,24.3617684 L26.1443368,33.8688 C26.1443368,34.8532977 26.9424076,35.6513684 27.9269053,35.6513684 L32.6804211,35.6513684 C33.6649187,35.6513684 34.4629895,34.8532977 34.4629895,33.8688 L34.4629895,24.3617684 C34.4629895,23.3772707 33.6649187,22.5792 32.6804211,22.5792 Z M33.2746105,33.8688 C33.2746105,34.1969411 33.0085622,34.4629895 32.6804211,34.4629895 L27.9269053,34.4629895 C27.5987641,34.4629895 27.3327158,34.1969411 27.3327158,33.8688 L27.3327158,24.3617684 C27.3327158,24.0336273 27.5987641,23.7675789 27.9269053,23.7675789 L32.6804211,23.7675789 C33.0085622,23.7675789 33.2746105,24.0336273 33.2746105,24.3617684 L33.2746105,33.8688 Z" id="Shape" fill="url(#linearGradient-2)"></path>
            </g>
        </g>
    </g>
</svg>