<?xml version="1.0" encoding="UTF-8"?>
<svg width="39px" height="29px" viewBox="0 0 39 29" version="1.1" xmlns="http://www.w3.org/2000/svg" xmlns:xlink="http://www.w3.org/1999/xlink">
    <title>Group 19</title>
    <defs>
        <linearGradient x1="48.0849985%" y1="-20.787977%" x2="48.0849985%" y2="108.230012%" id="linearGradient-1">
            <stop stop-color="#C6D078" offset="0%"></stop>
            <stop stop-color="#DDEF75" offset="100%"></stop>
        </linearGradient>
        <linearGradient x1="48.0849985%" y1="-20.787977%" x2="48.0849985%" y2="108.230012%" id="linearGradient-2">
            <stop stop-color="#C6D078" offset="0%"></stop>
            <stop stop-color="#DDEF75" offset="100%"></stop>
        </linearGradient>
        <linearGradient x1="48.0849985%" y1="-20.787977%" x2="48.0849985%" y2="108.230012%" id="linearGradient-3">
            <stop stop-color="#C6D078" offset="0%"></stop>
            <stop stop-color="#DDEF75" offset="100%"></stop>
        </linearGradient>
        <linearGradient x1="48.0849985%" y1="-20.787977%" x2="48.0849985%" y2="108.230012%" id="linearGradient-4">
            <stop stop-color="#C6D078" offset="0%"></stop>
            <stop stop-color="#DDEF75" offset="100%"></stop>
        </linearGradient>
    </defs>
    <g id="Digital-Wallet---Symbols" stroke="none" stroke-width="1" fill="none" fill-rule="evenodd" stroke-linecap="round">
        <g id="dw-menu" transform="translate(-22.000000, -292.000000)">
            <g id="Group-19" transform="translate(23.000000, 293.000000)">
                <path d="M1.443,21.997 C0.563,21.289 -6.66133815e-16,20.204 -6.66133815e-16,18.986 L-6.66133815e-16,1.331 C-6.66133815e-16,0.597 0.596,0 1.332,0 L26.594,0 C27.33,0 27.926,0.597 27.926,1.331 L27.926,10.843" id="Stroke-3" stroke="url(#linearGradient-1)"></path>
                <line x1="17.9157" y1="22.8486" x2="8.2457" y2="22.8486" id="Stroke-5" stroke="#DDEF75"></line>
                <line x1="10.3547" y1="26.831" x2="17.6437" y2="26.831" id="Stroke-7" stroke="#DDEF75"></line>
                <line x1="14.9826" y1="23.1337" x2="14.9826" y2="26.7757" id="Stroke-9" stroke="#DDEF75"></line>
                <line x1="12.9435" y1="23.1337" x2="12.9435" y2="26.7757" id="Stroke-11" stroke="#DDEF75"></line>
                <path d="M13.9533,3.9355 C13.4083,3.9355 12.9653,3.4935 12.9653,2.9485 C12.9653,2.4025 13.4083,1.9595 13.9533,1.9595 C14.4993,1.9595 14.9413,2.4025 14.9413,2.9485 C14.9413,3.4935 14.4993,3.9355 13.9533,3.9355 Z" id="Stroke-13" stroke="#DDEF75"></path>
                <line x1="20.7062" y1="26.831" x2="37.2252" y2="26.831" id="Stroke-15" stroke="url(#linearGradient-2)"></line>
                <path d="M37.1559,14.5195 L37.1559,23.8075 C37.1559,24.5525 36.5519,25.1565 35.8069,25.1565 L21.6109,25.1565 C20.8659,25.1565 20.2619,24.5525 20.2619,23.8075 L20.2619,14.5195 C20.2619,13.7745 20.8659,13.1705 21.6109,13.1705 L35.8069,13.1705 C36.5519,13.1705 37.1559,13.7745 37.1559,14.5195 Z" id="Stroke-17" stroke="url(#linearGradient-3)"></path>
                <path d="M7.1056,26.8896 L2.0446,26.8896 C1.8486,26.8896 1.6896,26.7306 1.6896,26.5346 L1.6896,17.2236 C1.6896,17.0276 1.8486,16.8686 2.0446,16.8686 L7.1056,16.8686 C7.3016,16.8686 7.4606,17.0276 7.4606,17.2236 L7.4606,26.5346 C7.4606,26.7306 7.3016,26.8896 7.1056,26.8896 Z" id="Stroke-1" stroke="url(#linearGradient-4)"></path>
            </g>
        </g>
    </g>
</svg>