<?xml version="1.0" encoding="UTF-8"?>
<svg width="35px" height="25px" viewBox="0 0 35 25" version="1.1" xmlns="http://www.w3.org/2000/svg" xmlns:xlink="http://www.w3.org/1999/xlink">
    <title>dw-icon-edu</title>
    <defs>
        <linearGradient x1="48.0849985%" y1="-20.787977%" x2="48.0849985%" y2="108.230012%" id="linearGradient-1">
            <stop stop-color="#C6D078" offset="0%"></stop>
            <stop stop-color="#DDEF75" offset="100%"></stop>
        </linearGradient>
    </defs>
    <g id="dw-icon-edu" stroke="none" stroke-width="1" fill="none" fill-rule="evenodd">
        <path d="M32.6889795,18.5124808 L32.6889795,9.28411637 L33.9303331,8.76682179 C34.7989156,8.40498764 34.928636,7.87696628 34.9287136,7.59441695 C34.9287913,7.31186762 34.7989933,6.78376853 33.9304108,6.42185665 L19.2819561,0.318480126 C18.2627583,-0.106160042 16.666033,-0.106160042 15.6466798,0.318480126 L0.998225129,6.42185665 C0.129642653,6.78376853 0,7.31186762 0,7.59441695 C0,7.87696628 0.12972033,8.40498764 0.998225129,8.76682179 L6.04582184,10.8699682 L6.04582184,18.4679413 C6.0470506,18.609322 6.10566941,18.7441266 6.20821345,18.8413905 C6.3107575,18.9386544 6.44841278,18.9900174 6.58955975,18.9836813 L7.36337647,18.9836813 C10.201067,18.9836813 13.0553026,21.6043555 14.9440151,23.3288004 C16.2077397,24.4829386 16.7896169,25 17.3380154,25 C17.8773258,25 18.456562,24.4792076 19.7144608,23.3244475 C21.5938521,21.5999249 24.4339505,18.9832149 27.1869732,18.9832149 L28.1060457,18.9832149 C28.2471926,18.989551 28.3848479,18.938188 28.487392,18.8409241 C28.589936,18.7436602 28.6485548,18.6088556 28.6497836,18.467475 L28.6497836,10.9665092 L31.6015037,9.73666169 L31.6015037,18.50463 C30.1457335,18.7757429 29.1344023,20.1097513 29.2657009,21.5856981 C29.3969995,23.061645 30.6279057,24.1959122 32.1086412,24.2054378 C33.5893766,24.2149633 34.834754,23.096626 34.9850043,21.6224904 C35.1352547,20.1483547 34.1411461,18.8014454 32.6889795,18.5116257 L32.6889795,18.5124808 Z M1.12320717,7.59441695 C1.21132998,7.52317744 1.31023629,7.46644828 1.41620423,7.42636422 L16.0646589,1.32337635 C16.8103566,1.01245549 18.118357,1.01245549 18.8638994,1.32337635 L33.512354,7.42636422 C33.6183521,7.46643485 33.7172861,7.52316481 33.8054288,7.59441695 C33.717267,7.66555997 33.6183682,7.72223234 33.5124317,7.76231422 L18.863977,13.8656907 C18.1182793,14.1766116 16.8102789,14.1766116 16.0647366,13.8656907 L1.41628191,7.76231422 C1.31031818,7.72223974 1.21139265,7.66556708 1.12320717,7.59441695 Z M27.5623078,17.8954583 L27.1865849,17.8954583 C24.0108448,17.8954583 20.983079,20.687994 18.9795602,22.5263914 C18.37003,23.0856603 17.6184288,23.7824339 17.3355298,23.9026825 C17.0498343,23.7860872 16.2917083,23.0830174 15.6770515,22.5217275 C13.6642891,20.6837189 10.6226192,17.8954583 7.36337647,17.8954583 L7.13329766,17.8954583 L7.13329766,11.3230577 L15.6466798,14.870276 C16.1562399,15.0825573 16.8102789,15.1889699 17.464318,15.1889699 C18.118357,15.1889699 18.7723184,15.0827127 19.2819561,14.870276 L27.5623078,11.4205313 L27.5623078,17.8954583 Z M32.1259777,23.1382283 C31.3989566,23.1418254 30.7415105,22.7063592 30.460789,22.0352508 C30.1800674,21.3641425 30.3314843,20.5898674 30.8442997,20.0741561 C31.3571152,19.5584448 32.1301005,19.4030976 32.8021278,19.6806904 C33.4741551,19.9582833 33.9125466,20.61402 33.9125466,21.3415497 C33.9137938,22.3308756 33.1146184,23.1345639 32.1259777,23.1382283 L32.1259777,23.1382283 Z" id="Shape" fill="url(#linearGradient-1)" fill-rule="nonzero"></path>
    </g>
</svg>