<?xml version="1.0" encoding="UTF-8"?>
<svg width="33px" height="34px" viewBox="0 0 33 34" version="1.1" xmlns="http://www.w3.org/2000/svg" xmlns:xlink="http://www.w3.org/1999/xlink">
    <title>dw-icon-retail</title>
    <defs>
        <linearGradient x1="48.0849985%" y1="-20.787977%" x2="48.0849985%" y2="108.230012%" id="linearGradient-1">
            <stop stop-color="#C6D078" offset="0%"></stop>
            <stop stop-color="#DDEF75" offset="100%"></stop>
        </linearGradient>
    </defs>
    <g id="dw-icon-retail" stroke="none" stroke-width="1" fill="none" fill-rule="evenodd">
        <g id="002-shopping-cart-2" fill-rule="nonzero">
            <g id="Group-7" transform="translate(0.052479, 0.000000)">
                <path d="M8.95634325,28.0128954 C7.41307582,28.0128954 6.15745728,29.2695354 6.15745728,30.8142047 C6.15745728,32.3588083 7.41301022,33.6155139 8.95634325,33.6155139 C10.4996763,33.6154483 11.7552292,32.3588083 11.7552292,30.814139 C11.7552292,29.2695354 10.4996763,28.0128954 8.95634325,28.0128954 Z M8.95634325,32.4949114 C8.03048775,32.4949114 7.27702479,31.7407961 7.27702479,30.814139 C7.27702479,29.8874819 8.03048775,29.1333666 8.95634325,29.1333666 C9.88219874,29.1333666 10.6356617,29.8874819 10.6356617,30.814139 C10.6356617,31.7407961 9.88219874,32.4949114 8.95634325,32.4949114 Z" id="Shape" fill="#DDEF75"></path>
                <path d="M29.1081647,28.0128954 C27.5648973,28.0128954 26.3092788,29.2695354 26.3092788,30.8142047 C26.3092788,32.3588083 27.5648317,33.6155139 29.1081647,33.6155139 C30.6514322,33.6155139 31.9070507,32.3588739 31.9070507,30.8142047 C31.9070507,29.2695354 30.6514978,28.0128954 29.1081647,28.0128954 Z M29.1081647,32.4949114 C28.1823092,32.4949114 27.4288463,31.7407961 27.4288463,30.814139 C27.4288463,29.8874819 28.1823092,29.1333666 29.1081647,29.1333666 C30.0340202,29.1333666 30.7874832,29.8874819 30.7874832,30.814139 C30.7874832,31.7407961 30.0340202,32.4949114 29.1081647,32.4949114 Z" id="Shape" fill="#DDEF75"></path>
                <path d="M3.75439193,2.96544717 L4.5436716,3.75541021 C4.85769103,4.06746924 5.03795538,4.50282869 5.03795538,4.94764248 L5.03795538,4.94764248 L5.03795538,7.90915034 L31.4167028,11.2096359 C31.6966111,11.2443674 31.9071163,11.483024 31.9071163,11.7654069 L31.9071163,11.7654069 L31.9071163,21.8500414 C31.9071163,23.3947106 30.6514978,24.6513506 29.1082303,24.6513506 L29.1082303,24.6513506 L6.71733943,24.6513506 C5.17400641,24.6513506 3.91845347,23.394645 3.91845347,21.8500414 L3.91845347,21.8500414 L3.91845347,4.94711724 C3.91845347,4.79808 3.85856215,4.65350731 3.75386714,4.54931255 L3.75386714,4.54931255 L2.96288191,3.75764248 L3.75439193,2.96544717 Z M7.27688191,17.3674472 L5.03788191,17.3674472 L5.03795538,21.8500414 C5.03795538,22.7279271 5.7141936,23.4509553 6.57260347,23.5246317 L6.71727383,23.5308138 L7.27688191,23.5304472 L7.27688191,17.3674472 Z M10.6348819,17.3674472 L8.39588191,17.3674472 L8.39588191,23.5304472 L10.6348819,23.5304472 L10.6348819,17.3674472 Z M20.7108819,17.3674472 L18.4718819,17.3674472 L18.4718819,23.5304472 L20.7108819,23.5304472 L20.7108819,17.3674472 Z M17.3528819,17.3674472 L15.1128819,17.3674472 L15.1128819,23.5304472 L17.3528819,23.5304472 L17.3528819,17.3674472 Z M13.9938819,17.3674472 L11.7548819,17.3674472 L11.7548819,23.5304472 L13.9938819,23.5304472 L13.9938819,17.3674472 Z M24.0698819,17.3674472 L21.8308819,17.3674472 L21.8308819,23.5304472 L24.0698819,23.5304472 L24.0698819,17.3674472 Z M27.4278819,17.3674472 L25.1888819,17.3674472 L25.1888819,23.5304472 L27.4278819,23.5304472 L27.4278819,17.3674472 Z M30.7868819,17.3674472 L28.5478819,17.3674472 L28.5478819,23.5304472 L29.1081647,23.5308138 C29.985291,23.5308138 30.7076938,22.8539901 30.7813065,21.994837 L30.7874832,21.8500414 L30.7868819,17.3674472 Z M5.03795538,9.03861628 L5.03788191,16.2474472 L7.27688191,16.2474472 L7.27688191,9.31844717 L5.03795538,9.03861628 Z M8.39588191,9.45844717 L8.39588191,16.2474472 L10.6348819,16.2474472 L10.6348819,9.73844717 L8.39588191,9.45844717 Z M18.4718819,10.7184472 L18.4718819,16.2474472 L20.7108819,16.2474472 L20.7108819,10.9984472 L18.4718819,10.7184472 Z M15.1128819,10.2984472 L15.1128819,16.2474472 L17.3528819,16.2474472 L17.3528819,10.5784472 L15.1128819,10.2984472 Z M11.7548819,9.87844717 L11.7548819,16.2474472 L13.9938819,16.2474472 L13.9938819,10.1584472 L11.7548819,9.87844717 Z M21.8308819,11.1384472 L21.8308819,16.2474472 L24.0698819,16.2474472 L24.0698819,11.4184472 L21.8308819,11.1384472 Z M25.1888819,11.5584472 L25.1888819,16.2474472 L27.4278819,16.2474472 L27.4278819,11.8384472 L25.1888819,11.5584472 Z M28.5478819,11.9794472 L28.5478819,16.2474472 L30.7868819,16.2474472 L30.7874832,12.2601186 L28.5478819,11.9794472 Z" id="Combined-Shape" fill="url(#linearGradient-1)"></path>
                <path d="M6.71727383,28.0128954 C5.79141834,28.0128954 5.03795538,27.2587801 5.03795538,26.332123 L5.03795538,21.2898058 L3.91838787,21.2898058 L3.91838787,26.332123 C3.91838787,27.8767266 5.17394081,29.1334323 6.71727383,29.1334323 L29.1081647,29.1334323 L29.1081647,28.0128954 L6.71727383,28.0128954 L6.71727383,28.0128954 Z" id="Path" fill="#DDEF75"></path>
                <path d="M2.23906941,-1.91601524e-13 C1.00424556,-1.91601524e-13 7.49096525e-14,1.00511503 7.49096525e-14,2.241008 C7.49096525e-14,3.47696662 1.00424556,4.482016 2.23906941,4.482016 C3.47389327,4.482016 4.47813882,3.47690097 4.47813882,2.241008 C4.47820442,1.00511503 3.47395886,-1.91601524e-13 2.23906941,-1.91601524e-13 Z M2.23906941,3.36154483 C1.62165748,3.36154483 1.11950191,2.85902014 1.11950191,2.241008 C1.11950191,1.62306152 1.62159189,1.12047117 2.23906941,1.12047117 C2.85654694,1.12053683 3.35863692,1.62306152 3.35863692,2.241008 C3.35863692,2.85902014 2.85654694,3.36154483 2.23906941,3.36154483 Z" id="Shape" fill="#DDEF75"></path>
            </g>
        </g>
    </g>
</svg>