<?xml version="1.0" encoding="UTF-8"?>
<svg width="29px" height="34px" viewBox="0 0 29 34" version="1.1" xmlns="http://www.w3.org/2000/svg" xmlns:xlink="http://www.w3.org/1999/xlink">
    <title>dw-icon-legal-identity</title>
    <defs>
        <linearGradient x1="48.0849985%" y1="-20.787977%" x2="48.0849985%" y2="108.230012%" id="linearGradient-1">
            <stop stop-color="#C6D078" offset="0%"></stop>
            <stop stop-color="#DDEF75" offset="100%"></stop>
        </linearGradient>
        <linearGradient x1="48.0849985%" y1="-20.787977%" x2="48.0849985%" y2="108.230012%" id="linearGradient-2">
            <stop stop-color="#C6D078" offset="0%"></stop>
            <stop stop-color="#DDEF75" offset="100%"></stop>
        </linearGradient>
        <linearGradient x1="48.0849985%" y1="-20.787977%" x2="48.0849985%" y2="108.230012%" id="linearGradient-3">
            <stop stop-color="#C6D078" offset="0%"></stop>
            <stop stop-color="#DDEF75" offset="100%"></stop>
        </linearGradient>
    </defs>
    <g id="dw-icon-legal-identity" stroke="none" stroke-width="1" fill="none" fill-rule="evenodd">
        <g id="Group" fill-rule="nonzero">
            <path d="M9.48098425,3 L3.51901575,3 C3.23231145,3 3,3.22386667 3,3.5 C3,3.77613333 3.23231145,4 3.51901575,4 L9.48098425,4 C9.76768855,4 10,3.77613333 10,3.5 C10,3.22386667 9.76761935,3 9.48098425,3 Z" id="Path" fill="url(#linearGradient-1)"></path>
            <path d="M9.48098425,6 L3.51901575,6 C3.23231145,6 3,6.22386667 3,6.5 C3,6.77613333 3.23231145,7 3.51901575,7 L9.48098425,7 C9.76768855,7 10,6.77613333 10,6.5 C10,6.22386667 9.76761935,6 9.48098425,6 Z" id="Path" fill="url(#linearGradient-1)"></path>
            <path d="M28.4608448,29.1465205 L18.1395949,19.6088262 C18.6103188,19.0886284 19.0546136,18.5631852 19.4681286,18.0354107 C20.266002,18.5928442 21.374726,18.5194091 22.0896107,17.8114142 C22.8939129,17.0148309 22.8983935,15.7209092 22.099481,14.918692 L17.8014711,10.6030509 C17.0045068,9.80284121 15.7031815,9.7984377 14.9006975,10.5932078 C14.271399,11.2164997 14.1330844,12.149074 14.4870527,12.9084864 C12.518506,14.4104095 10.5111273,16.3807892 8.93128982,18.4109401 C8.18692395,18.0581406 7.24729436,18.1735387 6.60617736,18.8085518 C5.80194014,19.605135 5.79726472,20.8990567 6.59630703,21.701274 L10.894317,26.0168502 C11.6923203,26.8181608 12.9905936,26.823471 13.7950256,26.0266934 C14.5095207,25.3189575 14.5908211,24.2128976 14.037563,23.4139831 C14.5708207,23.0042617 15.1020653,22.5637157 15.628115,22.0966191 L25.1211662,32.4542094 C25.7662443,33.1579303 26.8686045,33.1851285 27.5475145,32.5126208 L28.5027937,31.5664474 C29.1806647,30.8951701 29.1641709,29.7964278 28.4608448,29.1465205 L28.4608448,29.1465205 Z M15.5871401,11.282423 C16.0095514,10.8640888 16.6928121,10.8683628 17.110418,11.2876036 L21.408428,15.6032446 C21.8278521,16.0244281 21.8257092,16.7038649 21.403233,17.122199 C20.9817959,17.5396265 20.2984702,17.5372305 19.8799552,17.1170184 L15.5819452,12.8014421 C15.1634302,12.38123 15.1657679,11.6997857 15.5871401,11.282423 L15.5871401,11.282423 Z M15.0818701,13.677742 L18.7553218,17.3662056 C17.2561353,19.2933919 15.3179139,21.2140377 13.3714455,22.6986706 L9.6979938,19.0102717 C11.1587379,17.1323012 13.0889073,15.1979268 15.0818701,13.677742 Z M13.1086479,25.3376077 C12.6866912,25.7555533 12.004989,25.7536753 11.585435,25.3324271 L7.28742505,21.0168508 C6.86793596,20.5956674 6.87020873,19.9161658 7.29261996,19.4978317 C7.71457664,19.0798861 8.39627888,19.0817641 8.81583291,19.5030123 L13.1139078,23.8185886 C13.5324228,24.2387359 13.5300851,24.9201802 13.1086479,25.3376077 L13.1086479,25.3376077 Z M27.8164161,30.877297 L26.8611368,31.8234704 C26.5674944,32.1143615 26.1045629,32.0873576 25.8401419,31.7988625 L16.3451426,21.4391352 C16.5363154,21.2586557 16.7269037,21.0759745 16.9160634,20.8886308 C17.106392,20.7001214 17.2920451,20.5101226 17.4754904,20.3194762 L27.7987534,29.8589837 C28.0929802,30.1309008 28.1032401,30.5932054 27.8164161,30.877297 L27.8164161,30.877297 Z" id="Shape" fill="url(#linearGradient-2)"></path>
            <path d="M23.5934198,32.9808573 C23.5017155,32.9961308 23.407515,33.0039668 23.3134459,33.0039668 L2.68655412,33.0039668 C1.74849038,33.0039668 0.985361072,32.2324545 0.985361072,31.2841677 L0.985361072,2.71583232 C0.985361072,1.76761192 1.74849038,0.996099587 2.68655412,0.996099587 L18.7421588,0.996099587 C18.8085064,0.996099587 18.873803,1.00280666 18.9379172,1.01369735 L18.9379172,4.42321342 C18.9379172,5.92074954 20.1431452,7.13904574 21.6244713,7.13904574 L24.9972309,7.13904574 C25.0080042,7.20392502 25.0146389,7.26986682 25.0146389,7.33693752 L25.0146389,24.7168831 C25.0146389,24.9919394 25.2351627,25.2149329 25.5073195,25.2149329 C25.7794762,25.2149329 26,24.9919394 26,24.7168831 L26,7.33693752 C26,6.75508255 25.7758632,6.20809106 25.3689748,5.79670193 L20.2657898,0.638034988 C19.8589013,0.226579453 19.3178067,0 18.7421588,0 L2.68655412,0 C1.20522797,0 0,1.21836261 0,2.71583232 L0,31.2841013 C0,32.7816374 1.20522797,34 2.68655412,34 L23.3134459,34 C23.4611187,34 23.6093827,33.9877148 23.7540994,33.9635428 C24.0225117,33.9187183 24.2042123,33.6623222 24.1598054,33.3909183 C24.1154641,33.1195808 23.8617008,32.9355016 23.5934198,32.9808573 Z M24.317923,6.14294615 L21.6244713,6.14294615 C20.6864076,6.14294615 19.9232783,5.37143382 19.9232783,4.42321342 L19.9232783,1.70047481 L24.317923,6.14294615 Z" id="Shape" fill="url(#linearGradient-3)"></path>
        </g>
    </g>
</svg>