<?xml version="1.0" encoding="UTF-8"?>
<svg width="39px" height="36px" viewBox="0 0 39 36" version="1.1" xmlns="http://www.w3.org/2000/svg" xmlns:xlink="http://www.w3.org/1999/xlink">
    <title>Group 18</title>
    <defs>
        <linearGradient x1="48.0849985%" y1="-20.787977%" x2="48.0849985%" y2="108.230012%" id="linearGradient-1">
            <stop stop-color="#C6D078" offset="0%"></stop>
            <stop stop-color="#DDEF75" offset="100%"></stop>
        </linearGradient>
        <linearGradient x1="48.0849985%" y1="-20.787977%" x2="48.0849985%" y2="108.230012%" id="linearGradient-2">
            <stop stop-color="#C6D078" offset="0%"></stop>
            <stop stop-color="#DDEF75" offset="100%"></stop>
        </linearGradient>
        <linearGradient x1="48.0849985%" y1="-20.787977%" x2="48.0849985%" y2="108.230012%" id="linearGradient-3">
            <stop stop-color="#C6D078" offset="0%"></stop>
            <stop stop-color="#DDEF75" offset="100%"></stop>
        </linearGradient>
        <linearGradient x1="48.0849985%" y1="-20.787977%" x2="48.0849985%" y2="108.230012%" id="linearGradient-4">
            <stop stop-color="#C6D078" offset="0%"></stop>
            <stop stop-color="#DDEF75" offset="100%"></stop>
        </linearGradient>
        <linearGradient x1="48.0849985%" y1="-20.787977%" x2="48.0849985%" y2="108.230012%" id="linearGradient-5">
            <stop stop-color="#C6D078" offset="0%"></stop>
            <stop stop-color="#DDEF75" offset="100%"></stop>
        </linearGradient>
        <linearGradient x1="48.0849985%" y1="-20.787977%" x2="48.0849985%" y2="108.230012%" id="linearGradient-6">
            <stop stop-color="#C6D078" offset="0%"></stop>
            <stop stop-color="#DDEF75" offset="100%"></stop>
        </linearGradient>
        <linearGradient x1="48.0849985%" y1="-20.787977%" x2="48.0849985%" y2="108.230012%" id="linearGradient-7">
            <stop stop-color="#C6D078" offset="0%"></stop>
            <stop stop-color="#DDEF75" offset="100%"></stop>
        </linearGradient>
        <linearGradient x1="48.0934926%" y1="180.728024%" x2="50%" y2="-139.42677%" id="linearGradient-8">
            <stop stop-color="#C6D078" offset="0%"></stop>
            <stop stop-color="#DDEF75" offset="100%"></stop>
        </linearGradient>
    </defs>
    <g id="Digital-Wallet---Symbols" stroke="none" stroke-width="1" fill="none" fill-rule="evenodd" stroke-linecap="round">
        <g id="dw-menu" transform="translate(-22.000000, -194.000000)" stroke-width="1.20648664">
            <g id="Group-18" transform="translate(23.000000, 195.000000)">
                <path d="M26.4837746,34 L3.01674269,34 C1.35187631,34 9.40892684e-14,32.646322 9.40892684e-14,30.9765445 L9.40892684e-14,3.02224903 C9.40892684e-14,1.35247152 1.35187631,1.71452064e-14 3.01674269,1.71452064e-14 L24.4890649,1.71452064e-14 C26.1551351,1.71452064e-14 27.5058076,1.35247152 27.5058076,3.02224903 L27.5058076,11.4459388" id="Stroke-33" stroke="url(#linearGradient-1)"></path>
                <path d="M16.9878968,27.7589653 L16.9878968,17.7692559 C16.9878968,16.3624925 18.1266992,15.2199496 19.5303392,15.2199496 L34.4575576,15.2199496 C35.8624015,15.2199496 37,16.3624925 37,17.7692559 L37,27.7589653 C37,29.1657287 35.8624015,30.307065 34.4575576,30.307065 L19.5303392,30.307065 C18.1266992,30.307065 16.9878968,29.1657287 16.9878968,27.7589653 Z" id="Stroke-35" stroke="url(#linearGradient-2)"></path>
                <path d="M25.2858653,20.2470743 C25.2858653,21.2593166 24.4672759,22.080934 23.4560773,22.080934 C22.4472862,22.080934 21.627493,21.2593166 21.627493,20.2470743 C21.627493,19.234832 22.4472862,18.4132146 23.4560773,18.4132146 C24.4672759,18.4132146 25.2858653,19.234832 25.2858653,20.2470743 Z" id="Stroke-39" stroke="url(#linearGradient-3)"></path>
                <path d="M20.2895809,26.9203932 C20.2895809,25.1673681 21.7076666,23.7461268 23.4567996,23.7461268 C25.2059325,23.7461268 26.6240182,25.1673681 26.6240182,26.9203932" id="Stroke-41" stroke="url(#linearGradient-4)"></path>
                <line x1="28.4464631" y1="19.9005713" x2="33.9105473" y2="19.9005713" id="Stroke-43" stroke="url(#linearGradient-5)"></line>
                <line x1="28.4240723" y1="22.5810227" x2="33.8881565" y2="22.5810227" id="Stroke-45" stroke="url(#linearGradient-5)"></line>
                <path d="M25.4369432,0.570668181 L25.4369432,3.81370427 C25.4369432,5.51243746 24.5136226,6.88783223 23.3760241,6.88783223 L4.13917321,6.88783223 C3.00157471,6.88783223 2.07825402,5.51243746 2.07825402,3.81370427 L2.07825402,0.799900642" id="Stroke-47" stroke="url(#linearGradient-6)"></path>
                <line x1="12.9203502" y1="10.0364004" x2="12.9203502" y2="6.7414854" id="Stroke-49" stroke="#DDEF75"></line>
                <line x1="15.2174565" y1="6.74088215" x2="15.2174565" y2="10.0357972" id="Stroke-51" stroke="#DDEF75"></line>
                <path d="M14.0630047,9.11850538 C14.7202838,9.11850538 15.2523669,9.65177247 15.2523669,10.3105142 C15.2523669,10.9692559 14.7202838,11.502523 14.0630047,11.502523 C13.4069294,11.502523 12.8736425,10.9692559 12.8736425,10.3105142 C12.8736425,9.65177247 13.4069294,9.11850538 14.0630047,9.11850538 Z" id="Stroke-53" stroke="url(#linearGradient-7)"></path>
                <line x1="15.2062611" y1="3.76472091" x2="15.2062611" y2="7.05842944" id="Stroke-55" stroke="#DDEF75"></line>
                <line x1="12.9085529" y1="7.05903268" x2="12.9085529" y2="3.76532415" id="Stroke-57" stroke="#DDEF75"></line>
                <path d="M14.0630047,4.68140946 C13.4069294,4.68140946 12.8736425,4.14814237 12.8736425,3.48940066 C12.8736425,2.83186544 13.4069294,2.29739186 14.0630047,2.29739186 C14.7202838,2.29739186 15.2523669,2.83186544 15.2523669,3.48940066 C15.2523669,4.14814237 14.7202838,4.68140946 14.0630047,4.68140946 Z" id="Stroke-59" stroke="url(#linearGradient-8)"></path>
            </g>
        </g>
    </g>
</svg>