<?xml version="1.0" encoding="UTF-8"?>
<svg width="39px" height="31px" viewBox="0 0 39 31" version="1.1" xmlns="http://www.w3.org/2000/svg" xmlns:xlink="http://www.w3.org/1999/xlink">
    <title>Group 9</title>
    <defs>
        <linearGradient x1="48.0849985%" y1="-20.787977%" x2="48.0849985%" y2="108.230012%" id="linearGradient-1">
            <stop stop-color="#C6D078" offset="0%"></stop>
            <stop stop-color="#DDEF75" offset="100%"></stop>
        </linearGradient>
        <linearGradient x1="48.0849985%" y1="-20.787977%" x2="48.0849985%" y2="108.230012%" id="linearGradient-2">
            <stop stop-color="#DDEF75" offset="0%"></stop>
            <stop stop-color="#DDEF75" offset="100%"></stop>
        </linearGradient>
        <linearGradient x1="48.0849985%" y1="-20.787977%" x2="48.0849985%" y2="108.230012%" id="linearGradient-3">
            <stop stop-color="#DBED76" offset="0%"></stop>
            <stop stop-color="#DDEF75" offset="100%"></stop>
        </linearGradient>
        <linearGradient x1="48.0849985%" y1="-20.787977%" x2="48.0849985%" y2="108.230012%" id="linearGradient-4">
            <stop stop-color="#DBED76" offset="0%"></stop>
            <stop stop-color="#DDEF75" offset="100%"></stop>
        </linearGradient>
        <linearGradient x1="48.0849985%" y1="-20.787977%" x2="48.0849985%" y2="108.230012%" id="linearGradient-5">
            <stop stop-color="#C6D078" offset="0%"></stop>
            <stop stop-color="#DDEF75" offset="100%"></stop>
        </linearGradient>
        <linearGradient x1="48.0849985%" y1="130.285627%" x2="48.0849985%" y2="-169.007155%" id="linearGradient-6">
            <stop stop-color="#C6D078" offset="0%"></stop>
            <stop stop-color="#DDEF75" offset="100%"></stop>
        </linearGradient>
        <linearGradient x1="48.0849985%" y1="130.285627%" x2="48.0849985%" y2="-169.007155%" id="linearGradient-7">
            <stop stop-color="#C6D078" offset="0%"></stop>
            <stop stop-color="#DDEF75" offset="100%"></stop>
        </linearGradient>
    </defs>
    <g id="Digital-Wallet---Symbols" stroke="none" stroke-width="1" fill="none" fill-rule="evenodd" stroke-linecap="round">
        <g id="dw-menu" transform="translate(-22.000000, -243.000000)" stroke-width="1.13624546">
            <g id="Group-9" transform="translate(23.000000, 244.000000)">
                <path d="M24.7835587,15.803602 L36.4527996,23.8892518 C37.0231948,24.2845759 37.172043,25.0821597 36.7834471,25.6624307 L36.4425734,26.1721908 C36.0539775,26.7524619 35.2699681,26.9038872 34.6995729,26.5085631 L23.030332,18.4240692" id="Stroke-61" stroke="url(#linearGradient-1)"></path>
                <path d="M23.9696661,11.4407032 L24.376442,11.7227473 C25.3933817,12.4278576 25.6592631,13.8507933 24.9661534,14.8841844 L21.7892111,19.6303857 C21.0972376,20.6649328 19.6973832,20.9354177 18.6804435,20.2303074 L18.2736676,19.9482633 C17.2567279,19.2443089 16.9908465,17.8213733 17.6839562,16.7856703 L20.8608985,12.0406249 C21.5540083,11.0060779 22.9515902,10.7367489 23.9696661,11.4407032 Z" id="Stroke-63" stroke="url(#linearGradient-2)"></path>
                <path d="M23.6523128,8.60165183 L27.088319,10.9839998 C27.5666784,11.3145925 27.6916654,11.9838693 27.3666992,12.4693551 C27.0405967,12.9559968 26.3827106,13.0831478 25.9043513,12.7513992 L22.468345,10.3702071 C21.9911219,10.0384585 21.8661349,9.37033763 22.1911011,8.88369594 C22.5160673,8.39705426 23.1750897,8.27105914 23.6523128,8.60165183 Z" id="Stroke-65" stroke="url(#linearGradient-3)"></path>
                <path d="M16.5003293,19.2848817 L19.9374719,21.6660738 C20.4146949,21.9978224 20.5396819,22.6659433 20.2147157,23.1525849 C19.8886133,23.6392266 19.2307272,23.7652217 18.7535041,23.434629 L15.3163616,21.052281 C14.8391385,20.7216884 14.7141515,20.0524116 15.0391177,19.5669258 C15.3652201,19.0802841 16.0231062,18.9531331 16.5003293,19.2848817 Z" id="Stroke-67" stroke="url(#linearGradient-4)"></path>
                <path d="M31.3558297,26.8638924 C31.5126316,29.3433376 29.7650861,28.9815351 27.3414745,28.9815351 L4.1416147,28.9815351 C1.85435259,28.9815351 -4.11748989e-13,27.0950761 -4.11748989e-13,24.7682122 L-4.11748989e-13,6.78443238 C-4.11748989e-13,4.45756846 1.85435259,2.56995357 4.1416147,2.56995357 L27.5880398,2.56995357 C29.8753019,2.56995357 31.7296545,4.45756846 31.7296545,6.78443238 L31.7296545,17.8442605" id="Stroke-69" stroke="url(#linearGradient-5)"></path>
                <path d="M1.56483725,3.22732442 L1.56483725,0.809142941 C1.56483725,0.361802487 1.92161832,-4.92797691e-14 2.36134532,-4.92797691e-14 L8.23118937,-4.92797691e-14 C8.67091636,-4.92797691e-14 9.02769743,0.361802487 9.02769743,0.809142941 L9.02769743,2.33957902" id="Stroke-71" stroke="url(#linearGradient-6)"></path>
                <path d="M9.02872006,2.34015698 L9.02872006,0.8097209 C9.02872006,0.362380446 9.38550113,0.000577959244 9.82522812,0.000577959244 L15.6950722,0.000577959244 C16.1347992,0.000577959244 16.4915802,0.362380446 16.4915802,0.8097209 L16.4915802,2.34015698" id="Stroke-73" stroke="url(#linearGradient-7)"></path>
            </g>
        </g>
    </g>
</svg>