<?xml version="1.0" encoding="UTF-8"?>
<svg width="43px" height="52px" viewBox="0 0 43 52" version="1.1" xmlns="http://www.w3.org/2000/svg" xmlns:xlink="http://www.w3.org/1999/xlink">
    <title>Fill 58</title>
    <g id="Digital-Wallet---Styleguide-/-Library" stroke="none" stroke-width="1" fill="none" fill-rule="evenodd">
        <g id="04_dw_iconography_graphics" transform="translate(-523.000000, -949.000000)" fill="#333332">
            <path d="M559.976166,991.28212 C558.394633,994.147649 555.080418,998.947959 550.630744,998.966281 C550.192044,998.911315 548.381944,998.273717 547.843707,997.921939 C546.852023,997.269683 545.668639,996.97287 544.5,997.079136 C543.323988,996.976534 542.14429,997.269683 541.152606,997.921939 C540.614369,998.273717 538.807956,998.911315 538.369256,998.966281 C533.919582,998.947959 530.60168,994.147649 529.023834,991.28212 C526.605453,986.914205 525.046039,981.362701 525.046039,977.14136 C525.046039,971.278386 528.039523,965.884449 532.157407,964.319768 C532.986883,964.004633 533.853224,963.843402 534.734311,963.839737 L534.749057,963.839737 C537.252229,963.839737 539.073388,966.276536 540.662294,967.064373 C543.073302,968.266283 545.900892,968.28094 548.337706,967.064373 C549.919239,966.276536 551.755144,963.839737 554.265689,963.839737 C556.879458,963.839737 559.323645,965.257844 561.144805,967.833888 C562.929098,970.351303 563.950274,973.740835 563.950274,977.14136 C563.950274,981.362701 562.390861,986.914205 559.976166,991.28212 M529.15655,955.114899 L533.547239,959.468157 C533.945388,959.863908 534.594222,959.863908 534.996056,959.468157 C535.394204,959.068742 535.394204,958.427479 534.996056,958.031728 L530.605367,953.682134 C536.621828,953.90566 541.443844,958.826894 541.443844,964.843771 L541.443844,965.173564 C539.534208,964.044941 537.23011,960.662738 532.07999,962.201769 C530.28095,960.248666 529.256087,957.767895 529.15655,955.114899 M547.895319,951.329616 C548.293467,950.930201 548.942301,950.930201 549.340449,951.329616 C549.742284,951.725367 549.742284,952.36663 549.340449,952.766045 C546.892575,955.19185 545.543296,958.42015 545.543296,961.853655 L545.543296,965.855135 C544.864969,965.965065 544.175583,965.965065 543.49357,965.862463 L543.49357,961.853655 C543.49357,957.877825 545.05667,954.140179 547.895319,951.329616 M562.822188,966.664958 C560.606567,963.535595 557.568844,961.809682 554.265689,961.809682 C551.091564,961.809682 548.912809,964.341754 547.593021,965.151578 L547.593021,961.853655 C547.593021,958.962476 548.728481,956.243521 550.789266,954.198809 C551.991084,953.011557 551.991084,951.084104 550.792953,949.893187 C549.591135,948.702271 547.644633,948.702271 546.442816,949.893187 C544.057613,952.260363 542.465021,955.202843 541.797754,958.405493 C539.515775,954.371034 535.161951,951.641087 530.17404,951.641087 L528.120628,951.641087 C528.116941,951.641087 528.109568,951.641087 528.105881,951.641087 C527.534465,951.65208 527.099451,952.117453 527.099451,952.656114 L527.099451,954.686169 C527.099451,957.771559 528.157493,960.688389 530.100309,963.040907 C528.172239,964.118228 526.513289,965.862463 525.2488,968.152687 C523.799983,970.783697 523,973.975354 523,977.14136 C523,981.677836 524.658951,987.614097 527.221108,992.25684 C530.336248,997.896288 534.302984,1001 538.395062,1001 C539.147119,1001 541.521262,1000.11689 542.280693,999.614872 C543.379287,998.896658 544.345165,999.14217 544.614283,999.109191 C545.344222,999.024911 546.088906,999.208129 546.711934,999.614872 C547.475051,1000.11689 549.852881,1001 550.604938,1001 C554.69333,1001 558.663752,997.896288 561.775206,992.25684 C564.341049,987.614097 566,981.677836 566,977.14136 C566,973.334091 564.842421,969.515829 562.822188,966.664958" id="Fill-58"></path>
        </g>
    </g>
</svg>