<?xml version="1.0" encoding="UTF-8"?>
<svg width="65px" height="65px" viewBox="0 0 65 65" version="1.1" xmlns="http://www.w3.org/2000/svg" xmlns:xlink="http://www.w3.org/1999/xlink">
    <title>015-devices-1</title>
    <g id="Digital-Wallet---Styleguide-/-Library" stroke="none" stroke-width="1" fill="none" fill-rule="evenodd">
        <g id="04_dw_iconography_graphics" transform="translate(-381.000000, -858.000000)" fill="#333332" fill-rule="nonzero">
            <g id="Group-6" transform="translate(381.000000, 858.000000)">
                <path d="M61.152,3.55271368e-15 L22.5296842,3.55271368e-15 C20.7521189,3.55271368e-15 19.3111579,1.44096105 19.3111579,3.21852632 L19.3111579,26.8210526 L5.36421053,26.8210526 C3.58664526,26.8210526 2.14568421,28.2620137 2.14568421,30.0395789 L2.14568421,51.4964211 L1.07284211,51.4964211 C0.480365053,51.4964211 2.13162821e-13,51.9767861 2.13162821e-13,52.5692632 C0.00348673684,55.5303074 2.40316632,57.9299869 5.36421053,57.9334764 L39.6951579,57.9334764 C42.6547269,57.936424 45.0564181,55.5395606 45.0593684,52.5799916 C45.0593684,52.5763707 45.0593684,52.572884 45.0593684,52.5692632 C45.0593684,51.9767861 44.5790034,51.4964211 43.9865263,51.4964211 L42.9136842,51.4964211 L42.9136842,39.6951579 L54.7149474,39.6951579 C55.3074244,39.6951579 55.7877895,39.2147928 55.7877895,38.6223158 C55.7877895,38.0298387 55.3074244,37.5494737 54.7149474,37.5494737 L49.0868177,37.5494737 L47.5547992,32.1852632 L61.152,32.1852632 C62.9295653,32.1852632 64.3705263,30.7443021 64.3705263,28.9667368 L64.3705263,3.21852632 C64.3705263,1.44096105 62.9295653,3.55271368e-15 61.152,3.55271368e-15 Z M4.29136842,30.0395789 C4.29136842,29.4471019 4.77173347,28.9667368 5.36421053,28.9667368 L39.6951579,28.9667368 C40.2876349,28.9667368 40.768,29.4471019 40.768,30.0395789 L40.768,51.4964211 L25.7482105,51.4964211 C25.1557335,51.4964211 24.6753684,51.9767861 24.6753684,52.5692632 L20.384,52.5692632 C20.384,51.9767861 19.9036349,51.4964211 19.3111579,51.4964211 L4.29136842,51.4964211 L4.29136842,30.0395789 Z M41.9781659,54.8415427 C41.3721442,55.4463575 40.5512859,55.7865825 39.6951579,55.7877895 L5.36421053,55.7877895 C4.00062821,55.7861802 2.78550042,54.9271019 2.32914021,53.6421053 L18.2383158,53.6421053 C18.2383158,54.2345823 18.7186808,54.7149474 19.3111579,54.7149474 L25.7482105,54.7149474 C26.3406876,54.7149474 26.8210526,54.2345823 26.8210526,53.6421053 L42.7302282,53.6421053 C42.5703747,54.0921625 42.3135632,54.5015859 41.9781659,54.8415427 Z M42.9136842,37.5494737 L42.9136842,32.1852632 L45.3232876,32.1852632 L46.8553061,37.5494737 L42.9136842,37.5494737 Z M62.2248421,28.9667368 C62.2248421,29.5592139 61.7444771,30.0395789 61.152,30.0395789 L42.9136842,30.0395789 C42.9136842,28.2620137 41.4727232,26.8210526 39.6951579,26.8210526 L21.4568421,26.8210526 L21.4568421,3.21852632 C21.4568421,2.62604926 21.9372072,2.14568421 22.5296842,2.14568421 L61.152,2.14568421 C61.7444771,2.14568421 62.2248421,2.62604926 62.2248421,3.21852632 L62.2248421,28.9667368 Z" id="Shape"></path>
                <path d="M59.0063158,40.768 L50.4235789,40.768 C48.6460137,40.768 47.2050526,42.2089611 47.2050526,43.9865263 L47.2050526,61.152 C47.2050526,62.9295653 48.6460137,64.3705263 50.4235789,64.3705263 L59.0063158,64.3705263 C60.7838811,64.3705263 62.2248421,62.9295653 62.2248421,61.152 L62.2248421,43.9865263 C62.2248421,42.2089611 60.7838811,40.768 59.0063158,40.768 Z M60.0791579,61.152 C60.0791579,61.7444771 59.5987928,62.2248421 59.0063158,62.2248421 L50.4235789,62.2248421 C49.8311019,62.2248421 49.3507368,61.7444771 49.3507368,61.152 L49.3507368,43.9865263 C49.3507368,43.3940493 49.8311019,42.9136842 50.4235789,42.9136842 L59.0063158,42.9136842 C59.5987928,42.9136842 60.0791579,43.3940493 60.0791579,43.9865263 L60.0791579,61.152 Z" id="Shape"></path>
            </g>
        </g>
    </g>
</svg>