<?xml version="1.0" encoding="UTF-8"?>
<svg width="64px" height="46px" viewBox="0 0 64 46" version="1.1" xmlns="http://www.w3.org/2000/svg" xmlns:xlink="http://www.w3.org/1999/xlink">
    <title>Shape</title>
    <g id="Digital-Wallet---Styleguide-/-Library" stroke="none" stroke-width="1" fill="none" fill-rule="evenodd">
        <g id="04_dw_iconography_graphics" transform="translate(-140.000000, -862.000000)" fill="#333332" fill-rule="nonzero">
            <path d="M199.774134,896.062965 L199.774134,879.082774 L202.044038,878.130952 C203.632303,877.465177 203.869506,876.493618 203.869648,875.973727 C203.86979,875.453836 203.632445,874.482134 202.04418,873.816216 L175.258434,862.586003 C173.394758,861.804666 170.475032,861.804666 168.611072,862.586003 L141.825326,873.816216 C140.237061,874.482134 140,875.453836 140,875.973727 C140,876.493618 140.237203,877.465177 141.825326,878.130952 L151.055217,882.000742 L151.055217,895.981012 C151.057464,896.241152 151.164653,896.489193 151.352162,896.668159 C151.539671,896.847124 151.791383,896.941632 152.049481,896.929974 L153.46446,896.929974 C158.65338,896.929974 163.872553,901.752014 167.326199,904.924993 C169.63701,907.048607 170.701014,908 171.7038,908 C172.689967,908 173.749142,907.041742 176.0493,904.916983 C179.485901,901.743862 184.679224,896.929115 189.713323,896.929115 L191.393912,896.929115 C191.652009,896.940774 191.903722,896.846266 192.091231,896.6673 C192.27874,896.488335 192.385929,896.240294 192.388176,895.980154 L192.388176,882.178377 L197.785607,879.915458 L197.785607,896.048519 C195.123627,896.547367 193.274336,899.001942 193.514424,901.717685 C193.754513,904.433427 196.005313,906.520478 198.712944,906.538006 C201.420574,906.555533 203.697836,904.497792 203.972579,901.785382 C204.247323,899.072973 202.429524,896.594659 199.774134,896.061391 L199.774134,896.062965 Z M142.053865,875.973727 C142.215003,875.842646 142.395861,875.738265 142.589631,875.66451 L169.375376,864.435012 C170.738938,863.862918 173.13071,863.862918 174.493987,864.435012 L201.279733,875.66451 C201.473558,875.73824 201.654466,875.842623 201.815641,875.973727 C201.654431,876.10463 201.473588,876.208908 201.279875,876.282658 L174.494129,887.512871 C173.130568,888.084965 170.738796,888.084965 169.375518,887.512871 L142.589773,876.282658 C142.39601,876.208921 142.215118,876.104643 142.053865,875.973727 Z M190.399648,894.927643 L189.712612,894.927643 C183.905545,894.927643 178.369059,900.065909 174.705481,903.44856 C173.590912,904.477615 172.216556,905.759678 171.699254,905.980936 C171.17684,905.7664 169.790552,904.472752 168.666608,903.439979 C164.986129,900.058043 159.424218,894.927643 153.46446,894.927643 L153.043744,894.927643 L153.043744,882.834426 L168.611072,889.361308 C169.542839,889.751905 170.738796,889.947705 171.934753,889.947705 C173.13071,889.947705 174.326525,889.752191 175.258434,889.361308 L190.399648,883.013778 L190.399648,894.927643 Z M198.744645,904.57434 C197.415235,904.580959 196.213048,903.779701 195.699728,902.544862 C195.186409,901.310022 195.463286,899.885356 196.401005,898.936447 C197.338725,897.987538 198.752184,897.701699 199.981034,898.21247 C201.209884,898.723241 202.011514,899.929797 202.011514,901.268451 C202.013794,903.088811 200.552445,904.567598 198.744645,904.57434 L198.744645,904.57434 Z" id="Shape"></path>
        </g>
    </g>
</svg>