<?xml version="1.0" encoding="UTF-8"?>
<svg width="56px" height="49px" viewBox="0 0 56 49" version="1.1" xmlns="http://www.w3.org/2000/svg" xmlns:xlink="http://www.w3.org/1999/xlink">
    <title>Combined Shape 3</title>
    <g id="Digital-Wallet---Styleguide-/-Library" stroke="none" stroke-width="1" fill="none" fill-rule="evenodd">
        <g id="04_dw_iconography_graphics" transform="translate(-149.000000, -1030.000000)" fill="#333332" fill-rule="nonzero" stroke="#333332" stroke-width="0.5">
            <g id="Combined-Shape-3" transform="translate(150.000000, 1031.000000)">
                <path d="M31.4414756,0.000379834038 C32.2925107,0.000379834038 32.982411,0.677660941 32.982411,1.51312953 L32.982,10.015 L48.9780914,10.0155392 C50.2546441,10.0155392 51.2894946,11.0314608 51.2894946,12.2846637 L51.289,21.414 L51.9497854,21.4141081 C53.080659,21.4153555 53.9974537,22.3143661 54,23.4245524 L54,32.7030027 C53.9987262,33.8140752 53.0815596,34.7144656 51.9497854,34.7157161 L51.289,34.715 L51.2894946,44.7308755 C51.2894946,45.9840783 50.2546441,47 48.9780914,47 L6.93520872,47 C3.14390525,46.9958316 0.0715055093,43.9796301 0.0672594492,40.2576746 L0.0663228038,6.62872415 C-0.13125422,5.34875568 0.11260833,4.01818638 0.797910456,2.86312765 C1.86179106,1.06998483 3.82533572,-0.0233903632 5.93899396,0.000379834038 L31.4414756,0.000379834038 Z M1.60762008,9.72736369 L1.60819489,40.2576746 C1.61159151,43.1445072 3.9945883,45.4839158 6.93520872,45.4872503 L48.9780914,45.4872503 C49.403609,45.4872503 49.7485591,45.1486098 49.7485591,44.7308755 L49.748,34.715 L41.6956305,34.7157161 C37.9540545,34.7157161 34.9209078,31.7380497 34.9209078,28.0649121 C34.9209078,24.3917745 37.9540545,21.4141081 41.6956305,21.4141081 L49.748,21.414 L49.7485591,12.2846637 C49.7485591,11.8669294 49.403609,11.5282889 48.9780914,11.5282889 L5.93899396,11.5282889 C4.28285214,11.5469138 2.71887097,10.8796792 1.60762008,9.72736369 Z M51.9497854,22.9245887 L50.5455144,22.9256628 C50.5367218,22.9259544 50.5278918,22.9261014 50.5190268,22.9261014 L50.493,22.924 L41.6956305,22.9261014 C38.8050896,22.9261014 36.4618432,25.2264867 36.4618432,28.0641557 C36.4618432,30.9018248 38.8050896,33.2022101 41.6956305,33.2022101 L51.9497854,33.2022101 C52.2305766,33.2017949 52.4582166,32.9786569 52.4590646,32.7030027 L52.4590646,23.4245524 C52.4586403,23.1486028 52.2308766,22.9250052 51.9497854,22.9245887 Z M41.8368818,25.3336441 C43.4483409,25.3342006 44.7543873,26.616807 44.7543873,28.1987905 C44.7526865,29.7816572 43.4451336,31.0639384 41.8327737,31.0639384 C40.2213154,31.0622679 38.9161905,29.7787587 38.9173239,28.1967756 C38.9184587,26.6147925 40.2254227,25.3330881 41.8368818,25.3336441 Z M41.8327737,26.8463914 C41.0723518,26.8480623 40.4571274,27.4542891 40.4582593,28.2008029 C40.4593943,28.9473168 41.076457,29.5517404 41.8368806,29.5511853 C42.5973042,29.5506295 43.2134519,28.9453051 43.2134519,28.1987905 C43.2130434,27.8397109 43.06735,27.4954976 42.8084226,27.2418737 C42.5494952,26.9882497 42.1985437,26.8459908 41.8327737,26.8463914 Z M31.4414756,1.51312953 L5.93899396,1.51312953 C4.37812082,1.49268992 2.92682202,2.29846498 2.14031324,3.62219361 C1.79245143,4.20766022 1.59844403,4.8543736 1.55829102,5.50815658 C1.59184027,5.58881507 1.60819489,5.67602338 1.60819489,5.76698166 L1.60682052,6.44853324 C1.69081513,6.95466497 1.86864604,7.44924733 2.14031324,7.90647508 C2.92682202,9.23020371 4.37812082,10.0359788 5.93899396,10.0155392 L31.4414756,10.0155392 L31.4414756,1.51312953 Z" id="Combined-Shape"></path>
            </g>
        </g>
    </g>
</svg>