<?xml version="1.0" encoding="UTF-8"?>
<svg width="48px" height="61px" viewBox="0 0 48 61" version="1.1" xmlns="http://www.w3.org/2000/svg" xmlns:xlink="http://www.w3.org/1999/xlink">
    <title>Group 10</title>
    <g id="Digital-Wallet---Styleguide-/-Library" stroke="none" stroke-width="1" fill="none" fill-rule="evenodd">
        <g id="04_dw_iconography_graphics" transform="translate(-267.000000, -858.000000)" fill="#333332" fill-rule="nonzero">
            <g id="Group-10" transform="translate(267.019323, 858.033485)">
                <path d="M43.5252617,3.60446579 L36.394977,3.55883991 L36.394977,2.9124733 C36.39914,2.17634191 36.1021408,1.468755 35.5693182,0.945379276 C35.0364956,0.422003552 34.3114974,0.125712957 33.5538207,0.121690411 L13.4387474,1.06740546e-05 C11.859693,-0.00419316133 10.5749064,1.2338557 10.5662836,2.76799135 L10.5662836,3.40675365 L3.44382578,3.40675365 C1.71475991,3.40675365 0.313075071,4.76858041 0.313075071,6.44847886 L-2.59348099e-13,56.636945 C-2.59348099e-13,58.3168434 1.40168484,59.6786702 3.13075071,59.6786702 L43.2121866,59.9144039 C44.9412525,59.9144039 46.3429373,58.5525771 46.3429373,56.8726787 L46.6562573,6.68421257 C46.6664768,5.87092935 46.3412562,5.0874509 45.7529885,4.50876685 C45.1647209,3.93008281 44.3624136,3.60440224 43.5252617,3.60446579 L43.5252617,3.60446579 Z M12.9221735,2.77559566 C12.9264503,2.50138661 13.1564804,2.28131532 13.4387474,2.28131532 L33.5459938,2.40298432 C33.8282285,2.40713948 34.0547408,2.63062846 34.0547408,2.90486899 L34.0547408,7.23172311 C34.0547408,7.50470661 33.826967,7.72600345 33.5459938,7.72600345 L13.4309205,7.60433445 C13.1499473,7.60433445 12.9221735,7.3830376 12.9221735,7.1100541 L12.9221735,2.77559566 Z M43.9635668,56.8422614 C43.9635668,57.262236 43.6131456,57.6026927 43.1808791,57.6026927 L3.0994432,57.366959 C2.66717673,57.366959 2.31675552,57.0265023 2.31675552,56.6065277 L2.62983059,6.41806161 C2.62983059,5.998087 2.9802518,5.65763031 3.41251827,5.65763031 L10.542803,5.69565187 L10.542803,7.10244979 C10.5386411,7.83989341 10.836713,8.54863021 11.3712271,9.07222508 C11.9057413,9.59581995 12.6327504,9.89122333 13.3917861,9.89323267 L33.4833788,10.0072974 C34.2416815,10.0133723 34.9711873,9.72547593 35.5103366,9.20736695 C36.0494859,8.68925797 36.353785,7.98369383 36.3558426,7.24693173 L36.3558426,5.84013382 L43.4783004,5.8857597 C43.9105669,5.8857597 44.2609881,6.22621639 44.2609881,6.646191 L43.9635668,56.8422614 Z" id="Shape"></path>
                <path d="M17.1017257,22.8357735 L22.1891956,22.8357735 L22.1891956,27.778577 C22.1891956,28.4085389 22.7148274,28.9192239 23.3632272,28.9192239 C24.0116269,28.9192239 24.5372587,28.4085389 24.5372587,27.778577 L24.5372587,22.8357735 L29.6247286,22.8357735 C30.2731283,22.8357735 30.7987601,22.3250884 30.7987601,21.6951265 C30.7987601,21.0651646 30.2731283,20.5544796 29.6247286,20.5544796 L24.5372587,20.5544796 L24.5372587,15.6116761 C24.5372587,14.9817142 24.0116269,14.4710291 23.3632272,14.4710291 C22.7148274,14.4710291 22.1891956,14.9817142 22.1891956,15.6116761 L22.1891956,20.5544796 L17.1017257,20.5544796 C16.453326,20.5544796 15.9276942,21.0651646 15.9276942,21.6951265 C15.9276942,22.3250884 16.453326,22.8357735 17.1017257,22.8357735 L17.1017257,22.8357735 Z" id="Path"></path>
                <path d="M36.2071319,33.5958764 L10.3784386,33.4437902 C9.73003889,33.4437902 9.20440708,33.9544752 9.20440708,34.5844371 C9.20440708,35.214399 9.73003889,35.7250841 10.3784386,35.7250841 L36.2071319,35.8771703 C36.8555316,35.8771703 37.3811634,35.3664853 37.3811634,34.7365234 C37.3811634,34.1065615 36.8555316,33.5958764 36.2071319,33.5958764 Z" id="Path"></path>
                <path d="M36.1679975,40.4397582 L10.3393042,40.2876719 C9.69090451,40.2876719 9.16527269,40.7983569 9.16527269,41.4283189 C9.16527269,42.0582808 9.69090451,42.5689658 10.3393042,42.5689658 L36.1679975,42.7210521 C36.8163972,42.7210521 37.3420291,42.210367 37.3420291,41.5804051 C37.3420291,40.9504432 36.8163972,40.4397582 36.1679975,40.4397582 Z" id="Path"></path>
                <path d="M36.1288632,47.2836399 L10.3001698,47.1315536 C9.65177012,47.1315536 9.12613831,47.6422387 9.12613831,48.2722006 C9.12613831,48.9021625 9.65177012,49.4128476 10.3001698,49.4128476 L36.1288632,49.5649338 C36.7772629,49.5649338 37.3028947,49.0542488 37.3028947,48.4242869 C37.3028947,47.7943249 36.7772629,47.2836399 36.1288632,47.2836399 Z" id="Path"></path>
            </g>
        </g>
    </g>
</svg>