<?xml version="1.0" encoding="UTF-8"?>
<svg width="68px" height="57px" viewBox="0 0 68 57" version="1.1" xmlns="http://www.w3.org/2000/svg" xmlns:xlink="http://www.w3.org/1999/xlink">
    <title>Fill 83</title>
    <g id="Digital-Wallet---Styleguide-/-Library" stroke="none" stroke-width="1" fill="none" fill-rule="evenodd">
        <g id="04_dw_iconography_graphics" transform="translate(-381.000000, -1023.000000)" fill="#333332">
            <path d="M421.775871,1050.53481 L421.775871,1052.47921 L417.389622,1052.47921 C416.620356,1052.47921 415.994431,1053.08684 415.994431,1053.83936 L415.994431,1058.11611 L414.001985,1058.11611 L414.001985,1053.83936 C414.001985,1053.08684 413.376061,1052.47921 412.606795,1052.47921 L408.225324,1052.47921 L408.225324,1050.53481 L412.606795,1050.53481 C413.376061,1050.53481 414.001985,1049.92251 414.001985,1049.16999 L414.001985,1044.89791 L415.994431,1044.89791 L415.994431,1049.16999 C415.994431,1049.92251 416.620356,1050.53481 417.389622,1050.53481 L421.775871,1050.53481 Z M416.19511,1042.9535 L413.801307,1042.9535 C412.812251,1042.9535 412.009539,1043.73874 412.009539,1044.7016 L412.009539,1048.5904 L408.024646,1048.5904 C407.035589,1048.5904 406.232877,1049.37564 406.232877,1050.3385 L406.232877,1052.67552 C406.232877,1053.63837 407.035589,1054.42361 408.024646,1054.42361 L412.009539,1054.42361 L412.009539,1058.30775 C412.009539,1059.27527 412.812251,1060.06051 413.801307,1060.06051 L416.19511,1060.06051 C417.184166,1060.06051 417.986878,1059.27527 417.986878,1058.30775 L417.986878,1054.42361 L421.971771,1054.42361 C422.960827,1054.42361 423.768317,1053.63837 423.768317,1052.67552 L423.768317,1050.3385 C423.768317,1049.37564 422.960827,1048.5904 421.971771,1048.5904 L417.986878,1048.5904 L417.986878,1044.7016 C417.986878,1043.73874 417.184166,1042.9535 416.19511,1042.9535 L416.19511,1042.9535 Z M443.936462,1028.07601 C440.658721,1024.80418 436.30114,1023 431.666432,1023 C427.031725,1023 422.669366,1024.80418 419.396402,1028.07601 L415.387619,1032.08167 C415.177385,1032.292 414.819031,1032.292 414.613575,1032.08167 L410.600014,1028.07601 C407.32705,1024.80418 402.964692,1023 398.329984,1023 C393.695276,1023 389.337696,1024.80418 386.059954,1028.07601 C379.313349,1034.81599 379.313349,1045.78598 386.059954,1052.53063 L412.554236,1079.00443 C413.8682,1080.32718 416.123439,1080.33653 417.44218,1079.00443 L435.426757,1061.02804 C435.813779,1060.64477 435.809001,1060.0278 435.412423,1059.65387 C435.015845,1059.27995 434.38992,1059.2893 434.007676,1059.67257 L416.018322,1077.64428 C415.464068,1078.20516 414.532348,1078.20049 413.982873,1077.64428 L387.483813,1051.17048 C381.487361,1045.17835 381.487361,1035.42829 387.483813,1029.43149 C390.384088,1026.53825 394.235196,1024.93973 398.329984,1024.93973 C402.424772,1024.93973 406.280658,1026.53825 409.176155,1029.43149 L413.184939,1033.43715 C414.159661,1034.42337 415.836756,1034.42804 416.811478,1033.43715 L420.825039,1029.43149 C423.720537,1026.53825 427.571644,1024.93973 431.666432,1024.93973 C435.761221,1024.93973 439.612328,1026.53825 442.512604,1029.43149 C448.509055,1035.42829 448.509055,1045.17835 442.512604,1051.17048 L437.251972,1056.42878 C436.86495,1056.81205 436.874506,1057.42903 437.266306,1057.80295 C437.662884,1058.17687 438.293587,1058.16753 438.67583,1057.78425 L443.936462,1052.53063 C450.687846,1045.78598 450.687846,1034.81599 443.936462,1028.07601 L443.936462,1028.07601 Z M403.647953,1048.36138 C403.108033,1048.25855 402.582448,1048.59975 402.482109,1049.12792 C402.324433,1049.90849 402.243206,1050.70775 402.243206,1051.50701 C402.243206,1058.36384 407.967309,1063.94465 415.000597,1063.94465 C422.033886,1063.94465 427.75321,1058.36384 427.75321,1051.50701 C427.75321,1044.64551 422.033886,1039.0647 415.000597,1039.0647 C410.681241,1039.0647 406.69157,1041.17737 404.31688,1044.71562 C404.015862,1045.16433 404.149648,1045.76728 404.603562,1046.06175 C405.067033,1046.35154 405.683402,1046.23001 405.984419,1045.77663 C407.986421,1042.79459 411.354946,1041.0091 415.000597,1041.0091 C420.930156,1041.0091 425.760764,1045.72054 425.760764,1051.50701 C425.760764,1057.29348 420.930156,1062.00492 415.000597,1062.00492 C409.06626,1062.00492 404.235653,1057.29348 404.235653,1051.50701 C404.235653,1050.82927 404.307323,1050.15621 404.436331,1049.49717 C404.541448,1048.97368 404.187872,1048.46421 403.647953,1048.36138 L403.647953,1048.36138 Z" id="Fill-83"></path>
        </g>
    </g>
</svg>