<?xml version="1.0" encoding="UTF-8"?>
<svg width="84px" height="57px" viewBox="0 0 84 57" version="1.1" xmlns="http://www.w3.org/2000/svg" xmlns:xlink="http://www.w3.org/1999/xlink">
    <title>Group 5</title>
    <g id="Digital-Wallet---Design-System" stroke="none" stroke-width="1" fill="none" fill-rule="evenodd" stroke-linecap="round">
        <g id="04_dw_iconography_graphics" transform="translate(-137.000000, -871.000000)" stroke="#323331" stroke-width="2.2243455">
            <g id="Group-5" transform="translate(139.000000, 872.553282)">
                <path d="M65.7661118,27.2218018 L78.8363659,21.3254363 C81.2542295,20.3230764 81.2653512,16.9026065 78.8541607,15.8846889 L41.7876672,0.231427498 C41.0580819,-0.075281301 40.235074,-0.0775038286 39.5032644,0.226982443 L1.81617849,15.9091367 C-0.603909421,16.9159417 -0.606133767,20.3408566 1.81395414,21.3498841 L16.0119515,27.7040903" id="Stroke-107"></path>
                <line x1="65.7661118" y1="40.4831791" x2="65.7661118" y2="27.2213573" id="Stroke-109"></line>
                <line x1="16.0030541" y1="27.579851" x2="16.5791596" y2="40.497181" id="Stroke-111"></line>
                <path d="M73.4296493,47.092087 L73.4296493,33.5635619 C73.4296493,30.5231442 73.2961886,25.8758392 70.3022195,25.34021" id="Stroke-113"></path>
                <path d="M76.615357,50.4129876 C76.615357,52.1532267 75.2028976,53.5645316 73.461235,53.5645316 C71.7195725,53.5645316 70.3071131,52.1532267 70.3071131,50.4129876 C70.3071131,48.6727485 71.7195725,47.2614436 73.461235,47.2614436 C75.2028976,47.2614436 76.615357,48.6727485 76.615357,50.4129876 Z" id="Stroke-115"></path>
                <path d="M65.7727848,41.0061398 C65.7727848,44.5399586 54.777845,47.4047966 41.2115617,47.4047966 C27.6475028,47.4047966 16.652563,44.5399586 16.652563,41.0061398 C16.652563,37.4723211 27.6475028,34.6074831 41.2115617,34.6074831 C54.777845,34.6074831 65.7727848,37.4723211 65.7727848,41.0061398 Z" id="Stroke-117"></path>
            </g>
        </g>
    </g>
</svg>