<?xml version="1.0" encoding="UTF-8"?>
<svg width="66px" height="49px" viewBox="0 0 66 49" version="1.1" xmlns="http://www.w3.org/2000/svg" xmlns:xlink="http://www.w3.org/1999/xlink">
    <title>Group 35</title>
    <g id="Digital-Wallet---Design-System" stroke="none" stroke-width="1" fill="none" fill-rule="evenodd" stroke-linecap="round">
        <g id="04_dw_iconography_graphics" transform="translate(-566.000000, -1087.000000)" stroke="#323331" stroke-width="2.2243455">
            <g id="Group-35" transform="translate(567.930776, 1088.186966)">
                <g id="Group-13" transform="translate(-0.000000, -0.000000)">
                    <path d="M-2.27373675e-13,41.4634736 L-2.27373675e-13,5.09625563 C-2.27373675e-13,2.28031325 2.28217849,-4.26325641e-14 5.0981999,-4.26325641e-14 L57.0166483,-4.26325641e-14 C59.8326697,-4.26325641e-14 62.1170726,2.28031325 62.1170726,5.09625563 L62.1170726,41.4634736 C62.1170726,44.2771935 59.8326697,46.5575067 57.0166483,46.5575067 L5.0981999,46.5575067 C2.28217849,46.5575067 -2.27373675e-13,44.2771935 -2.27373675e-13,41.4634736 Z" id="Stroke-11"></path>
                    <path d="M42.6284694,0.646088753 L42.6284694,3.10642673 C42.6284694,4.23324819 41.7142634,5.146707 40.5865203,5.146707 L21.5305523,5.146707 C20.4028091,5.146707 19.4886031,4.23324819 19.4886031,3.10642673 L19.4886031,0.646088753" id="Stroke-13"></path>
                    <path d="M24.3516897,18.6087785 C24.3516897,21.7425423 21.8092628,24.2828913 18.67516,24.2828913 C15.5410572,24.2828913 12.9986303,21.7425423 12.9986303,18.6087785 C12.9986303,15.4772372 15.5410572,12.9368882 18.67516,12.9368882 C21.8092628,12.9368882 24.3516897,15.4772372 24.3516897,18.6087785 Z" id="Stroke-15"></path>
                    <path d="M8.84422016,37.4155842 C8.84422016,31.9903945 13.2461999,27.5920125 18.6736029,27.5920125 C24.1032303,27.5920125 28.5052101,31.9903945 28.5052101,37.4155842" id="Stroke-17"></path>
                    <line x1="36.9568333" y1="17.5755255" x2="53.9174677" y2="17.5755255" id="Stroke-19"></line>
                    <line x1="36.8885459" y1="23.5203421" x2="53.8491803" y2="23.5203421" id="Stroke-21"></line>
                </g>
            </g>
        </g>
    </g>
</svg>