<?xml version="1.0" encoding="UTF-8"?>
<svg width="58px" height="57px" viewBox="0 0 58 57" version="1.1" xmlns="http://www.w3.org/2000/svg" xmlns:xlink="http://www.w3.org/1999/xlink">
    <title>Group 11</title>
    <defs>
        <path d="M7.35591058,1.04903299 L7.35591058,7.34989854 L1.04989108,7.34989854 C0.467112556,7.34989854 0,7.82329691 0,8.40115407 L0,8.40115407 C0,8.98123375 0.467112556,9.45018706 1.04989108,9.45018706 L1.04989108,9.45018706 L7.35591058,9.45018706 L7.35591058,15.7510526 C7.35591058,16.3311323 7.82747183,16.8045307 8.40802601,16.8045307 L8.40802601,16.8045307 C8.98858019,16.8045307 9.45791709,16.3311323 9.45791709,15.7510526 L9.45791709,15.7510526 L9.45791709,9.45018706 L15.7639366,9.45018706 C16.3444908,9.45018706 16.816052,8.98123375 16.816052,8.40115407 L16.816052,8.40115407 C16.816052,7.82329691 16.3444908,7.34989854 15.7639366,7.34989854 L15.7639366,7.34989854 L9.45791709,7.34989854 L9.45791709,1.04903299 C9.45791709,0.468953309 8.98858019,0 8.40802601,0 L8.40802601,0 C7.82747183,0 7.35591058,0.468953309 7.35591058,1.04903299 L7.35591058,1.04903299 Z" id="path-1"></path>
        <path d="M0,16.3800279 C0.0111217275,25.4212699 7.34478886,32.7489432 16.3956507,32.7600558 L16.3956507,32.7600558 C25.4487369,32.7600558 32.7890771,25.4257149 32.7890771,16.3800279 L32.7890771,16.3800279 C32.7890771,7.33211832 25.4487369,0 16.3956507,0 L16.3956507,0 C7.34034017,0 0,7.33211832 0,16.3800279 L0,16.3800279 Z" id="path-3"></path>
    </defs>
    <g id="Digital-Wallet---Design-System" stroke="none" stroke-width="1" fill="none" fill-rule="evenodd">
        <g id="04_dw_iconography_graphics" transform="translate(-285.000000, -1172.000000)">
            <g id="Group-11" transform="translate(285.299371, 1172.337505)">
                <g id="Group-192" transform="translate(39.889915, 0.003910)">
                    <mask id="mask-2" fill="white">
                        <use xlink:href="#path-1"></use>
                    </mask>
                    <g id="Clip-191"></g>
                    <polygon id="Fill-190" fill="#323331" mask="url(#mask-2)" points="-12.8055571 29.5951766 29.6216091 29.5951766 29.6216091 -12.795091 -12.8055571 -12.795091"></polygon>
                </g>
                <g id="Group-195" transform="translate(11.932116, 11.963331)">
                    <mask id="mask-4" fill="white">
                        <use xlink:href="#path-3"></use>
                    </mask>
                    <g id="Clip-194"></g>
                    <polygon id="Stroke-193" stroke="#323331" stroke-width="2.2243455" stroke-linecap="round" mask="url(#mask-4)" points="-23.2510836 55.9899136 56.0401606 55.9899136 56.0401606 -23.2343028 -23.2510836 -23.2343028"></polygon>
                </g>
                <path d="M11.9334507,28.3426919 C11.9334507,19.2970049 19.2715666,11.962664 28.3268771,11.962664 C37.3799633,11.962664 44.7203035,19.2970049 44.7203035,28.3426919 C44.7203035,37.388379 37.3799633,44.7227198 28.3268771,44.7227198 C19.2760153,44.7116072 11.9423481,37.3839339 11.9334507,28.3426919 Z" id="Stroke-196" stroke="#323331" stroke-width="2.2243455" stroke-linecap="round"></path>
                <path d="M53.0197814,16.598412 C52.4859385,16.8295548 52.2412605,17.445195 52.4703681,17.9786016 C57.439556,29.5335222 53.5002401,42.9887039 43.0791814,50.0452288 C32.660347,57.1017537 18.6936816,55.7704597 9.7918509,46.878127 C0.890020187,37.9835719 -0.43791408,24.030544 6.6243829,13.6180025 C13.6844555,3.20768359 27.1506432,-0.732857718 38.7150155,4.23449131 C39.2466341,4.45452154 39.8583291,4.21004351 40.0852123,3.68108196 C40.3143199,3.15212041 40.0740906,2.54092533 39.5491451,2.30533742 C27.0572207,-3.05984404 12.5122254,1.19185112 4.88272037,12.4378404 C-2.74456037,23.6838297 -1.30985752,38.7570114 8.30376375,48.364998 C17.9196094,57.9707619 33.0051206,59.4065147 44.2603088,51.7810228 C55.5154971,44.1599759 59.77067,29.6268683 54.4011,17.1451537 C54.2898827,16.8895631 54.0830186,16.6873131 53.8227702,16.5850768 C53.5647461,16.4828405 53.2755812,16.4872856 53.0197814,16.598412" id="Fill-198" fill="#323331"></path>
                <line x1="28.4487713" y1="26.2286238" x2="28.4487713" y2="31.8093904" id="Stroke-200" stroke="#323331" stroke-width="2.2243455" stroke-linecap="round"></line>
                <path d="M22.2277217,22.2198508 C23.0774217,22.9643976 23.1597225,24.2556861 22.4145668,25.1046916" id="Stroke-202" stroke="#323331" stroke-width="2.2243455" stroke-linecap="round"></path>
                <path d="M34.524571,22.2198508 C35.3720466,22.9643976 35.4565718,24.2556861 34.711416,25.1046916" id="Stroke-204" stroke="#323331" stroke-width="2.2243455" stroke-linecap="round"></path>
                <path d="M22.4339186,35.8110512 C22.4339186,35.8110512 29.02243,39.7827079 34.4631791,35.5510155" id="Stroke-206" stroke="#323331" stroke-width="2.2243455" stroke-linecap="round"></path>
            </g>
        </g>
    </g>
</svg>