<?xml version="1.0" encoding="UTF-8"?>
<svg width="71px" height="66px" viewBox="0 0 71 66" version="1.1" xmlns="http://www.w3.org/2000/svg" xmlns:xlink="http://www.w3.org/1999/xlink">
    <title>Group 16</title>
    <g id="Digital-Wallet---Design-System" stroke="none" stroke-width="1" fill="none" fill-rule="evenodd" stroke-linecap="round">
        <g id="04_dw_iconography_graphics" transform="translate(-284.000000, -974.000000)" stroke="#323331" stroke-width="2.2243455">
            <g id="Group-16" transform="translate(285.299875, 975.333686)">
                <path d="M48.9333768,62.6330483 L5.57198549,62.6330483 C2.49571566,62.6330483 3.69482223e-13,60.1393724 3.69482223e-13,57.0633943 L3.69482223e-13,5.56743146 C3.69482223e-13,2.49145336 2.49571566,-2.13162821e-14 5.57198549,-2.13162821e-14 L45.2476363,-2.13162821e-14 C48.3261304,-2.13162821e-14 50.8218461,2.49145336 50.8218461,5.56743146 L50.8218461,21.0851187" id="Stroke-33"></path>
                <path d="M31.3884067,51.1363579 L31.3884067,32.73383 C31.3884067,30.1423629 33.4904132,28.0376293 36.0862244,28.0376293 L63.6681087,28.0376293 C66.2616955,28.0376293 68.3659264,30.1423629 68.3659264,32.73383 L68.3659264,51.1363579 C68.3659264,53.727825 66.2616955,55.8303361 63.6681087,55.8303361 L36.0862244,55.8303361 C33.4904132,55.8303361 31.3884067,53.727825 31.3884067,51.1363579 Z" id="Stroke-35"></path>
                <path d="M47.3781144,37.4300306 C47.3781144,39.2969538 45.8655594,40.8082725 43.9993336,40.8082725 C42.1331077,40.8082725 40.6183284,39.2969538 40.6183284,37.4300306 C40.6183284,35.56533 42.1331077,34.0540113 43.9993336,34.0540113 C45.8655594,34.0540113 47.3781144,35.56533 47.3781144,37.4300306 Z" id="Stroke-37"></path>
                <path d="M38.1461908,49.7254975 C38.1461908,46.496165 40.7664698,43.8780275 43.9984438,43.8780275 C47.2304178,43.8780275 49.8506968,46.496165 49.8506968,49.7254975" id="Stroke-39"></path>
                <line x1="53.7406323" y1="36.1365196" x2="62.7470072" y2="36.1365196" id="Stroke-41"></line>
                <line x1="53.7037081" y1="41.0740868" x2="62.7100831" y2="41.0740868" id="Stroke-43"></line>
                <path d="M46.9990859,1.05125552 L46.9990859,7.02540952 C46.9990859,10.1547283 45.2930129,12.6884097 43.1910064,12.6884097 L7.64596524,12.6884097 C5.54395874,12.6884097 3.84011008,10.1547283 3.84011008,7.02540952 L3.84011008,1.47353575" id="Stroke-45"></path>
                <line x1="23.8714535" y1="18.4885398" x2="23.8714535" y2="12.4188171" id="Stroke-47"></line>
                <line x1="28.1170618" y1="12.4179281" x2="28.1170618" y2="18.4876508" id="Stroke-49"></line>
                <path d="M25.9839144,16.7978631 C27.1961827,16.7978631 28.1815678,17.7802202 28.1815678,18.9937203 C28.1815678,20.2072203 27.1961827,21.1895775 25.9839144,21.1895775 C24.7694218,21.1895775 23.7862611,20.2072203 23.7862611,18.9937203 C23.7862611,17.7802202 24.7694218,16.7978631 25.9839144,16.7978631 Z" id="Stroke-51"></path>
                <line x1="28.0954856" y1="6.93539716" x2="28.0954856" y2="13.0028973" id="Stroke-53"></line>
                <line x1="23.8509895" y1="13.0040086" x2="23.8509895" y2="6.93650842" id="Stroke-55"></line>
                <path d="M25.9839144,8.62385132 C24.7694218,8.62385132 23.7862611,7.64149416 23.7862611,6.42799412 C23.7862611,5.21671662 24.7694218,4.23213692 25.9839144,4.23213692 C27.1961827,4.23213692 28.1815678,5.21671662 28.1815678,6.42799412 C28.1815678,7.64149416 27.1961827,8.62385132 25.9839144,8.62385132 Z" id="Stroke-57"></path>
            </g>
        </g>
    </g>
</svg>