<?xml version="1.0" encoding="UTF-8"?>
<svg width="65px" height="53px" viewBox="0 0 65 53" version="1.1" xmlns="http://www.w3.org/2000/svg" xmlns:xlink="http://www.w3.org/1999/xlink">
    <title>Group 19</title>
    <g id="Digital-Wallet---Design-System" stroke="none" stroke-width="1" fill="none" fill-rule="evenodd" stroke-linecap="round">
        <g id="04_dw_iconography_graphics" transform="translate(-147.000000, -1085.000000)" stroke="#323331" stroke-width="2.2243455">
            <g id="Group-19" transform="translate(148.197974, 1086.207139)">
                <path d="M57.9552395,50.5189398 L4.31292333,50.5189398 C1.94399537,50.5189398 0.00659043136,48.5831183 0.00659043136,46.213904 L0.00659043136,10.815708 C0.00659043136,8.44649363 1.94399537,6.51067215 4.31292333,6.51067215 L57.9552395,6.51067215 C60.3241675,6.51067215 62.2615724,8.44649363 62.2615724,10.815708 L62.2615724,46.213904 C62.2615724,48.5831183 60.3241675,50.5189398 57.9552395,50.5189398 Z" id="Stroke-23"></path>
                <path d="M0.00592312771,14.8998246 C0.00592312771,11.1504206 -0.467862465,0.451173089 7.05932272,3.12638804e-13 L49.1950996,3.12638804e-13 C52.9475705,3.12638804e-13 55.3076011,2.03583522 56.3396974,5.79412927" id="Stroke-25"></path>
                <line x1="49.819251" y1="24.1479839" x2="61.8796523" y2="24.3191185" id="Stroke-27"></line>
                <line x1="61.7261725" y1="32.7929492" x2="49.819251" y2="32.9218558" id="Stroke-29"></line>
                <path d="M54.2092193,28.5345865 C54.2092193,30.9571415 52.2451222,32.9218558 49.8183612,32.9218558 C47.396049,32.9218558 45.4297276,30.9571415 45.4297276,28.5345865 C45.4297276,26.1120315 47.396049,24.1473171 49.8183612,24.1473171 C52.2451222,24.1473171 54.2092193,26.1120315 54.2092193,28.5345865 Z" id="Stroke-31"></path>
            </g>
        </g>
    </g>
</svg>