<?xml version="1.0" encoding="UTF-8"?>
<svg width="66px" height="41px" viewBox="0 0 66 41" version="1.1" xmlns="http://www.w3.org/2000/svg" xmlns:xlink="http://www.w3.org/1999/xlink">
    <title>Group 36</title>
    <g id="Digital-Wallet---Design-System" stroke="none" stroke-width="1" fill="none" fill-rule="evenodd" stroke-linecap="round">
        <g id="04_dw_iconography_graphics" transform="translate(-566.000000, -1180.000000)" stroke="#323331" stroke-width="2.2243455">
            <g id="Group-36" transform="translate(567.582221, 1181.561571)">
                <line x1="29.0488401" y1="18.5998884" x2="29.0488401" y2="12.5323882" id="Stroke-157"></line>
                <line x1="33.2944484" y1="12.531277" x2="33.2944484" y2="18.5987771" id="Stroke-159"></line>
                <path d="M31.161301,16.911212 C32.3735693,16.911212 33.3589544,17.8935691 33.3589544,19.1070692 C33.3589544,20.3183467 32.3735693,21.3029264 31.161301,21.3029264 C29.9490327,21.3029264 28.9636477,20.3183467 28.9636477,19.1070692 C28.9636477,17.8935691 29.9490327,16.911212 31.161301,16.911212 Z" id="Stroke-161"></path>
                <line x1="33.2728722" y1="7.04652354" x2="33.2728722" y2="13.1162462" id="Stroke-163"></line>
                <line x1="29.0283761" y1="13.1173575" x2="29.0283761" y2="7.0476348" id="Stroke-165"></line>
                <path d="M31.161301,8.73742248 C29.9490327,8.73742248 28.9636477,7.75506531 28.9636477,6.54156528 C28.9636477,5.32806525 29.9490327,4.34570808 31.161301,4.34570808 C32.3735693,4.34570808 33.3589544,5.32806525 33.3589544,6.54156528 C33.3589544,7.75506531 32.3735693,8.73742248 31.161301,8.73742248 Z" id="Stroke-167"></path>
                <path d="M60.8402982,38.2141384 L1.97299446,38.2141384 C0.887513856,38.2141384 5.68434189e-14,37.3273499 5.68434189e-14,36.2427564 L5.68434189e-14,1.97138192 C5.68434189e-14,0.886788485 0.887513856,8.52651283e-14 1.97299446,8.52651283e-14 L60.8402982,8.52651283e-14 C61.9257789,8.52651283e-14 62.8132927,0.886788485 62.8132927,1.97138192 L62.8132927,36.2427564 C62.8132927,37.3273499 61.9257789,38.2141384 60.8402982,38.2141384 Z" id="Stroke-169"></path>
                <path d="M58.6028291,1.05836761 L58.6028291,8.69052715 C58.6028291,10.9286124 56.9612621,12.7466399 54.932659,12.7466399 L7.94336023,12.7466399 C5.91698148,12.7466399 4.27319015,10.9286124 4.27319015,8.69052715 L4.27319015,1.05836761" id="Stroke-171"></path>
            </g>
        </g>
    </g>
</svg>