<?xml version="1.0" encoding="UTF-8"?>
<svg width="86px" height="63px" viewBox="0 0 86 63" version="1.1" xmlns="http://www.w3.org/2000/svg" xmlns:xlink="http://www.w3.org/1999/xlink">
    <title>Group 7</title>
    <g id="Digital-Wallet---Design-System" stroke="none" stroke-width="1" fill="none" fill-rule="evenodd" stroke-linecap="round">
        <g id="04_dw_iconography_graphics" transform="translate(-411.000000, -868.000000)" stroke="#323331" stroke-width="2.2243455">
            <g id="Group-7" transform="translate(413.026688, 869.454252)">
                <path d="M15.8053094,59.7628763 L4.54567247,59.7628763 C4.1119251,59.7628763 3.75825417,59.4094944 3.75825417,58.973879 L3.75825417,38.2799252 C3.75825417,37.8443098 4.1119251,37.4909279 4.54567247,37.4909279 L15.8053094,37.4909279 C16.2412811,37.4909279 16.5949521,37.8443098 16.5949521,38.2799252 L16.5949521,58.973879 C16.5949521,59.4094944 16.2412811,59.7628763 15.8053094,59.7628763 Z" id="Stroke-208"></path>
                <path d="M3.20973056,48.8889381 C1.25230652,47.3153886 1.49213975e-13,44.9017237 1.49213975e-13,42.1969077 L1.49213975e-13,2.95818414 C1.49213975e-13,1.32462641 1.32570992,3.90798505e-14 2.96060387,3.90798505e-14 L59.1542444,3.90798505e-14 C60.7891383,3.90798505e-14 62.1148482,1.32462641 62.1148482,2.95818414 L62.1148482,24.098866" id="Stroke-210"></path>
                <line x1="39.8495946" y1="50.7814203" x2="18.3423979" y2="50.7814203" id="Stroke-212"></line>
                <line x1="23.0324304" y1="59.6304136" x2="39.2456848" y2="59.6304136" id="Stroke-214"></line>
                <line x1="33.3253668" y1="51.4152851" x2="33.3253668" y2="59.5097304" id="Stroke-216"></line>
                <line x1="28.7897039" y1="51.4152851" x2="28.7897039" y2="59.5097304" id="Stroke-218"></line>
                <path d="M31.0369601,8.7467571 C29.8224675,8.7467571 28.8393068,7.76439993 28.8393068,6.55312242 C28.8393068,5.33962239 29.8224675,4.3550427 31.0369601,4.3550427 C32.2492284,4.3550427 33.2346135,5.33962239 33.2346135,6.55312242 C33.2346135,7.76439993 32.2492284,8.7467571 31.0369601,8.7467571 Z" id="Stroke-220"></path>
                <line x1="46.0566307" y1="59.6304136" x2="82.8005941" y2="59.6304136" id="Stroke-222"></line>
                <path d="M82.6475591,32.2697662 L82.6475591,52.9126019 C82.6475591,54.5683849 81.3040545,55.9107916 79.6469171,55.9107916 L48.0701083,55.9107916 C46.4107465,55.9107916 45.0672418,54.5683849 45.0672418,52.9126019 L45.0672418,32.2697662 C45.0672418,30.6139832 46.4107465,29.2693541 48.0701083,29.2693541 L79.6469171,29.2693541 C81.3040545,29.2693541 82.6475591,30.6139832 82.6475591,32.2697662 Z" id="Stroke-224"></path>
            </g>
        </g>
    </g>
</svg>