<?xml version="1.0" encoding="UTF-8"?>
<svg width="54px" height="70px" viewBox="0 0 54 70" version="1.1" xmlns="http://www.w3.org/2000/svg" xmlns:xlink="http://www.w3.org/1999/xlink">
    <title>Group 6</title>
    <g id="Digital-Wallet---Design-System" stroke="none" stroke-width="1" fill="none" fill-rule="evenodd" stroke-linecap="round">
        <g id="04_dw_iconography_graphics" transform="translate(-284.000000, -864.000000)" stroke="#323331" stroke-width="2.2243455">
            <g id="Group-6" transform="translate(285.298986, 866.000000)">
                <path d="M45.5456986,66.6702696 L5.27837188,66.6702696 C2.36225493,66.6702696 1.42108547e-14,64.3099454 1.42108547e-14,61.3984343 L1.42108547e-14,9.87802361 C1.42108547e-14,6.96651254 2.36225493,4.60618831 5.27837188,4.60618831 L45.5456986,4.60618831 C48.4595912,4.60618831 50.8240704,6.96651254 50.8240704,9.87802361 L50.8240704,61.3984343 C50.8240704,64.3099454 48.4595912,66.6702696 45.5456986,66.6702696 Z" id="Stroke-1"></path>
                <line x1="25.4113679" y1="27.0010425" x2="25.4113679" y2="43.5210896" id="Stroke-3"></line>
                <line x1="16.8823375" y1="35.2597325" x2="33.2913343" y2="35.2597325" id="Stroke-5"></line>
                <path d="M21.2929922,4.11612099 L21.2929922,4.11612099 C21.2929922,1.84247532 23.1369746,-3.86357613e-14 25.4124801,-3.86357613e-14 C27.6879855,-3.86357613e-14 29.5297436,1.84247532 29.5297436,4.11612099" id="Stroke-7"></path>
                <path d="M36.9817459,5.26850151 L36.9817459,7.72883949 C36.9817459,8.85566095 36.0675399,9.76911976 34.9397968,9.76911976 L15.8838288,9.76911976 C14.7560856,9.76911976 13.8418796,8.85566095 13.8418796,7.72883949 L13.8418796,5.26850151" id="Stroke-9"></path>
            </g>
        </g>
    </g>
</svg>