<?xml version="1.0" encoding="UTF-8"?>
<svg width="63px" height="82px" viewBox="0 0 63 82" version="1.1" xmlns="http://www.w3.org/2000/svg" xmlns:xlink="http://www.w3.org/1999/xlink">
    <title>Group 15</title>
    <g id="Digital-Wallet---Design-System" stroke="none" stroke-width="1" fill="none" fill-rule="evenodd">
        <g id="04_dw_iconography_graphics" transform="translate(-423.000000, -966.000000)">
            <g id="Group-15" transform="translate(424.385633, 966.398458)">
                <path d="M58.3596058,49.7966183 C58.3596058,64.0674676 45.8165215,75.6379459 30.3461985,75.6379459 C14.8758755,75.6379459 2.33279123,64.0674676 2.33279123,49.7966183 C2.33279123,35.5235465 14.8758755,23.9530682 30.3461985,23.9530682 C45.8165215,23.9530682 58.3596058,35.5235465 58.3596058,49.7966183 Z" id="Stroke-129" stroke="#323331" stroke-width="2.2243455" stroke-linecap="round"></path>
                <path d="M17.9163334,77.8386927 C17.9163334,78.8432751 16.8731154,79.6589427 15.5874437,79.6589427 L9.56614038,79.6589427 C8.27824433,79.6589427 7.23725064,78.8432751 7.23725064,77.8386927 L7.23725064,71.2133381" id="Stroke-131" stroke="#323331" stroke-width="2.2243455" stroke-linecap="round"></path>
                <path d="M41.1187038,54.7192946 C41.1187038,59.920009 36.5498981,64.1316987 30.9134066,64.1316987 C25.2769151,64.1316987 20.7081094,59.920009 20.7081094,54.7192946 C20.7081094,49.5208027 25.2769151,45.3068905 30.9134066,45.3068905 C36.5498981,45.3068905 41.1187038,49.5208027 41.1187038,54.7192946 Z" id="Stroke-133" stroke="#323331" stroke-width="2.2243455" stroke-linecap="round"></path>
                <path d="M16.8648853,21.6374168 C20.6240292,19.1081804 25.1083097,17.5968617 30.3466434,17.5968617 C35.5226954,17.5968617 39.7867657,18.8592574 43.3256994,21.0617821" id="Stroke-135" stroke="#323331" stroke-width="2.2243455" stroke-linecap="round" stroke-linejoin="round"></path>
                <path d="M58.0697736,32.9171885 C60.7923725,28.6032626 60.8991411,21.4778393 57.4981168,19.4864546 C54.0948682,17.4972925 49.130129,19.3797733 46.4075301,23.6959218" id="Stroke-137" stroke="#323331" stroke-width="2.2243455" stroke-linecap="round"></path>
                <line x1="27.6520712" y1="51.9106865" x2="27.6520712" y2="57.9026207" id="Stroke-139" stroke="#323331" stroke-width="2.2243455" stroke-linecap="round"></line>
                <line x1="33.4705142" y1="51.9280222" x2="33.4705142" y2="57.9199565" id="Stroke-141" stroke="#323331" stroke-width="2.2243455" stroke-linecap="round"></line>
                <path d="M2.01470983,33.2905731 C-0.710113418,28.9766472 -0.814657657,21.8512239 2.58636662,19.8598393 C5.9873909,17.8684546 10.9521301,19.7509354 13.6769533,24.0670839" id="Stroke-143" stroke="#323331" stroke-width="2.2243455" stroke-linecap="round"></path>
                <path d="M41.3793971,77.8386927 C41.3793971,78.8432751 42.4226151,79.6589427 43.7082868,79.6589427 L49.7295901,79.6589427 C51.0174862,79.6589427 52.0584799,78.8432751 52.0584799,77.8386927 L52.0584799,71.2133381" id="Stroke-145" stroke="#323331" stroke-width="2.2243455" stroke-linecap="round"></path>
                <path d="M17.8262474,39.8148027 C16.6139791,39.8148027 15.6285941,38.834668 15.6285941,37.621168 C15.6285941,36.407668 16.6139791,35.4230883 17.8262474,35.4230883 C19.0407401,35.4230883 20.0239008,36.407668 20.0239008,37.621168 C20.0239008,38.834668 19.0407401,39.8148027 17.8262474,39.8148027 Z" id="Stroke-147" stroke="#323331" stroke-width="2.2243455" stroke-linecap="round"></path>
                <path d="M40.8646835,39.8148027 C39.6524152,39.8148027 38.6670302,38.834668 38.6670302,37.621168 C38.6670302,36.407668 39.6524152,35.4230883 40.8646835,35.4230883 C42.0791762,35.4230883 43.0623369,36.407668 43.0623369,37.621168 C43.0623369,38.834668 42.0791762,39.8148027 40.8646835,39.8148027 Z" id="Stroke-149" stroke="#323331" stroke-width="2.2243455" stroke-linecap="round"></path>
                <path d="M27.3589025,13.2182602 C26.7916944,13.0293454 26.3090114,12.8026476 25.9086292,12.5337218 C25.61724,12.3403619 25.5037984,11.9669772 25.6550539,11.6491558 L25.6772973,11.6024827 C25.8574693,11.224653 26.3245818,11.097969 26.6849258,11.3179992 C27.0030072,11.5091366 27.3611269,11.6802712 27.761509,11.8225129 C28.4621779,12.0736586 29.1828658,12.2003426 29.9213485,12.2003426 C30.8956119,12.2003426 31.6251972,12.0358756 32.1056558,11.704719 C32.5883388,11.3757849 32.8285681,10.937947 32.8285681,10.3889827 C32.8285681,9.98448268 32.6973317,9.6555486 32.434859,9.40440299 C32.1701618,9.15325738 31.8454074,8.95989749 31.4605956,8.82432331 C31.0735595,8.69097166 30.5263705,8.54206231 29.821253,8.37092769 C28.9359635,8.15978758 28.2219486,7.94642493 27.6792083,7.73306229 C27.1342436,7.52192217 26.6693554,7.1929881 26.2823193,6.75070512 C25.8952832,6.31064467 25.7017651,5.71278476 25.7017651,4.96157046 C25.7017651,4.33704022 25.868591,3.7702957 26.2000185,3.26578195 C26.5292216,2.76349073 27.0319237,2.35899072 27.7036761,2.0589495 C28.3754284,1.75668576 29.209558,1.60333136 30.2082891,1.60333136 C30.9022849,1.60333136 31.585159,1.69223246 32.2591357,1.87447972 C32.6839856,1.9856061 33.0710218,2.13229291 33.420244,2.30787259 C33.7494471,2.47456215 33.9007026,2.85905942 33.7605689,3.19910613 L33.7316524,3.26800448 C33.5803969,3.63472152 33.1555469,3.80807867 32.801876,3.63694405 C32.4971406,3.49025723 32.1812836,3.37024075 31.8543048,3.27467206 C31.2937697,3.11242755 30.7443564,3.03241656 30.2082891,3.03241656 C29.2562692,3.03241656 28.54003,3.20577371 28.06402,3.55026548 C27.5880101,3.8992023 27.3500051,4.34815286 27.3500051,4.89711716 C27.3500051,5.29939464 27.4856902,5.62610619 27.7526117,5.8772518 C28.0217575,6.13061994 28.3554093,6.32620236 28.7535671,6.4662216 C29.151725,6.60624083 29.6922409,6.75515018 30.375115,6.9107271 C31.2604045,7.12408975 31.9721951,7.33745239 32.5104867,7.5485925 C33.0487783,7.76195515 33.5092178,8.08644417 33.8962539,8.52428209 C34.2832901,8.95989749 34.4768081,9.54886728 34.4768081,10.2867464 C34.4768081,10.9023865 34.3077579,11.464686 33.9718817,11.9736448 C33.6360055,12.4848262 33.1266304,12.8871036 32.4437563,13.1826998 C31.7586579,13.4805185 30.9200797,13.6294278 29.9213485,13.6294278 C29.036059,13.6294278 28.1819103,13.4916311 27.3589025,13.2182602" id="Fill-151" fill="#323331"></path>
                <line x1="29.8450535" y1="13.6285388" x2="29.8450535" y2="14.164168" id="Stroke-153" stroke="#323331" stroke-width="2.2243455" stroke-linecap="round"></line>
                <line x1="29.8450535" y1="0.844560462" x2="29.8450535" y2="1.37796707" id="Stroke-155" stroke="#323331" stroke-width="2.2243455" stroke-linecap="round"></line>
            </g>
        </g>
    </g>
</svg>