<?xml version="1.0" encoding="UTF-8"?>
<svg width="75px" height="57px" viewBox="0 0 75 57" version="1.1" xmlns="http://www.w3.org/2000/svg" xmlns:xlink="http://www.w3.org/1999/xlink">
    <title>Group 14</title>
    <g id="Digital-Wallet---Design-System" stroke="none" stroke-width="1" fill="none" fill-rule="evenodd" stroke-linecap="round">
        <g id="04_dw_iconography_graphics" transform="translate(-417.000000, -1083.000000)" stroke="#323331" stroke-width="2.2243455">
            <g id="Group-14" transform="translate(418.868826, 1084.546686)">
                <path d="M35.3856605,7.26433338 C28.3856452,-0.261144836 18.0313168,0.00111341296 18.0313168,0.00111341296 C17.6998894,0.00111341296 17.3706862,0.00778099555 17.0437074,0.0233386883 C4.62741082,0.583415626 -2.31032281,11.8960808 0.699216659,23.0465014 C1.02841979,24.2622239 1.47773759,25.4401635 2.03382396,26.5625399 C3.41514252,29.3540345 5.74180792,31.496551 8.07292201,33.5301637 C8.5467076,33.9435539 9.03828796,34.3369412 9.54543873,34.7103259 L35.5191212,53.8373978" id="Stroke-97"></path>
                <path d="M35.7311013,7.26433338 C42.7311166,-0.261144836 53.0854449,0.00111341296 53.0854449,0.00111341296 C53.4168724,0.00111341296 53.7460756,0.00778099555 54.0730544,0.0233386883 C66.489351,0.583415626 73.4270846,11.8960808 70.4175451,23.0465014 C70.088342,24.2622239 69.6390242,25.4401635 69.0829378,26.5625399 C67.7016193,29.3540345 65.3749539,31.496551 63.0438398,33.5301637 C62.5700542,33.9435539 62.0784738,34.3369412 61.571323,34.7103259 L35.5976406,53.8373978" id="Stroke-99"></path>
                <line x1="53.96028" y1="12.5277231" x2="53.96028" y2="22.9869376" id="Stroke-101"></line>
                <line x1="48.5613486" y1="17.7562191" x2="58.9490421" y2="17.7562191" id="Stroke-103"></line>
                <path d="M63.3474629,17.8691235 C63.3474629,23.0965082 59.1056361,27.3348682 53.8761998,27.3348682 C48.6445391,27.3348682 44.4027123,23.0965082 44.4027123,17.8691235 C44.4027123,12.6395162 48.6445391,8.40337874 53.8761998,8.40337874 C59.1056361,8.40337874 63.3474629,12.6395162 63.3474629,17.8691235 Z" id="Stroke-105"></path>
            </g>
        </g>
    </g>
</svg>