<?xml version="1.0" encoding="UTF-8"?>
<svg width="75px" height="59px" viewBox="0 0 75 59" version="1.1" xmlns="http://www.w3.org/2000/svg" xmlns:xlink="http://www.w3.org/1999/xlink">
    <title>Group 18</title>
    <g id="Digital-Wallet---Design-System" stroke="none" stroke-width="1" fill="none" fill-rule="evenodd" stroke-linecap="round">
        <g id="04_dw_iconography_graphics" transform="translate(-284.000000, -1082.000000)" stroke="#323331" stroke-width="2.2243455">
            <g id="Group-18" transform="translate(285.300320, 1083.585001)">
                <path d="M48.5169793,30.3883967 L71.3610076,45.9349767 C72.4776291,46.6950812 72.7690183,48.2264026 72.0082922,49.3421115 L71.3409885,50.3244686 C70.5802623,51.4401774 69.0454639,51.7313285 67.9288425,50.9712241 L45.0848142,35.4246441" id="Stroke-59"></path>
                <path d="M46.9236806,21.9996888 L47.7199963,22.539763 C49.7107855,23.8977273 50.2312824,26.6336587 48.8744316,28.6205983 L42.6551616,37.7462963 C41.3005352,39.7354585 38.5601415,40.2555299 36.5693523,38.8997881 L35.7730366,38.3574914 C33.7822474,37.0017496 33.2617505,34.2680407 34.6186013,32.2766561 L40.8378713,23.1531805 C42.1947221,21.1640184 44.930667,20.643947 46.9236806,21.9996888 Z" id="Stroke-61"></path>
                <path d="M46.3024209,16.5409389 L53.0288417,21.1193456 C53.9652912,21.757211 54.2099692,23.0418319 53.5738064,23.977516 C52.9354192,24.9132001 51.6475231,25.1554556 50.7110737,24.5198127 L43.9846529,19.941406 C43.0504278,19.3035406 42.8057498,18.0189197 43.4419126,17.0832356 C44.0780754,16.1475515 45.3681958,15.905296 46.3024209,16.5409389 Z" id="Stroke-63"></path>
                <path d="M32.3015006,37.0819828 L39.0301457,41.6603895 C39.9643708,42.2960324 40.2090488,43.5828759 39.572886,44.51856 C38.9344988,45.454244 37.6466028,45.6964995 36.7123777,45.0608567 L29.9837325,40.4802274 C29.0495074,39.8445846 28.8048294,38.5577411 29.4409922,37.622057 C30.0793794,36.6885955 31.3672754,36.4441174 32.3015006,37.0819828 Z" id="Stroke-65"></path>
                <path d="M61.3830386,51.6542068 C61.6899982,56.4215284 58.2689548,55.7258773 53.5244259,55.7258773 L8.10773937,55.7258773 C3.63013186,55.7258773 1.42108547e-13,52.0987123 1.42108547e-13,47.6247644 L1.42108547e-13,13.0466811 C1.42108547e-13,8.57051066 3.63013186,4.94334573 8.10773937,4.94334573 L54.0071089,4.94334573 C58.4847164,4.94334573 62.1148482,8.57051066 62.1148482,13.0466811 L62.1148482,34.3118245" id="Stroke-67"></path>
                <path d="M3.06336863,6.20751939 L3.06336863,1.5579918 C3.06336863,0.697873645 3.76181312,8.52651283e-14 4.62263483,8.52651283e-14 L16.1136037,8.52651283e-14 C16.9744254,8.52651283e-14 17.6728699,0.697873645 17.6728699,1.5579918 L17.6728699,4.50061825" id="Stroke-69"></path>
                <path d="M17.6748718,4.50150726 L17.6748718,1.55888081 C17.6748718,0.698762656 18.3733163,0.000889011012 19.234138,0.000889011012 L30.7251069,0.000889011012 C31.5859286,0.000889011012 32.2843731,0.698762656 32.2843731,1.55888081 L32.2843731,4.50150726" id="Stroke-71"></path>
            </g>
        </g>
    </g>
</svg>