<?xml version="1.0" encoding="UTF-8"?>
<svg width="58px" height="57px" viewBox="0 0 58 57" version="1.1" xmlns="http://www.w3.org/2000/svg" xmlns:xlink="http://www.w3.org/1999/xlink">
    <title>Group 32</title>
    <defs>
        <path d="M7.35368624,1.04903299 L7.35368624,7.34989854 L1.04766673,7.34989854 C0.469336902,7.34989854 0,7.82329691 0,8.40115407 L0,8.40115407 C0,8.98123375 0.469336902,9.45018706 1.04766673,9.45018706 L1.04766673,9.45018706 L7.35368624,9.45018706 L7.35368624,15.7510526 C7.35368624,16.3311323 7.82747183,16.8045307 8.40580166,16.8045307 L8.40580166,16.8045307 C8.98858019,16.8045307 9.45791709,16.3311323 9.45791709,15.7510526 L9.45791709,15.7510526 L9.45791709,9.45018706 L15.7617122,9.45018706 C16.3422664,9.45018706 16.816052,8.98123375 16.816052,8.40115407 L16.816052,8.40115407 C16.816052,7.82329691 16.3422664,7.34989854 15.7617122,7.34989854 L15.7617122,7.34989854 L9.45791709,7.34989854 L9.45791709,1.04903299 C9.45791709,0.468953309 8.98858019,0 8.40580166,0 L8.40580166,0 C7.82747183,0 7.35368624,0.468953309 7.35368624,1.04903299 L7.35368624,1.04903299 Z" id="path-1"></path>
        <path d="M11.9837827,3.94800198e-15 C7.10579297,0.0111126377 2.59926898,2.61146985 0.152488921,6.82760457 L0.152488921,6.82760457 C-0.0454778294,7.15431612 -0.0499265204,7.56103866 0.134694156,7.89219526 L0.134694156,7.89219526 C0.323763524,8.22335186 0.67743446,8.42789468 1.05779754,8.42337934 L1.05779754,8.42337934 C1.44038497,8.41893429 1.78960721,8.21223923 1.97200354,7.87663757 L1.97200354,7.87663757 C4.04509355,4.30948088 7.8553974,2.10917863 11.9837827,2.10251104 L11.9837827,2.10251104 L28.7998347,2.10251104 C32.9304443,2.10917863 36.7429725,4.30948088 38.8138381,7.87663757 L38.8138381,7.87663757 C38.9962345,8.21446175 39.3454567,8.42337934 39.7280441,8.42789468 L39.7280441,8.42789468 C40.1106316,8.43226945 40.4665269,8.22557439 40.6533719,7.89441779 L40.6533719,7.89441779 C40.8424412,7.56103866 40.8313195,7.15209359 40.6311284,6.82760457 L40.6311284,6.82760457 C38.1865727,2.61146985 33.6800487,0.0111126377 28.7998347,3.94800198e-15 L28.7998347,3.94800198e-15 L11.9837827,3.94800198e-15 Z" id="path-3"></path>
        <path d="M0,12.6017311 C0,19.5626873 5.64538889,25.2034622 12.612039,25.2034622 L12.612039,25.2034622 C19.5764648,25.1967946 25.217405,19.5582423 25.224078,12.6017311 L25.224078,12.6017311 C25.224078,5.64077487 19.5786891,7.89600396e-15 12.612039,7.89600396e-15 L12.612039,7.89600396e-15 C5.64538889,7.89600396e-15 0,5.64077487 0,12.6017311 L0,12.6017311 Z M2.1020065,12.6017311 C2.1020065,6.80315677 6.80649724,2.10028852 12.612039,2.10028852 L12.612039,2.10028852 C18.4175808,2.10028852 23.1220715,6.80315677 23.1220715,12.6017311 L23.1220715,12.6017311 C23.1220715,18.4003054 18.4175808,23.1053962 12.612039,23.1053962 L12.612039,23.1053962 C6.81094594,23.0987286 2.10867954,18.3980829 2.1020065,12.6017311 L2.1020065,12.6017311 Z" id="path-5"></path>
    </defs>
    <g id="Digital-Wallet---Design-System" stroke="none" stroke-width="1" fill="none" fill-rule="evenodd">
        <g id="04_dw_iconography_graphics" transform="translate(-150.000000, -1172.000000)">
            <g id="Group-32" transform="translate(150.974849, 1172.337505)">
                <g id="Group-20" transform="translate(-0.000000, 0.000000)">
                    <g id="Group-176" transform="translate(39.890660, 0.003910)">
                        <mask id="mask-2" fill="white">
                            <use xlink:href="#path-1"></use>
                        </mask>
                        <g id="Clip-175"></g>
                        <polygon id="Fill-174" fill="#323331" mask="url(#mask-2)" points="-12.8077814 29.5951766 29.6171604 29.5951766 29.6171604 -12.795091 -12.8077814 -12.795091"></polygon>
                    </g>
                    <g id="Group-179" transform="translate(7.934480, 34.657559)">
                        <mask id="mask-4" fill="white">
                            <use xlink:href="#path-3"></use>
                        </mask>
                        <g id="Clip-178"></g>
                        <polygon id="Fill-177" fill="#323331" mask="url(#mask-4)" points="-12.806548 21.2229154 53.5923897 21.2229154 53.5923897 -12.7928685 -12.806548 -12.7928685"></polygon>
                    </g>
                    <g id="Group-182" transform="translate(15.714249, 7.353809)">
                        <mask id="mask-6" fill="white">
                            <use xlink:href="#path-5"></use>
                        </mask>
                        <g id="Clip-181"></g>
                        <polygon id="Fill-180" fill="#323331" mask="url(#mask-6)" points="-12.8033327 37.9985532 38.0318594 37.9985532 38.0318594 -12.795091 -12.8033327 -12.795091"></polygon>
                    </g>
                    <path d="M53.0191925,16.598412 C52.4875739,16.8295548 52.2406716,17.445195 52.4720035,17.9786016 C57.4411914,29.5335222 53.4996511,42.9887039 43.0785925,50.0452288 C32.6597581,57.1017537 18.6930927,55.7704597 9.79126197,46.878127 C0.891655608,37.9835719 -0.438503004,24.030544 6.62379397,13.6180025 C13.686091,3.20768359 27.1500543,-0.732857718 38.7144266,4.23449131 C39.2460451,4.45452154 39.8577402,4.21004351 40.0846234,3.68108196 C40.313731,3.15212041 40.0735017,2.54092533 39.5485561,2.30533742 C27.0566318,-3.05984404 12.5138609,1.19185112 4.88435579,12.4378404 C-2.74514929,23.6838297 -1.31044644,38.7570114 8.30539918,48.364998 C17.9190204,57.9707619 33.0045317,59.4065147 44.2597199,51.7810228 C55.5149082,44.1599759 59.7700811,29.6268683 54.4005111,17.1451537 C54.2915181,16.8895631 54.0824297,16.6873131 53.8244056,16.5850768 C53.5641572,16.4828405 53.2749922,16.4872856 53.0191925,16.598412" id="Fill-183" fill="#323331"></path>
                </g>
            </g>
        </g>
    </g>
</svg>