<?xml version="1.0" encoding="UTF-8"?>
<svg width="57px" height="57px" viewBox="0 0 57 57" version="1.1" xmlns="http://www.w3.org/2000/svg" xmlns:xlink="http://www.w3.org/1999/xlink">
    <title>Group 21</title>
    <defs>
        <path d="M8.46534488,0.00222252753 L3.94325047,0.00222252753 C3.82536016,0.00222252753 3.70969419,0.00666758259 3.59402822,0.0177802202 L3.59402822,0.0177802202 C2.53968846,0.111126377 1.59211727,0.611195071 0.915916237,1.41797256 L0.915916237,1.41797256 C0.239715203,2.22475006 -0.0805905493,3.24933525 0.0172806529,4.31170341 L0.0172806529,4.31170341 C0.522207083,9.08124749 2.17489579,13.72633 4.78182872,17.7446598 L4.78182872,17.7446598 C7.15298103,21.4651709 10.378282,24.6833908 14.1062851,27.043715 L14.1062851,27.043715 C18.1190044,29.6374046 22.7589891,31.2842975 27.5368832,31.8021464 L27.5368832,31.8021464 C27.6592222,31.8132591 27.7793369,31.8177041 27.9039002,31.8177041 L27.9039002,31.8177041 C28.9626887,31.8154816 29.9502981,31.399869 30.6954539,30.6508772 L30.6954539,30.6508772 C31.4383853,29.9063305 31.8454405,28.9128606 31.8409918,27.8638277 L31.8409918,27.8638277 L31.8409918,23.3654319 C31.8854787,21.3696022 30.4263081,19.6560335 28.4332945,19.3782175 L28.4332945,19.3782175 C27.0608733,19.1959703 25.7017982,18.8603686 24.4072291,18.3780802 L24.4072291,18.3780802 C22.9680776,17.8402285 21.3331836,18.1869428 20.2365813,19.2670912 L20.2365813,19.2670912 L18.8352436,20.665061 C15.6877947,18.7514648 13.0385992,16.1088795 11.1167647,12.9706707 L11.1167647,12.9706707 L12.5225511,11.5727009 C13.603583,10.4836624 13.9505809,8.85010463 13.4100649,7.41435184 L13.4100649,7.41435184 C12.927382,6.12084082 12.5892814,4.76954408 12.4068851,3.38935448 L12.4068851,3.38935448 C12.1332906,1.4690907 10.493948,0 8.5543187,0 L8.5543187,0 C8.52317786,0 8.49426137,0 8.46534488,0.00222252753 L8.46534488,0.00222252753 Z M27.7215039,29.9396684 C23.2527938,29.4551574 18.8975253,27.9105007 15.1161379,25.467943 L15.1161379,25.467943 C11.6150181,23.247638 8.58768388,20.2294456 6.35888969,16.7334098 L6.35888969,16.7334098 C3.90321225,12.9528904 2.35506778,8.59006891 1.87905784,4.13167868 L1.87905784,4.13167868 C1.83012224,3.58049185 1.9991725,3.04486272 2.35284343,2.62035996 L2.35284343,2.62035996 C2.70873871,2.1958572 3.20921645,1.93582148 3.76085414,1.88470335 L3.76085414,1.88470335 C3.82313581,1.87803576 3.88319314,1.87359071 3.94547481,1.87359071 L3.94547481,1.87359071 L8.47646661,1.87359071 L8.49648572,1.87359071 C9.52635769,1.87359071 10.4071985,2.63591765 10.551781,3.64716768 L10.551781,3.64716768 C10.7519721,5.1584864 11.1256621,6.64535732 11.659505,8.07666505 L11.659505,8.07666505 C11.9442213,8.83010188 11.7596006,9.68355245 11.1968412,10.254742 L11.1968412,10.254742 L9.28390403,12.1638932 C8.98361738,12.4617119 8.92133571,12.9217751 9.12819984,13.2884921 L9.12819984,13.2884921 C11.3592184,17.1956955 14.6067628,20.4339181 18.5216109,22.6542231 L18.5216109,22.6542231 C18.8908523,22.8631407 19.3490674,22.8009099 19.6471297,22.5053138 L19.6471297,22.5053138 L21.5578425,20.5983852 C22.133948,20.0316406 22.9925454,19.8471708 23.7532715,20.1338769 L23.7532715,20.1338769 C25.1813013,20.6672835 26.6760615,21.0362231 28.1841678,21.234028 L28.1841678,21.234028 C29.2273858,21.3829374 29.994785,22.2852835 29.9680929,23.3343165 L29.9680929,23.3343165 L29.9680929,23.3587643 L29.9680929,27.8682727 C29.9703172,28.4216821 29.7567801,28.9417535 29.3675196,29.3329183 L29.3675196,29.3329183 C28.9760348,29.7263057 28.4555379,29.9441134 27.9039002,29.9463359 L27.9039002,29.9463359 C27.8371699,29.9463359 27.7682152,29.9441134 27.7215039,29.9396684 L27.7215039,29.9396684 Z" id="path-1"></path>
    </defs>
    <g id="Digital-Wallet---Design-System" stroke="none" stroke-width="1" fill="none" fill-rule="evenodd">
        <g id="04_dw_iconography_graphics" transform="translate(-426.000000, -1172.000000)">
            <g id="Group-21" transform="translate(426.258207, 1172.522996)">
                <g id="Group-187" transform="translate(12.248650, 13.460293)">
                    <mask id="mask-2" fill="white">
                        <use xlink:href="#path-1"></use>
                    </mask>
                    <g id="Clip-186"></g>
                    <polygon id="Fill-185" fill="#323331" mask="url(#mask-2)" points="-13.6090599 45.4151276 45.4517619 45.4151276 45.4517619 -13.5974234 -13.6090599 -13.5974234"></polygon>
                </g>
                <path d="M28.1691115,0 C12.6365068,0 -1.13686838e-13,12.6261789 -1.13686838e-13,28.1460886 C-1.13686838e-13,33.5134926 1.51700363,38.7164296 4.38863368,43.2281605 L1.28344736,53.8073915 C1.15665966,54.1429932 1.23896045,54.5230454 1.49031149,54.7808586 C1.67048347,54.9675509 1.91516148,55.0675646 2.16428818,55.0675646 C2.26438372,55.0675646 2.36447927,55.0520069 2.46012613,55.0208915 L13.4884311,52.1649437 C17.9082057,54.8653146 22.9730404,56.2921773 28.1691115,56.2921773 C43.7017161,56.2921773 56.3382229,43.6637759 56.3382229,28.1460886 C56.3382229,12.6261789 43.7017161,0 28.1691115,0 M28.1691115,54.4141415 C23.1799045,54.4141415 18.3197096,53.0072816 14.1134722,50.3402486 C13.9622167,50.2446799 13.7864934,50.1957843 13.6107701,50.1957843 C13.5106746,50.1957843 13.410579,50.211342 13.3127078,50.2424574 L3.60566406,52.6250069 L6.31269254,43.432633 C6.41723678,43.1548171 6.38164725,42.8414407 6.21482134,42.5947401 C3.37878082,38.2985944 1.87957195,33.3023525 1.87957195,28.1460886 C1.87957195,13.6596542 13.6730518,1.87581324 28.1691115,1.87581324 C42.6673955,1.87581324 54.4608753,13.6596542 54.4608753,28.1460886 C54.4608753,42.6303006 42.6673955,54.4141415 28.1691115,54.4141415" id="Fill-188" fill="#323331"></path>
            </g>
        </g>
    </g>
</svg>