<?xml version="1.0" encoding="UTF-8"?>
<svg width="72px" height="51px" viewBox="0 0 72 51" version="1.1" xmlns="http://www.w3.org/2000/svg" xmlns:xlink="http://www.w3.org/1999/xlink">
    <title>Group 8</title>
    <g id="Digital-Wallet---Design-System" stroke="none" stroke-width="1" fill="none" fill-rule="evenodd" stroke-linecap="round">
        <g id="04_dw_iconography_graphics" transform="translate(-563.000000, -874.000000)" stroke="#323331" stroke-width="2.2243455">
            <g id="Group-8" transform="translate(564.977290, 875.291943)">
                <path d="M62.1571108,48.0843831 L5.8655991,48.0843831 C2.64029811,48.0843831 0,45.4462429 0,42.223578 L0,5.86302763 C0,2.64036271 2.64029811,4.97379915e-14 5.8655991,4.97379915e-14 L62.1571108,4.97379915e-14 C65.3846361,4.97379915e-14 68.0227099,2.64036271 68.0227099,5.86302763 L68.0227099,42.223578 C68.0227099,45.4462429 65.3846361,48.0843831 62.1571108,48.0843831 Z" id="Stroke-119"></path>
                <path d="M20.7916247,11.8078443 C18.5628305,9.41195959 15.2641262,9.49641563 15.2641262,9.49641563 C15.1595819,9.49641563 15.0528133,9.49863816 14.9504934,9.50308322 C10.9956071,9.68088542 8.78683205,13.2836025 9.74330061,16.8352015 C9.8500692,17.2241439 9.99242731,17.595306 10.170375,17.9553554 C10.608571,18.8443664 11.3492781,19.5289049 12.0922095,20.1756604 C12.243465,20.304567 12.4013935,20.4312511 12.5615464,20.5512676 L20.8338873,26.6432155" id="Stroke-121"></path>
                <path d="M20.901285,11.8078443 C23.1300792,9.41195959 26.4287836,9.49641563 26.4287836,9.49641563 C26.5333278,9.49641563 26.637872,9.49863816 26.7424163,9.50308322 C30.6973026,9.68088542 32.9060777,13.2836025 31.9473847,16.8352015 C31.8428405,17.2241439 31.7004824,17.595306 31.5225348,17.9553554 C31.0821143,18.8443664 30.3414073,19.5289049 29.6007002,20.1756604 C29.4494447,20.304567 29.2915162,20.4312511 29.1313633,20.5512676 L20.8590224,26.6432155" id="Stroke-123"></path>
                <line x1="67.8004978" y1="40.9436244" x2="0.469559336" y2="40.9436244" id="Stroke-125"></line>
                <line x1="0.470671509" y1="35.096599" x2="67.8016099" y2="35.096599" id="Stroke-127"></line>
            </g>
        </g>
    </g>
</svg>