<?xml version="1.0" encoding="UTF-8"?>
<svg width="68px" height="81px" viewBox="0 0 68 81" version="1.1" xmlns="http://www.w3.org/2000/svg" xmlns:xlink="http://www.w3.org/1999/xlink">
    <title>Group 10</title>
    <g id="Digital-Wallet---Design-System" stroke="none" stroke-width="1" fill="none" fill-rule="evenodd" stroke-linecap="round">
        <g id="04_dw_iconography_graphics" transform="translate(-565.000000, -966.000000)" stroke="#323331" stroke-width="2.2243455">
            <g id="Group-10" transform="translate(567.051559, 967.883329)">
                <path d="M31.7691479,30.7159972 C25.0627462,23.5083404 17.2753126,23.915063 17.2753126,23.915063 C16.9572312,23.915063 16.6435985,23.9217306 16.3299658,23.9350657 C4.43194167,24.4706949 -2.2144027,35.3099616 0.670573423,45.9936515 C0.91970012,46.9204455 1.24445456,47.8227916 1.63371503,48.696245 C1.73603492,48.9184977 1.83835481,49.1407505 1.94734774,49.3630032 L10.8758706,66.9832015 C13.0690753,71.3104626 17.6912652,74.0041659 22.5114219,73.4463115 C22.7538756,73.4196412 22.9963293,73.3840808 23.2387829,73.3418527 C25.821248,72.8973472 29.2089263,72.1239077 32.0761076,70.8281741" id="Stroke-83"></path>
                <path d="M51.9804409,67.8999941 C49.0576509,72.1561343 46.1837965,73.9541591 41.3614155,73.3963047 C41.1189618,73.3696343 40.8787325,73.3340739 40.6362788,73.2940684 C38.0538137,72.8495629 34.9419544,72.1227964 32.0769973,70.8270628" id="Stroke-85"></path>
                <path d="M59.2814102,29.0686598 C63.3030268,33.3314676 64.9001069,39.6656711 63.2051556,45.9443114" id="Stroke-87"></path>
                <path d="M32.1059138,30.6662126 C38.8123155,23.4585558 46.5997491,23.8652784 46.5997491,23.8652784 C46.9156062,23.8652784 47.2314633,23.871946 47.545096,23.8852811 C50.4322965,24.0164102 53.0103129,24.7542894 55.219088,25.9477867" id="Stroke-89"></path>
                <path d="M31.893044,26.1387018 C32.0887864,20.5557126 36.4462792,13.0591273 45.3080717,14.8438169" id="Stroke-91"></path>
                <path d="M57.3437828,5.68434189e-14 C57.6952294,5.68434189e-14 59.1966626,4.49172814 59.1966626,4.84288749 L59.1966626,76.89723 C59.1966626,77.2461669 58.9119464,77.5328729 58.5604998,77.5328729 L56.5007559,77.5328729 C56.1493093,77.5328729 55.8623687,77.2461669 55.8623687,76.89723 L55.8623687,4.84288749 C55.8623687,4.49172814 56.9923362,5.68434189e-14 57.3437828,5.68434189e-14" id="Stroke-93"></path>
                <path d="M21.7335683,19.4406706 C19.6426835,16.8714287 18.4971456,12.4974946 20.1787508,11.1306401 C21.8625804,9.76378569 25.7307172,11.9218599 27.8238263,14.4888792 C29.9147111,17.0603436 30.2461386,20.2496706 28.5645334,21.616525 C26.8829282,22.9833794 23.8244531,22.0076899 21.7335683,19.4406706 Z" id="Stroke-95"></path>
            </g>
        </g>
    </g>
</svg>