<?xml version="1.0" encoding="UTF-8"?>
<svg width="69px" height="73px" viewBox="0 0 69 73" version="1.1" xmlns="http://www.w3.org/2000/svg" xmlns:xlink="http://www.w3.org/1999/xlink">
    <title>Group 33</title>
    <g id="Digital-Wallet---Design-System" stroke="none" stroke-width="1" fill="none" fill-rule="evenodd" stroke-linecap="round">
        <g id="04_dw_iconography_graphics" transform="translate(-145.000000, -970.000000)" stroke="#323331" stroke-width="2.2243455">
            <g id="Group-33" transform="translate(146.552543, 971.618953)">
                <path d="M58.6177322,52.9279374 L10.0091099,52.9279374 C6.25663904,52.9279374 3.18704224,50.3342477 3.18704224,47.1649235 L3.18704224,21.4880629 C3.18704224,18.3209612 6.25663904,15.7272716 10.0091099,15.7272716 L57.4788673,19.9078458 C63.5757984,20.8501975 65.575485,24.3729037 65.5534247,27.5222252 L65.4420242,47.1649235 C65.4420242,50.3342477 62.3702031,52.9279374 58.6177322,52.9279374 Z" id="Stroke-73"></path>
                <path d="M60.2641928,65.6772443 C60.2641928,68.0997993 58.2978713,70.0622911 55.8733347,70.0622911 C53.4510225,70.0622911 51.4847011,68.0997993 51.4847011,65.6772443 C51.4847011,63.2546893 53.4510225,61.289975 55.8733347,61.289975 C58.2978713,61.289975 60.2641928,63.2546893 60.2641928,65.6772443 Z" id="Stroke-75"></path>
                <path d="M14.8237057,65.6772443 C14.8237057,68.0997993 12.8573843,70.0622911 10.4328477,70.0622911 C8.01053547,70.0622911 6.04421404,68.0997993 6.04421404,65.6772443 C6.04421404,63.2546893 8.01053547,61.289975 10.4328477,61.289975 C12.8573843,61.289975 14.8237057,63.2546893 14.8237057,65.6772443 Z" id="Stroke-77"></path>
                <path d="M3.12742978,21.7540995 L3.12742978,8.22335186 C3.12742978,5.18515673 2.99396905,0.535629135 -1.59872116e-13,-4.97379915e-14" id="Stroke-79"></path>
                <path d="M3.29025187,48.6413485 C3.29025187,48.6413485 2.8809723,60.545206 8.71987925,61.0319395 C14.5587862,61.5164505 55.8737796,61.2786401 55.8737796,61.2786401" id="Stroke-81"></path>
            </g>
        </g>
    </g>
</svg>