<?xml version="1.0" encoding="UTF-8"?>
<svg width="53px" height="61px" viewBox="0 0 53 61" version="1.1" xmlns="http://www.w3.org/2000/svg" xmlns:xlink="http://www.w3.org/1999/xlink">
    <title>Group 9</title>
    <g id="Digital-Wallet---Styleguide-/-Library" stroke="none" stroke-width="1" fill="none" fill-rule="evenodd">
        <g id="04_dw_iconography_graphics" transform="translate(-266.000000, -1027.000000)" fill="#333332" fill-rule="nonzero">
            <g id="Group-9" transform="translate(266.000000, 1027.000000)">
                <path d="M17.327316,5.38235294 L6.43130464,5.38235294 C5.90732782,5.38235294 5.48275862,5.78399608 5.48275862,6.27941176 C5.48275862,6.77482745 5.90732782,7.17647059 6.43130464,7.17647059 L17.327316,7.17647059 C17.8512929,7.17647059 18.2758621,6.77482745 18.2758621,6.27941176 C18.2758621,5.78399608 17.8511664,5.38235294 17.327316,5.38235294 Z" id="Path"></path>
                <path d="M17.327316,10.7647059 L6.43130464,10.7647059 C5.90732782,10.7647059 5.48275862,11.166349 5.48275862,11.6617647 C5.48275862,12.1571804 5.90732782,12.5588235 6.43130464,12.5588235 L17.327316,12.5588235 C17.8512929,12.5588235 18.2758621,12.1571804 18.2758621,11.6617647 C18.2758621,11.166349 17.8511664,10.7647059 17.327316,10.7647059 Z" id="Path"></path>
                <path d="M52.0146474,52.2922868 L33.1516735,35.1805412 C34.011962,34.2472451 34.823949,33.3045381 35.5796832,32.3576486 C37.0378657,33.3577498 39.0641543,33.2259986 40.3706678,31.9557725 C41.8405994,30.5266083 41.8487881,28.2051606 40.3887067,26.7658885 L32.5337231,19.0231208 C31.077202,17.5874504 28.6989179,17.57955 27.2323093,19.005461 C26.0822119,20.1237201 25.8294302,21.796868 26.4763377,23.1593433 C22.8786489,25.85397 19.2099913,29.3890629 16.3227021,33.0313925 C14.9623093,32.3984288 13.2450552,32.6054665 12.0733586,33.7447546 C10.6035458,35.1739188 10.595001,37.4953665 12.0553197,38.9346386 L19.9103034,46.6772901 C21.3687233,48.1149356 23.7414296,48.1244626 25.2115985,46.6949499 C26.5173999,45.4251885 26.6659833,43.4407869 25.6548565,42.0074402 C26.6294309,41.2723519 27.6003262,40.4819606 28.5617274,39.6439343 L45.9110968,58.2266698 C47.0900327,59.4892279 49.104691,59.5380247 50.3454575,58.3314667 L52.0913127,56.6339204 C53.3301804,55.4295699 53.3000364,53.458297 52.0146474,52.2922868 L52.0146474,52.2922868 Z M28.4868423,20.2419941 C29.2588353,19.4914535 30.5075531,19.4991216 31.270764,20.2512888 L39.1257476,27.9940565 C39.8922814,28.7497092 39.8883651,29.9686987 39.1162535,30.7192393 C38.3460407,31.4681534 37.0972042,31.4638547 36.3323318,30.7099447 L28.4773482,22.9672932 C27.7124758,22.2133832 27.7167482,20.990792 28.4868423,20.2419941 L28.4868423,20.2419941 Z M27.5634177,24.5394783 L34.2769674,31.157016 C31.5370748,34.614615 27.9948081,38.0604795 24.4374694,40.7240854 L17.7239197,34.1066639 C20.3935555,30.7373639 23.9211064,27.2668686 27.5634177,24.5394783 Z M23.9571841,45.4586491 C23.1860219,46.2084927 21.9401523,46.2051234 21.1733812,45.4493545 L13.3183975,37.706703 C12.551745,36.9510503 12.5558987,35.7319446 13.3278917,34.9814039 C14.0990539,34.2315604 15.3449235,34.2349297 16.1116946,34.9906986 L23.966797,42.7333501 C24.7316693,43.4871439 24.7273969,44.7097351 23.9571841,45.4586491 L23.9571841,45.4586491 Z M50.8368983,55.3975034 L49.0910431,57.0950497 C48.5543864,57.6169427 47.7083391,57.5684945 47.2250869,57.0509003 L29.8721572,38.4643307 C30.2215419,38.1405294 30.5698585,37.8127778 30.9155642,37.4766611 C31.263406,37.1384531 31.6027031,36.7975729 31.9379653,36.4555308 L50.8046182,53.5705295 C51.3423431,54.0583809 51.361094,54.8878097 50.8368983,55.3975034 L50.8368983,55.3975034 Z" id="Shape"></path>
                <path d="M43.1190086,59.1715381 C42.9514112,59.1989406 42.7792516,59.2129993 42.6073321,59.2129993 L4.90990925,59.2129993 C3.19551689,59.2129993 1.8008323,57.8288154 1.8008323,56.1274773 L1.8008323,4.87252269 C1.8008323,3.17130374 3.19551689,1.78711985 4.90990925,1.78711985 L34.2529109,1.78711985 C34.374167,1.78711985 34.4935021,1.79915312 34.6106763,1.8186923 L34.6106763,7.93576525 C34.6106763,10.6225212 36.8133343,12.8082879 39.5205855,12.8082879 L45.6845944,12.8082879 C45.7042835,12.924689 45.7164091,13.0429963 45.7164091,13.1633291 L45.7164091,44.3449962 C45.7164091,44.8384795 46.1194353,45.2385561 46.6168252,45.2385561 C47.1142151,45.2385561 47.5172414,44.8384795 47.5172414,44.3449962 L47.5172414,13.1633291 C47.5172414,12.1194128 47.1076121,11.1380457 46.3639884,10.3999652 L37.0374779,1.14470983 C36.2938542,0.406510194 35.3049571,-3.55271368e-15 34.2529109,-3.55271368e-15 L4.90990925,-3.55271368e-15 C2.20265802,-3.55271368e-15 1.7408297e-13,2.18588585 1.7408297e-13,4.87252269 L1.7408297e-13,56.1273582 C1.7408297e-13,58.8141141 2.20265802,61 4.90990925,61 L42.6073321,61 C42.8772169,61 43.1481821,60.9779589 43.4126643,60.9345914 C43.9032111,60.854171 44.2352845,60.3941664 44.154127,59.9072358 C44.0730896,59.4204243 43.6093152,59.0901646 43.1190086,59.1715381 Z M44.4431006,11.0211681 L39.5205855,11.0211681 C37.8061932,11.0211681 36.4115086,9.6369842 36.4115086,7.93576525 L36.4115086,3.05085186 L44.4431006,11.0211681 Z" id="Shape"></path>
            </g>
        </g>
    </g>
</svg>