<?xml version="1.0" encoding="UTF-8"?>
<svg width="58px" height="58px" viewBox="0 0 58 58" version="1.1" xmlns="http://www.w3.org/2000/svg" xmlns:xlink="http://www.w3.org/1999/xlink">
    <title>Combined Shape 2</title>
    <g id="Digital-Wallet---Styleguide-/-Library" stroke="none" stroke-width="1" fill="none" fill-rule="evenodd">
        <g id="04_dw_iconography_graphics" transform="translate(-256.000000, -950.000000)" fill="#333332" fill-rule="nonzero">
            <g id="Combined-Shape-2" transform="translate(256.000000, 950.000000)">
                <path d="M54.6015625,4.86721774e-13 C56.4755707,4.86721774e-13 58,1.52442929 58,3.3984375 L58,3.3984375 L58,49.1640625 C58,51.0380707 56.4755707,52.5625 54.6015625,52.5625 L54.6015625,52.5625 L36.4765625,52.5625 C35.8508605,52.5625 35.34375,52.0553895 35.34375,51.4296875 C35.34375,50.8039855 35.8508605,50.296875 36.4765625,50.296875 L36.4765625,50.296875 L54.6015625,50.296875 C55.2263794,50.296875 55.734375,49.7888794 55.734375,49.1640625 L55.734375,49.1640625 L55.734375,11.9445343 C54.9161835,12.595459 53.9364776,13.0264588 52.8903961,13.1835479 L52.8903961,13.1835479 L41.234375,14.9318848 L41.234375,24.5811463 C41.234375,27.2047577 39.1001739,29.3389588 36.4765625,29.3389588 C33.8529511,29.3389588 31.71875,27.2047577 31.71875,24.5811463 L31.71875,24.5811463 L31.71875,14.9318848 L20.0627289,13.1835479 C19.0166474,13.0264588 18.0369415,12.595459 17.21875,11.9445343 L17.21875,11.9445343 L17.21875,20.1640625 L26.28125,20.1640625 C27.5304413,20.1640625 28.546875,21.1804962 28.546875,22.4296875 L28.546875,22.4296875 L28.546875,55.734375 C28.546875,56.9835663 27.5304413,58 26.28125,58 L26.28125,58 L2.265625,58 C1.01643369,58 3.55271368e-14,56.9835663 3.55271368e-14,55.734375 L3.55271368e-14,55.734375 L3.55271368e-14,22.4296875 C3.55271368e-14,21.1804962 1.01643369,20.1640625 2.265625,20.1640625 L2.265625,20.1640625 L14.953125,20.1640625 L14.953125,3.3984375 C14.953125,1.52442929 16.4775543,4.86721774e-13 18.3515625,4.86721774e-13 L18.3515625,4.86721774e-13 Z M26.28125,22.4296875 L2.265625,22.4296875 L2.265625,55.734375 L26.2822456,55.734375 L26.2822456,55.734375 L26.28125,22.4296875 Z M18.4812164,50.4101563 C19.1069184,50.4101563 19.6144715,50.9172668 19.6144715,51.5429688 C19.6144715,52.1686707 19.1073608,52.6757813 18.481659,52.6757813 L18.481659,52.6757813 L10.0656586,52.6757813 C9.43995664,52.6757813 8.9328461,52.1686707 8.9328461,51.5429688 C8.9328461,50.9172668 9.43995664,50.4101563 10.0656586,50.4101563 L10.0656586,50.4101563 Z M31.9453125,50.296875 C32.2431183,50.296875 32.5356141,50.4181213 32.7462463,50.6287537 C32.9568787,50.8393859 33.078125,51.1318817 33.078125,51.4296875 C33.078125,51.7274933 32.9568787,52.0199891 32.7462463,52.2306213 C32.5356141,52.4412537 32.2431183,52.5625 31.9453125,52.5625 C31.6475067,52.5625 31.3550109,52.4412537 31.1443787,52.2306213 C30.9337463,52.0199891 30.8125,51.7274933 30.8125,51.4296875 C30.8125,51.1318817 30.9337463,50.8393859 31.1443787,50.6287537 C31.3550109,50.4181213 31.6475067,50.296875 31.9453125,50.296875 Z M20.84375,45.8789063 C21.469452,45.8789063 21.9765625,46.3860168 21.9765625,47.0117188 C21.9765625,47.6374207 21.469452,48.1445313 20.84375,48.1445313 L20.84375,48.1445313 L7.703125,48.1445313 C7.07742304,48.1445313 6.5703125,47.6374207 6.5703125,47.0117188 C6.5703125,46.3860168 7.07742304,45.8789063 7.703125,45.8789063 L7.703125,45.8789063 Z M14.2734375,25.4882813 C19.1454162,25.4882813 23.109375,29.4517975 23.109375,34.3242188 C23.109375,39.1961975 19.1458588,43.1601563 14.2734375,43.1601563 C9.40101621,43.1601563 5.4375,39.19664 5.4375,34.3242188 C5.4375,29.45224 9.4014588,25.4882813 14.2734375,25.4882813 Z M14.2734375,37.3244019 C12.647232,37.3244019 11.1891785,38.2753448 10.5125885,39.7068481 C11.5790253,40.4542389 12.8751221,40.8945313 14.2734375,40.8945313 C15.6717529,40.8945313 16.9678497,40.4542389 18.0342865,39.7068481 C17.3576965,38.2753448 15.899643,37.3244019 14.2734375,37.3244019 Z M14.2734375,27.7539063 C10.65065,27.7539063 7.703125,30.7014312 7.703125,34.3242188 C7.703125,35.6999664 8.12881464,36.977478 8.85408017,38.0337372 C9.47004697,37.069519 10.3320465,36.2898254 11.3405151,35.7707672 C10.9519959,35.2021484 10.7245483,34.5149384 10.7245483,33.7755127 L10.7245483,33.7755127 L10.7245483,33.1714936 C10.7245483,31.2151795 12.3166809,29.6230469 14.2734375,29.6230469 C16.2301941,29.6230469 17.8218842,31.2151795 17.8218842,33.1714936 L17.8218842,33.1714936 L17.8218842,33.7755127 C17.8218842,34.5149384 17.5944366,35.201706 17.2063599,35.7707672 C18.2148285,36.2898254 19.076828,37.069519 19.6923524,38.0337372 C20.4180604,36.977478 20.84375,35.6999664 20.84375,34.3242188 C20.84375,30.7014312 17.896225,27.7539063 14.2734375,27.7539063 Z M14.2734375,31.8886719 C13.5658722,31.8886719 12.9906158,32.4643707 12.9906158,33.171936 L12.9906158,33.171936 L12.9906158,33.7759552 C12.9906158,34.483078 13.5658722,35.0587769 14.2734375,35.0587769 C14.9810028,35.0587769 15.5567017,34.4835205 15.5567017,33.7759552 L15.5567017,33.7759552 L15.5567017,33.171936 C15.5567017,32.4643707 14.9810028,31.8886719 14.2734375,31.8886719 Z M36.4765625,22.0889588 C35.1021424,22.0889588 33.984375,23.2067261 33.984375,24.5811463 C33.984375,25.9551239 35.1021424,27.0733338 36.4765625,27.0733338 C37.8509826,27.0733338 38.96875,25.9551239 38.96875,24.5811463 C38.96875,23.2067261 37.8509826,22.0889588 36.4765625,22.0889588 Z M36.4765625,23.4478912 C36.7743683,23.4478912 37.0668641,23.5691376 37.2774963,23.7802124 C37.4881287,23.9908447 37.609375,24.2828979 37.609375,24.5807037 C37.609375,24.8789521 37.4881287,25.1710053 37.2774963,25.3816376 C37.0668641,25.5927124 36.7743683,25.7135162 36.4765625,25.7135162 C36.1787567,25.7135162 35.8862609,25.5927124 35.6756287,25.3816376 C35.4649963,25.1710053 35.34375,24.8789521 35.34375,24.5807037 C35.34375,24.2828979 35.4649963,23.9908447 35.6756287,23.7802124 C35.8862609,23.5691376 36.1787567,23.4478912 36.4765625,23.4478912 Z M38.96875,14.9256896 C38.2434845,15.3735047 37.3898926,15.6328125 36.4765625,15.6328125 C35.5632324,15.6328125 34.7096405,15.3735047 33.984375,14.9256896 L33.984375,14.9256896 L33.984375,20.5304565 C34.7096405,20.0821991 35.5632324,19.8233338 36.4765625,19.8233338 C37.3898926,19.8233338 38.2434845,20.0821991 38.96875,20.5304565 L38.96875,20.5304565 Z M36.4765625,8.3828125 C35.1021424,8.3828125 33.984375,9.50057989 33.984375,10.875 C33.984375,12.2494201 35.1021424,13.3671875 36.4765625,13.3671875 C37.8509826,13.3671875 38.96875,12.2494201 38.96875,10.875 C38.96875,9.50057989 37.8509826,8.3828125 36.4765625,8.3828125 Z M54.6015625,2.265625 L18.3515625,2.265625 C17.7267456,2.265625 17.21875,2.77362061 17.21875,3.3984375 L17.21875,3.3984375 L17.21875,7.25 C17.21875,9.11338809 18.5564423,10.6665802 20.3990326,10.9431457 L20.3990326,10.9431457 L31.71875,12.641037 L31.71875,10.875 C31.71875,8.25138858 33.8529511,6.1171875 36.4765625,6.1171875 C39.1001739,6.1171875 41.234375,8.25138858 41.234375,10.875 L41.234375,10.875 L41.234375,12.641037 L52.5540924,10.9431457 C54.3966827,10.6665802 55.734375,9.11338809 55.734375,7.25 L55.734375,7.25 L55.734375,3.3984375 C55.734375,2.77362061 55.2263794,2.265625 54.6015625,2.265625 L54.6015625,2.265625 Z M36.4765625,9.7421875 C36.7743683,9.7421875 37.0668641,9.86343378 37.2774963,10.0740662 C37.4881287,10.2846984 37.609375,10.5771942 37.609375,10.875 C37.609375,11.1728058 37.4881287,11.4653016 37.2774963,11.6759338 C37.0668641,11.8865662 36.7743683,12.0078125 36.4765625,12.0078125 C36.1787567,12.0078125 35.8862609,11.8865662 35.6756287,11.6759338 C35.4649963,11.4653016 35.34375,11.1728058 35.34375,10.875 C35.34375,10.5771942 35.4649963,10.2846984 35.6756287,10.0740662 C35.8862609,9.86343378 36.1787567,9.7421875 36.4765625,9.7421875 Z" id="Combined-Shape"></path>
            </g>
        </g>
    </g>
</svg>