<?xml version="1.0" encoding="UTF-8"?>
<svg width="60px" height="61px" viewBox="0 0 60 61" version="1.1" xmlns="http://www.w3.org/2000/svg" xmlns:xlink="http://www.w3.org/1999/xlink">
    <title>Group 12</title>
    <g id="Digital-Wallet---Styleguide-/-Library" stroke="none" stroke-width="1" fill="none" fill-rule="evenodd">
        <g id="04_dw_iconography_graphics" transform="translate(-143.000000, -936.000000)" fill="#333332" fill-rule="nonzero">
            <g id="Group-12" transform="translate(143.095416, 936.000000)">
                <path d="M16.2842604,50.2584301 C13.4783197,50.2584301 11.1953769,52.5129901 11.1953769,55.2843084 C11.1953769,58.055509 13.4782004,60.3101868 16.2842604,60.3101868 C19.0903205,60.310069 21.373144,58.055509 21.373144,55.2841906 C21.373144,52.5129901 19.0903205,50.2584301 16.2842604,50.2584301 Z M16.2842604,58.2996941 C14.6008868,58.2996941 13.2309542,56.9467225 13.2309542,55.2841906 C13.2309542,53.6216588 14.6008868,52.2686872 16.2842604,52.2686872 C17.9676341,52.2686872 19.3375667,53.6216588 19.3375667,55.2841906 C19.3375667,56.9467225 17.9676341,58.2996941 16.2842604,58.2996941 Z" id="Shape"></path>
                <path d="M52.9239359,50.2584301 C50.1179951,50.2584301 47.8350523,52.5129901 47.8350523,55.2843084 C47.8350523,58.055509 50.1178759,60.3101868 52.9239359,60.3101868 C55.7298767,60.3101868 58.0128195,58.0556268 58.0128195,55.2843084 C58.0128195,52.5129901 55.7299959,50.2584301 52.9239359,50.2584301 Z M52.9239359,58.2996941 C51.2405623,58.2996941 49.8706296,56.9467225 49.8706296,55.2841906 C49.8706296,53.6216588 51.2405623,52.2686872 52.9239359,52.2686872 C54.6073095,52.2686872 55.9772422,53.6216588 55.9772422,55.2841906 C55.9772422,56.9467225 54.6073095,58.2996941 52.9239359,58.2996941 Z" id="Shape"></path>
                <path d="M6.82616714,5.3203611 L8.2612211,6.73764772 C8.83216552,7.29751834 9.15991886,8.07860441 9.15991886,8.87665269 L9.15991886,8.87665269 L9.15991886,14.1899462 L57.1212779,20.1114055 C57.630202,20.1737181 58.0129387,20.601896 58.0129387,21.1085241 L58.0129387,21.1085241 L58.0129387,39.2015448 C58.0129387,41.9728632 55.7299959,44.2274232 52.9240552,44.2274232 L52.9240552,44.2274232 L12.2133444,44.2274232 C9.40728438,44.2274232 7.12446085,41.9727454 7.12446085,39.2015448 L7.12446085,39.2015448 L7.12446085,8.87571034 C7.12446085,8.60832 7.01556755,8.34893959 6.82521298,8.16200193 L6.82521298,8.16200193 L5.38705801,6.74165269 L6.82616714,5.3203611 Z M13.230058,31.1593611 L9.15905801,31.1593611 L9.15991886,39.2015448 C9.15991886,40.8047006 10.4337466,42.1200126 12.0341112,42.2119186 L12.2132252,42.2170483 L13.230058,42.2163611 L13.230058,31.1593611 Z M19.337058,31.1593611 L15.266058,31.1593611 L15.266058,42.2163611 L19.337058,42.2163611 L19.337058,31.1593611 Z M37.657058,31.1593611 L33.586058,31.1593611 L33.586058,42.2163611 L37.657058,42.2163611 L37.657058,31.1593611 Z M31.550058,31.1593611 L27.479058,31.1593611 L27.479058,42.2163611 L31.550058,42.2163611 L31.550058,31.1593611 Z M25.444058,31.1593611 L21.373058,31.1593611 L21.373058,42.2163611 L25.444058,42.2163611 L25.444058,31.1593611 Z M43.763058,31.1593611 L39.692058,31.1593611 L39.692058,42.2163611 L43.763058,42.2163611 L43.763058,31.1593611 Z M49.870058,31.1593611 L45.799058,31.1593611 L45.799058,42.2163611 L49.870058,42.2163611 L49.870058,31.1593611 Z M55.977058,31.1593611 L51.906058,31.1593611 L51.906058,42.2163611 L52.9239359,42.2170483 C54.547189,42.2170483 55.8789901,40.9589918 55.9720482,39.3784412 L55.9772422,39.2015448 L55.977058,31.1593611 Z M9.15991886,16.216341 L9.15905801,29.1493611 L13.230058,29.1493611 L13.230058,16.7183611 L9.15991886,16.216341 Z M15.266058,16.9693611 L15.266058,29.1493611 L19.337058,29.1493611 L19.337058,17.4713611 L15.266058,16.9693611 Z M33.586058,19.2313611 L33.586058,29.1493611 L37.657058,29.1493611 L37.657058,19.7343611 L33.586058,19.2313611 Z M27.479058,18.4773611 L27.479058,29.1493611 L31.550058,29.1493611 L31.550058,18.9793611 L27.479058,18.4773611 Z M21.373058,17.7233611 L21.373058,29.1493611 L25.444058,29.1493611 L25.444058,18.2253611 L21.373058,17.7233611 Z M39.692058,19.9853611 L39.692058,29.1493611 L43.763058,29.1493611 L43.763058,20.4873611 L39.692058,19.9853611 Z M45.799058,20.7393611 L45.799058,29.1493611 L49.870058,29.1493611 L49.870058,21.2413611 L45.799058,20.7393611 Z M51.906058,21.4933611 L51.906058,29.1493611 L55.977058,29.1493611 L55.9772422,21.9960952 L51.906058,21.4933611 Z" id="Combined-Shape"></path>
                <path d="M12.2132252,50.2584301 C10.5298515,50.2584301 9.15991886,48.9054585 9.15991886,47.2429266 L9.15991886,38.1964163 L7.12434158,38.1964163 L7.12434158,47.2429266 C7.12434158,50.0141272 9.40716511,52.268805 12.2132252,52.268805 L52.9239359,52.268805 L52.9239359,50.2584301 L12.2132252,50.2584301 L12.2132252,50.2584301 Z" id="Path"></path>
                <path d="M4.07103529,-2.30926389e-14 C1.82590101,-2.30926389e-14 1.45661261e-13,1.80329462 1.45661261e-13,4.020632 C1.45661261e-13,6.23808717 1.82590101,8.041264 4.07103529,8.041264 C6.31616957,8.041264 8.14207059,6.23796938 8.14207059,4.020632 C8.14218986,1.80329462 6.31628884,-2.30926389e-14 4.07103529,-2.30926389e-14 Z M4.07103529,6.0310069 C2.94846815,6.0310069 2.03545801,5.12941848 2.03545801,4.020632 C2.03545801,2.91196331 2.94834888,2.0102571 4.07103529,2.0102571 C5.1937217,2.0103749 6.10661258,2.91196331 6.10661258,4.020632 C6.10661258,5.12941848 5.1937217,6.0310069 4.07103529,6.0310069 Z" id="Shape"></path>
            </g>
        </g>
    </g>
</svg>