<?xml version="1.0" encoding="UTF-8"?>
<svg width="59px" height="55px" viewBox="0 0 59 55" version="1.1" xmlns="http://www.w3.org/2000/svg" xmlns:xlink="http://www.w3.org/1999/xlink">
    <title>Group 82</title>
    <g id="Digital-Wallet---Styleguide-/-Library" stroke="none" stroke-width="1" fill="none" fill-rule="evenodd">
        <g id="04_dw_iconography_graphics" transform="translate(-388.000000, -943.000000)" fill="#333332">
            <g id="Group-82" transform="translate(388.000000, 943.000000)">
                <path d="M43.1921769,28.284185 C43.7252538,28.284185 44.1614077,28.7210625 44.1614077,29.2550237 C44.1614077,29.788985 43.7252538,30.2210083 43.1921769,30.2210083 C42.6542538,30.2210083 42.2229462,29.788985 42.2229462,29.2550237 C42.2229462,28.7210625 42.6542538,28.284185 43.1921769,28.284185 M43.1921769,31.9296844 C44.6702538,31.9296844 45.8721,30.7258444 45.8721,29.2550237 C45.8721,27.7793489 44.6702538,26.5803631 43.1921769,26.5803631 C41.7141,26.5803631 40.5122538,27.7793489 40.5122538,29.2550237 C40.5122538,30.7258444 41.7141,31.9296844 43.1921769,31.9296844" id="Fill-77"></path>
                <path d="M56.4861462,29.0356142 L52.7982231,28.2977768 C52.4783769,28.2346723 52.2069923,28.0307961 52.0955308,27.7638155 C51.0439154,25.2881768 49.2605308,23.0309768 46.7793,21.05532 L46.7793,15.7011445 C46.7793,15.1720374 46.5466846,14.6769097 46.1396077,14.3419703 C45.7373769,14.007031 45.2091462,13.8662594 44.6857615,13.9681974 C43.2222231,14.2448865 40.9009154,14.9730155 38.2016077,16.8952761 C37.8139154,17.167111 37.7266846,17.6962181 37.9980692,18.0796994 C38.2694538,18.4631806 38.8073769,18.5554103 39.1902231,18.2835755 C41.7635308,16.4535445 43.9394538,15.8419161 45.0056077,15.6428942 C45.0153,15.6428942 45.0346846,15.63804 45.0540692,15.6526026 C45.0783,15.6720194 45.0783,15.6914361 45.0783,15.7011445 L45.0783,21.4679265 C45.0783,21.7349071 45.1994538,21.982471 45.4078385,22.1426594 C47.8212231,24.0018155 49.5416077,26.1182439 50.5253769,28.42884 C50.8597615,29.2200735 51.5818385,29.7977226 52.4638385,29.9724735 L56.1566077,30.710311 C56.6024538,30.7976865 56.9368385,31.2005845 56.9368385,31.6617329 L56.9368385,32.8995523 C56.9368385,35.3800452 55.3618385,38.1469355 52.5026077,40.6905329 C49.5755308,43.2923806 45.4078385,45.5689974 40.7652231,47.1029226 C39.2871462,47.5883419 38.0949923,48.6805355 37.4892231,50.1028142 L36.4957615,52.4182645 C36.3406846,52.7726206 35.9917615,53.0007677 35.5992231,53.0007677 L30.4186846,53.0007677 C30.3847615,53.0007677 30.3556846,52.9764968 30.3556846,52.9473716 L30.3556846,48.3892839 C30.3556846,47.9184271 29.9776846,47.5398 29.5076077,47.5398 C29.0326846,47.5398 28.6546846,47.9184271 28.6546846,48.3892839 L28.6546846,49.3164348 C28.0004538,49.34556 27.3801462,49.3601226 26.7695308,49.3601226 C24.2689154,49.3601226 21.7973769,49.1077045 19.4130692,48.6077226 L19.4130692,47.4766955 C19.4130692,47.0058387 19.0302231,46.6272116 18.5601462,46.6272116 C18.0852231,46.6272116 17.7023769,47.0058387 17.7023769,47.4766955 L17.7023769,52.9473716 C17.7023769,52.9764968 17.6781462,53.0007677 17.6442231,53.0007677 L12.5703,53.0007677 C12.1583769,53.0007677 11.7852231,52.7386413 11.6543769,52.3405974 L9.49299231,45.8651032 C9.16345385,44.8845561 8.57222308,44.0302181 7.7823,43.3943187 C4.10406923,40.442969 2.07353077,36.7149484 2.07353077,32.8995523 C2.07353077,23.8222103 13.1566846,16.4389819 26.7695308,16.4389819 C29.5221462,16.4389819 32.2214538,16.7399419 34.8044538,17.3370077 C35.2599923,17.4389458 35.7203769,17.1574026 35.8269923,16.6962542 C35.9336077,16.23996 35.6476846,15.7836658 35.1873,15.6768735 C32.4831462,15.0506826 29.6529923,14.73516 26.7695308,14.73516 C20.1642231,14.73516 13.9223769,16.39044 9.06653077,19.4097484 C8.39776154,17.7156348 6.74037692,16.5554826 4.87460769,16.5554826 C2.39337692,16.5554826 0.372530769,18.5748271 0.372530769,21.0504658 C0.372530769,21.5261768 0.755376923,21.9048039 1.22545385,21.9048039 C1.69553077,21.9048039 2.07353077,21.5261768 2.07353077,21.0504658 C2.07353077,19.5116865 3.32868462,18.2593045 4.87460769,18.2593045 C6.16368462,18.2593045 7.29283846,19.1524761 7.58845385,20.4000039 C2.92645385,23.7785226 0.372530769,28.1958387 0.372530769,32.8995523 C0.372530769,37.2392013 2.62599231,41.4429329 6.7113,44.7243677 C7.24922308,45.1515368 7.65145385,45.73404 7.87437692,46.4039187 L10.0357615,52.8794129 C10.3992231,53.9764606 11.4169154,54.7094439 12.5703,54.7094439 L17.6442231,54.7094439 C18.6231462,54.7094439 19.4130692,53.9182103 19.4130692,52.9473716 L19.4130692,50.3503781 C21.8070692,50.826089 24.2737615,51.0639445 26.7695308,51.0639445 C27.3801462,51.0639445 28.0004538,51.0493819 28.6546846,51.025111 L28.6546846,52.9473716 C28.6546846,53.9182103 29.4446077,54.7094439 30.4186846,54.7094439 L35.5992231,54.7094439 C36.6750692,54.7094439 37.6394538,54.0735445 38.0610692,53.0881432 L39.0545308,50.7726929 C39.4713,49.8018542 40.2903,49.0543084 41.2983,48.7242232 C46.2316846,47.0932142 50.4963,44.7534929 53.6366077,41.9623316 C56.9126077,39.0498155 58.6378385,35.9140065 58.6378385,32.8995523 L58.6378385,31.6617329 C58.6378385,30.3899342 57.7364538,29.2831781 56.4861462,29.0356142" id="Fill-78"></path>
                <path d="M22.0944462,18.6825902 C21.6243692,18.7456947 21.2996769,19.1728637 21.3626769,19.6388663 C21.4159846,20.0708895 21.7891385,20.3815579 22.2059077,20.3815579 C22.2446769,20.3815579 22.2834462,20.3767037 22.3222154,20.3718495 C25.2250615,19.9883683 28.3120615,19.9883683 31.2197538,20.3718495 C31.6849846,20.4349541 32.1114462,20.1048689 32.1744462,19.6388663 C32.2422923,19.1728637 31.9079077,18.7456947 31.4426769,18.6825902 C28.3896,18.2796921 25.1523692,18.2796921 22.0944462,18.6825902" id="Fill-79"></path>
                <path d="M26.7705,1.85892619 C29.3147308,1.85892619 31.3888846,3.92681265 31.3888846,6.47526426 C31.3888846,9.01886168 29.3147308,11.0867481 26.7705,11.0867481 C24.2214231,11.0867481 22.1472692,9.01886168 22.1472692,6.47526426 C22.1472692,3.92681265 24.2214231,1.85892619 26.7705,1.85892619 M26.7705,12.7905701 C30.2597308,12.7905701 33.0995769,9.95572103 33.0995769,6.47526426 C33.0995769,2.98995329 30.2597308,0.155104258 26.7705,0.155104258 C23.2812692,0.155104258 20.4414231,2.98995329 20.4414231,6.47526426 C20.4414231,9.95572103 23.2812692,12.7905701 26.7705,12.7905701" id="Fill-80"></path>
                <path d="M27.4567154,8.36500181 C27.6214846,8.53004439 27.8395615,8.61256568 28.0576385,8.61256568 C28.2805615,8.61256568 28.4986385,8.53004439 28.6634077,8.36500181 C28.9929462,8.03491665 28.9929462,7.49124697 28.6634077,7.15630761 L26.0852538,4.58358503 C25.7460231,4.24864568 25.2081,4.24864568 24.8785615,4.58358503 C24.5393308,4.91367019 24.5393308,5.45248568 24.8785615,5.78742503 L27.4567154,8.36500181 Z" id="Fill-81"></path>
            </g>
        </g>
    </g>
</svg>