<?xml version="1.0" encoding="UTF-8"?>
<svg width="54px" height="50px" viewBox="0 0 54 50" version="1.1" xmlns="http://www.w3.org/2000/svg" xmlns:xlink="http://www.w3.org/1999/xlink">
    <title>Group 16</title>
    <g id="Digital-Wallet---Styleguide-/-Library" stroke="none" stroke-width="1" fill="none" fill-rule="evenodd">
        <g id="04_dw_iconography_graphics" transform="translate(-514.000000, -861.000000)" fill="#333332">
            <g id="Group-16" transform="translate(515.102962, 862.036057)">
                <path d="M50.1087222,32.5453638 C50.1048956,32.8201408 49.8867836,33.0399623 49.6189267,33.0399623 L39.8268447,33.0399623 C37.0679189,33.0399623 34.8332223,30.7514631 34.8332223,27.9330369 C34.8294007,25.10676 37.0679189,22.8182608 39.8268447,22.8143354 L48.2490301,22.8143354 C48.2528567,22.8143354 48.2528567,22.8143354 48.2566832,22.8143354 L48.2605097,22.8143354 L49.6189267,22.8143354 C49.8867836,22.8143354 50.1087222,23.0380823 50.1087222,23.3128592 L50.1087222,32.5453638 Z M47.5181635,44.5177869 C47.5181635,44.9299523 47.1890822,45.2675354 46.7834704,45.2675354 L6.62789829,45.2675354 C3.8154011,45.2675354 1.54244419,42.9358569 1.53861766,40.0664008 L1.53861766,9.65252077 C2.57560642,10.7830315 4.04116618,11.4935262 5.67509312,11.4738992 L30.7694558,11.4738992 L46.7834704,11.4738992 C47.1890822,11.4738992 47.5181635,11.8075569 47.5181635,12.2236477 L47.5181635,21.3109131 L39.8268447,21.3109131 C36.2528687,21.3109131 33.3561879,24.2745785 33.3561879,27.9291115 C33.3561879,31.5836446 36.2528687,34.54731 39.8268447,34.54731 L47.5181635,34.54731 L47.5181635,44.5177869 Z M5.67509312,1.50342231 L30.0347626,1.50342231 L30.0347626,9.96655154 L5.67509312,9.96655154 L5.56412384,9.96655154 C3.49397285,9.93907385 1.81795412,8.35321846 1.53861766,6.31986923 L1.53861766,5.73891231 C1.53861766,5.66825538 1.51948503,5.60544923 1.5003524,5.53871769 C1.59984209,3.26984538 3.44040148,1.47201923 5.67509312,1.50342231 L5.67509312,1.50342231 Z M48.9913763,21.3109131 L48.9913763,12.2236477 C48.9913763,10.9793008 48.0003059,9.96655154 46.7834704,9.96655154 L31.5041489,9.96655154 L31.5041489,1.50342231 C31.5041489,0.675166154 30.8459863,-2.84217094e-14 30.0347626,-2.84217094e-14 L5.67509312,-2.84217094e-14 L5.54499121,-2.84217094e-14 C2.44933104,0.0353284615 -0.0340848442,2.63393308 0.000353896865,5.80171846 C0.00418042365,6.00191308 0.0462722183,6.19033154 0.0654048522,6.38267538 L0.0654048522,40.0664008 C0.0730579058,43.7680385 3.00417742,46.7709577 6.62789829,46.7748831 L46.7834704,46.7748831 C48.0003059,46.7748831 48.9913763,45.7621338 48.9913763,44.5177869 L48.9913763,34.54731 L49.6189267,34.54731 C50.7018338,34.54731 51.5781084,33.6523223 51.581935,32.5453638 L51.581935,23.3128592 C51.5781084,22.2059008 50.7018338,21.3109131 49.6189267,21.3109131 L48.9913763,21.3109131 Z" id="Fill-73" stroke="#333332" stroke-width="0.55"></path>
                <path d="M39.9634517,29.4097666 C39.2402381,29.4097666 38.6471265,28.8091828 38.6432999,28.0672851 C38.6432999,27.321462 39.2325851,26.7169528 39.9596252,26.7169528 C40.6828387,26.7169528 41.2759504,27.3175366 41.2797769,28.0633597 C41.2797769,28.8052574 40.6866653,29.4097666 39.9634517,29.4097666 M39.9634517,25.2135214 C38.4251879,25.2096051 37.1739137,26.4853551 37.1739137,28.0594343 C37.1739137,29.6374389 38.4213614,30.9131889 39.9596252,30.9131889 C41.4978889,30.9131889 42.7491632,29.6374389 42.7491632,28.0633597 C42.7491632,26.4892805 41.5017155,25.2135214 39.9634517,25.2135214" id="Fill-74"></path>
                <path d="M22.6503312,36.6356146 C21.6592608,35.7052985 20.7294148,34.7161015 19.8378341,33.6876508 C22.2064541,31.1283 25.1605328,27.3560054 25.3709918,24.2510262 C25.3786448,24.1568169 25.3824714,24.0626077 25.3824714,23.9723238 C25.3862979,23.8349354 25.3556857,23.7093231 25.3518592,23.57586 C26.396501,23.4502477 27.4526224,23.8074577 28.1758359,24.6160869 C28.8339985,25.3305069 29.1669064,26.2883008 29.1018554,27.2657215 C28.902876,30.2333123 24.7510945,34.6768477 22.6503312,36.6356146 M16.4054395,35.0262069 C14.7217677,33.4482023 9.16565085,27.9722908 8.90544703,24.1450408 C8.8289165,22.9988285 9.22304876,21.8683177 9.99218064,21.0322108 C10.7345268,20.2118054 11.7676891,19.7368338 12.8544227,19.7211323 C14.0253399,19.7407592 15.1197265,20.3060146 15.827634,21.2598831 C15.8544197,21.2873608 15.8773788,21.3187638 15.9041645,21.3423162 C16.2255928,21.6210185 16.7077351,21.58569 16.9832451,21.2598831 C17.687326,20.3060146 18.7817127,19.7407592 19.9526299,19.7211323 C21.04319,19.7368338 22.0801788,20.2118054 22.8148719,21.0322108 C23.5878303,21.8683177 23.9857891,22.9988285 23.9016055,24.1450408 C23.6452282,27.9722908 18.0929378,33.4442769 16.4054395,35.0262069 M25.0878288,22.1116915 C24.3684418,19.8899238 22.3671683,18.2608892 19.9526299,18.21771 C18.6286516,18.2255608 17.3582447,18.7476369 16.401613,19.6858038 C15.4449813,18.7476369 14.1784009,18.2255608 12.8544227,18.2137846 C12.762586,18.21771 12.6745759,18.2216354 12.5827393,18.2255608 C9.53682395,18.4336062 7.23325483,21.1303454 7.43606075,24.2471008 C7.78044816,29.3618769 15.5903893,36.3098077 15.9232972,36.6042115 C16.0533991,36.7219731 16.2255928,36.7887046 16.401613,36.7887046 C16.5776332,36.7887046 16.7498269,36.7219731 16.8837554,36.6081369 C16.9870716,36.5178531 17.7638565,35.82306 18.8084984,34.7632062 C19.8646197,35.97615 20.978139,37.1380638 22.1681889,38.2136192 C22.3021173,38.3313808 22.4704845,38.3981123 22.6503312,38.3981123 C22.8263515,38.3981123 22.9947187,38.3313808 23.1286471,38.2136192 C23.4194631,37.9584692 30.2651196,31.8662723 30.5674152,27.3677815 C30.6669049,25.97427 30.188589,24.6043108 29.25109,23.5915615 C28.1758359,22.4060954 26.6184395,21.8957954 25.0878288,22.1116915" id="Fill-75"></path>
            </g>
        </g>
    </g>
</svg>